<?xml version="1.0" standalone="no"?>
<!DOCTYPE svg PUBLIC "-//W3C//DTD SVG 1.1//EN" "http://www.w3.org/Graphics/SVG/1.1/DTD/svg11.dtd" >
<svg xmlns="http://www.w3.org/2000/svg" xmlns:xlink="http://www.w3.org/1999/xlink" version="1.1">
<metadata>
Created by FontForge 20161116 at Mon Jan 17 20:26:08 2011
 By Jimmy Wärting
Copyright (c) Mark Simonson, 2010. All rights reserved.
</metadata>
<defs>
<font id="ProximaNovaSoft-Medium" horiz-adv-x="573" >
  <font-face 
    font-family="Proxima Nova Soft Md"
    font-weight="500"
    font-stretch="normal"
    units-per-em="1000"
    panose-1="2 0 5 6 3 0 0 2 0 4"
    ascent="775"
    descent="-225"
    x-height="483"
    cap-height="673"
    bbox="-157 -270 1064 908"
    underline-thickness="20"
    underline-position="-133"
    stemh="91"
    stemv="98"
    unicode-range="U+000D-FB02"
  />
<missing-glyph horiz-adv-x="501" 
d="M426 -58c0 -18 -15 -32 -32 -32h-287c-18 0 -32 14 -32 32v778c0 17 14 32 32 32h287c17 0 32 -15 32 -32v-778zM394 -60v782h-288v-782h288z" />
    <glyph glyph-name="fi" unicode="fi" horiz-adv-x="528" 
d="M411 662c31 0 57 -26 57 -58c0 -31 -26 -57 -57 -57s-57 26 -57 57c0 32 26 58 57 58zM456 38c0 -24 -20 -44 -45 -44c-24 0 -44 20 -44 44v408c0 23 20 43 46 43c23 0 43 -20 43 -43v-408zM315 638c0 -20 -11 -37 -32 -37c-7 0 -16 4 -27 4c-45 0 -72 -31 -72 -88v-34
h66c21 0 38 -17 38 -38c0 -22 -16 -40 -38 -40h-66v-367c0 -24 -20 -44 -44 -44c-25 0 -45 18 -45 44v367h-48c-21 0 -38 17 -38 39c0 21 15 39 38 39h48v34c0 101 59 160 146 160c35 0 74 -6 74 -39z" />
    <glyph glyph-name="fl" unicode="fl" horiz-adv-x="528" 
d="M456 38c0 -24 -20 -44 -45 -44c-24 0 -44 20 -44 44v592c0 23 20 43 46 43c23 0 43 -20 43 -43v-592zM315 638c0 -20 -11 -37 -32 -37c-7 0 -16 4 -27 4c-45 0 -72 -31 -72 -88v-34h66c21 0 38 -17 38 -38c0 -22 -16 -40 -38 -40h-66v-367c0 -24 -20 -44 -44 -44
c-25 0 -45 18 -45 44v367h-48c-21 0 -38 17 -38 39c0 21 15 39 38 39h48v34c0 101 59 160 146 160c35 0 74 -6 74 -39z" />
    <glyph glyph-name=".notdef" horiz-adv-x="501" 
d="M426 -58c0 -18 -15 -32 -32 -32h-287c-18 0 -32 14 -32 32v778c0 17 14 32 32 32h287c17 0 32 -15 32 -32v-778zM394 -60v782h-288v-782h288z" />
    <glyph glyph-name="NULL" horiz-adv-x="0" 
 />
    <glyph glyph-name="NULL" horiz-adv-x="0" 
 />
    <glyph glyph-name="CR" unicode="&#xd;" horiz-adv-x="0" 
 />
    <glyph glyph-name="space" unicode=" " horiz-adv-x="257" 
 />
    <glyph glyph-name="exclam" unicode="!" horiz-adv-x="237" 
d="M172 620c0 -6 -13 -364 -15 -394c-1 -21 -17 -37 -39 -37c-21 0 -38 16 -39 37c-1 30 -14 388 -14 394c-1 29 23 53 54 53c30 0 53 -24 53 -53zM180 52c0 -33 -28 -62 -62 -62c-33 0 -61 29 -61 62s28 62 61 62c34 0 62 -29 62 -62z" />
    <glyph glyph-name="quotedbl" unicode="&#x22;" horiz-adv-x="360" 
d="M155 625c0 -12 -20 -156 -28 -209c-2 -11 -12 -20 -25 -20c-11 0 -21 9 -23 20c-8 53 -28 197 -28 209c0 28 23 52 52 52s52 -24 52 -52zM309 625c0 -12 -20 -156 -28 -210c-1 -10 -11 -19 -25 -19c-10 0 -21 9 -22 19c-8 54 -28 198 -28 210c0 28 23 52 52 52
s51 -24 51 -52z" />
    <glyph glyph-name="numbersign" unicode="#" horiz-adv-x="598" 
d="M571 457c0 -16 -13 -29 -29 -29h-88l-64 -190h72c16 0 29 -13 29 -30s-13 -30 -29 -30h-93l-53 -162c-5 -14 -18 -23 -32 -23c-20 0 -34 16 -34 32c0 4 1 7 2 11l49 142h-107l-54 -162c-5 -14 -18 -23 -32 -23c-20 0 -34 16 -34 33c0 3 1 7 2 10l48 142h-66
c-16 0 -29 13 -29 32c0 15 13 28 29 28h87l62 190h-69c-16 0 -29 13 -29 31c0 16 13 29 29 29h90l54 163c4 13 17 22 32 22c19 0 33 -15 33 -32c0 -4 0 -7 -1 -10l-47 -143h105l54 163c5 13 18 22 32 22c20 0 33 -15 33 -32c0 -4 0 -7 -1 -10l-49 -143h69
c16 0 29 -13 29 -31zM383 428h-106l-62 -190h105z" />
    <glyph glyph-name="dollar" unicode="$" horiz-adv-x="599" 
d="M553 189c0 -97 -61 -187 -213 -199v-62c0 -19 -15 -34 -34 -34c-21 0 -36 15 -36 34v61c-85 6 -162 37 -208 84c-8 8 -12 19 -12 30c0 25 20 49 45 49c11 0 20 -4 28 -10c38 -32 88 -57 147 -65v221c-103 28 -210 63 -210 189c0 103 85 180 210 189v64c0 19 15 34 36 34
c19 0 34 -15 34 -34v-66c67 -7 130 -28 174 -70c8 -8 12 -19 12 -30c0 -26 -22 -47 -48 -47c-7 0 -16 2 -23 7c-36 26 -74 44 -115 50v-196c103 -28 213 -68 213 -199zM270 406v182c-65 -5 -108 -42 -108 -94c0 -49 47 -70 108 -88zM452 179c0 57 -49 81 -112 100v-202
c82 10 112 60 112 102z" />
    <glyph glyph-name="percent" unicode="%" horiz-adv-x="738" 
d="M356 510c0 -93 -66 -163 -164 -163c-97 0 -162 70 -162 163c0 94 65 167 162 167c98 0 164 -73 164 -167zM595 635l-403 -631c-5 -6 -12 -11 -20 -11c-14 0 -27 11 -27 25c0 5 2 9 5 14l402 630c4 7 13 11 21 11c14 0 25 -13 25 -26c0 -4 -1 -9 -3 -12zM709 152
c0 -93 -67 -164 -164 -164s-162 71 -162 164c0 94 65 166 162 166s164 -72 164 -166zM98 510c0 -60 39 -105 94 -105c56 0 96 45 96 105c0 64 -40 108 -96 108c-55 0 -94 -44 -94 -108zM450 152c0 -61 39 -106 95 -106s96 45 96 106c0 63 -40 108 -96 108s-95 -45 -95 -108z
" />
    <glyph glyph-name="ampersand" unicode="&#x26;" horiz-adv-x="642" 
d="M490 128c31 -35 75 -64 75 -92c0 -21 -17 -42 -42 -42c-28 0 -69 49 -90 71c-49 -46 -111 -77 -189 -77c-117 0 -211 63 -211 188c0 103 69 156 146 196c-29 51 -49 102 -49 149c0 89 75 156 174 156c89 0 157 -48 157 -134c0 -100 -84 -144 -168 -186
c57 -79 99 -123 145 -173c25 37 44 80 57 115c6 15 21 24 37 24c23 0 40 -20 40 -39c0 -6 -2 -13 -5 -19c-19 -44 -48 -96 -77 -137zM128 183c0 -78 60 -123 126 -123c49 0 93 24 128 58c-90 96 -117 127 -166 197c-50 -31 -88 -69 -88 -132zM308 609c-48 0 -87 -37 -87 -90
c0 -33 15 -71 37 -108c67 33 123 67 123 128c0 45 -32 70 -73 70z" />
    <glyph glyph-name="quotesingle" unicode="'" horiz-adv-x="206" 
d="M155 625c0 -12 -20 -156 -28 -209c-2 -11 -12 -20 -25 -20c-11 0 -21 9 -23 20c-8 53 -28 197 -28 209c0 28 23 52 52 52s52 -24 52 -52z" />
    <glyph glyph-name="parenleft" unicode="(" horiz-adv-x="261" 
d="M237 -152c0 -18 -16 -38 -38 -38c-10 0 -21 4 -28 14c-80 117 -128 269 -128 419c0 149 47 302 129 420c6 9 17 14 28 14c21 0 37 -17 37 -37c0 -5 -1 -10 -3 -15c-58 -116 -94 -232 -94 -382c0 -149 36 -264 93 -379c2 -5 4 -10 4 -16z" />
    <glyph glyph-name="parenright" unicode=")" horiz-adv-x="261" 
d="M218 243c0 -150 -47 -302 -128 -419c-7 -10 -18 -14 -28 -14c-22 0 -38 19 -38 38c0 5 2 11 4 16c58 115 93 230 93 379c0 150 -36 266 -94 382c-2 4 -3 9 -3 15c0 17 14 37 36 37c11 0 22 -5 29 -14c82 -118 129 -270 129 -420z" />
    <glyph glyph-name="asterisk" unicode="*" horiz-adv-x="343" 
d="M173 683c12 0 24 -11 23 -24l-5 -96l81 51c3 2 7 4 12 4c10 0 24 -9 24 -25c0 -8 -4 -16 -12 -20l-85 -43l84 -44c8 -3 12 -12 12 -20c0 -14 -10 -25 -24 -25c-4 0 -9 1 -12 4l-80 51l5 -95c1 -13 -11 -24 -25 -24s-24 11 -24 24l4 95l-81 -51c-3 -3 -8 -4 -11 -4
c-11 0 -24 10 -24 25c0 8 4 16 12 20l85 44l-85 43c-8 4 -12 12 -12 21c0 14 11 24 24 24c4 0 8 -1 11 -3l81 -52l-4 96c0 13 10 24 26 24z" />
    <glyph glyph-name="plus" unicode="+" horiz-adv-x="500" 
d="M477 338c0 -18 -12 -30 -28 -30h-166v-185c0 -18 -14 -32 -33 -32c-18 0 -32 14 -32 32v185h-166c-16 0 -29 12 -29 30c0 16 13 29 29 29h166v179c0 17 14 31 34 31c17 0 31 -14 31 -31v-179h166c16 0 28 -13 28 -29z" />
    <glyph glyph-name="comma" unicode="," horiz-adv-x="237" 
d="M187 31c0 -56 -31 -113 -74 -150c-5 -4 -11 -7 -17 -7c-12 0 -28 10 -28 26c0 7 3 14 8 20c25 21 45 52 49 78c-2 -1 -10 -2 -15 -2c-31 0 -53 23 -53 57c0 33 26 61 59 61c37 0 71 -31 71 -83z" />
    <glyph glyph-name="hyphen" unicode="-" horiz-adv-x="300" 
d="M276 243c0 -23 -17 -40 -38 -40h-176c-21 0 -38 17 -38 40c0 21 17 38 38 38h176c21 0 38 -17 38 -38z" />
    <glyph glyph-name="period" unicode="." horiz-adv-x="237" 
d="M180 52c0 -34 -28 -62 -62 -62c-33 0 -61 28 -61 62c0 33 28 62 61 62c34 0 62 -29 62 -62z" />
    <glyph glyph-name="slash" unicode="/" horiz-adv-x="305" 
d="M295 665c0 -4 0 -7 -1 -10l-222 -663c-4 -14 -16 -22 -30 -22c-19 0 -33 15 -33 32c0 4 1 7 2 10l221 663c5 13 17 22 31 22c18 0 32 -16 32 -32z" />
    <glyph glyph-name="zero" unicode="0" horiz-adv-x="614" 
d="M568 333c0 -165 -77 -345 -261 -345c-185 0 -261 180 -261 345s76 344 261 344c184 0 261 -179 261 -344zM467 333c0 130 -42 256 -160 256c-119 0 -160 -126 -160 -256s41 -257 160 -257c118 0 160 127 160 257z" />
    <glyph glyph-name="one" unicode="1" horiz-adv-x="358" 
d="M284 43c0 -27 -22 -49 -50 -49c-27 0 -49 22 -49 49v494l-85 -88c-8 -8 -17 -12 -28 -12c-21 0 -42 18 -42 42c0 11 4 21 12 30l145 147c10 11 24 16 40 16c30 0 57 -24 57 -55v-574z" />
    <glyph glyph-name="two" unicode="2" horiz-adv-x="591" 
d="M528 45c0 -26 -19 -45 -43 -45h-395c-24 0 -46 20 -46 48c0 15 7 29 19 39c238 181 355 287 355 389c0 78 -66 113 -131 113c-63 0 -115 -21 -155 -56c-8 -8 -18 -11 -28 -11c-23 0 -45 19 -45 44c0 9 3 19 10 27c49 54 135 84 217 84c119 0 232 -68 232 -201
c0 -130 -126 -247 -308 -388h275c24 0 43 -20 43 -43z" />
    <glyph glyph-name="three" unicode="3" horiz-adv-x="565" 
d="M514 181c0 -112 -93 -193 -243 -193c-96 0 -182 37 -225 88c-7 7 -10 16 -10 25c0 23 20 45 44 45c9 0 19 -3 27 -10c43 -37 100 -60 161 -60c92 0 148 44 148 114c0 75 -61 107 -158 107c-36 -2 -78 1 -78 45c0 24 18 43 43 43c97 -1 182 15 182 99
c0 69 -65 105 -143 105c-57 0 -106 -19 -149 -55c-7 -6 -16 -9 -25 -9c-21 0 -43 18 -43 42c0 11 5 23 13 30c53 49 123 80 213 80c135 0 233 -66 233 -179c0 -93 -79 -142 -145 -154c63 -6 155 -58 155 -163z" />
    <glyph glyph-name="four" unicode="4" horiz-adv-x="568" 
d="M544 204c0 -24 -19 -43 -42 -43h-55v-118c0 -27 -22 -49 -51 -49c-27 0 -48 22 -48 49v118h-274c-26 0 -50 22 -50 54c0 10 4 22 10 32l255 387c16 24 44 39 73 39c44 3 85 -29 85 -73v-352h55c23 0 42 -20 42 -44zM348 248v329l-220 -329h220z" />
    <glyph glyph-name="five" unicode="5" horiz-adv-x="595" 
d="M547 211c0 -138 -103 -223 -245 -223c-94 0 -174 30 -220 83c-6 8 -9 17 -9 27c0 22 19 46 44 46c10 0 21 -4 29 -11c42 -37 93 -57 156 -57c88 0 146 57 146 131c0 80 -58 132 -144 132c-48 0 -93 -14 -131 -44c-12 -8 -26 -14 -40 -14c-28 0 -51 21 -51 49v272
c0 36 30 65 66 65h319c24 0 43 -19 43 -45c0 -23 -19 -43 -43 -43h-286v-213c32 32 88 59 154 59c111 0 212 -78 212 -214z" />
    <glyph glyph-name="six" unicode="6" horiz-adv-x="596" 
d="M551 209c0 -120 -92 -221 -239 -221c-191 0 -266 161 -266 344c0 187 92 345 282 345c71 0 132 -20 171 -64c6 -7 9 -16 9 -25c0 -25 -21 -44 -44 -44c-9 0 -19 3 -26 8c-28 23 -61 37 -110 37c-120 0 -182 -118 -182 -242c0 -8 0 -15 1 -23c29 46 101 99 184 99
c120 0 220 -72 220 -214zM451 205c0 91 -66 133 -146 133c-61 0 -121 -37 -157 -90c8 -78 50 -172 159 -172c96 0 144 70 144 129z" />
    <glyph glyph-name="seven" unicode="7" horiz-adv-x="523" 
d="M502 619c0 -6 -2 -13 -4 -18l-258 -578c-8 -18 -26 -29 -45 -29c-30 0 -51 24 -51 49c0 6 2 13 5 19l233 517h-316c-24 0 -43 20 -43 45c0 24 19 43 43 43h389c22 0 47 -19 47 -48z" />
    <glyph glyph-name="eight" unicode="8" horiz-adv-x="588" 
d="M541 170c0 -116 -113 -182 -247 -182s-247 65 -247 182c0 87 73 148 155 174c-76 23 -144 73 -144 159c0 122 122 174 236 174s237 -52 237 -174c0 -86 -69 -136 -145 -159c82 -26 155 -87 155 -174zM430 489c0 64 -60 101 -136 101c-77 0 -136 -37 -136 -101
c0 -72 96 -98 136 -105c41 7 136 33 136 105zM441 181c0 79 -106 113 -147 119c-41 -6 -147 -40 -147 -119c0 -65 68 -106 147 -106c78 0 147 41 147 106z" />
    <glyph glyph-name="nine" unicode="9" horiz-adv-x="596" 
d="M549 334c0 -187 -92 -345 -282 -345c-71 0 -131 20 -171 63c-6 7 -10 16 -10 26c0 25 22 44 45 44c10 0 19 -3 26 -8c28 -23 62 -37 110 -37c121 0 182 118 182 242c0 8 0 15 -1 23c-29 -46 -101 -99 -184 -99c-120 0 -220 72 -220 214c0 120 92 221 240 221
c190 0 265 -161 265 -344zM447 418c-7 78 -49 172 -159 172c-96 0 -144 -70 -144 -129c0 -91 66 -133 146 -133c62 0 121 37 157 90z" />
    <glyph glyph-name="colon" unicode=":" horiz-adv-x="236" 
d="M180 428c0 -34 -28 -62 -62 -62c-33 0 -61 28 -61 62s28 62 61 62c34 0 62 -28 62 -62zM180 52c0 -34 -28 -62 -62 -62c-33 0 -61 28 -61 62c0 33 28 62 61 62c34 0 62 -29 62 -62z" />
    <glyph glyph-name="semicolon" unicode=";" horiz-adv-x="237" 
d="M180 428c0 -33 -28 -62 -62 -62c-33 0 -61 29 -61 62c0 34 28 62 61 62c34 0 62 -28 62 -62zM187 32c0 -56 -31 -113 -74 -150c-5 -4 -11 -6 -17 -6c-12 0 -28 10 -28 25c0 8 3 15 8 20c25 22 45 52 49 79c-2 -1 -10 -2 -15 -2c-31 0 -53 23 -53 56s26 61 59 61
c37 0 71 -30 71 -83z" />
    <glyph glyph-name="less" unicode="&#x3c;" horiz-adv-x="500" 
d="M477 138c0 -20 -18 -32 -32 -32c-5 0 -9 1 -13 3l-384 185c-15 7 -25 23 -25 42c0 16 10 32 25 39l383 186c5 2 9 2 14 2c15 0 32 -12 32 -32c0 -12 -7 -23 -18 -28l-359 -169l359 -168c11 -4 18 -16 18 -28z" />
    <glyph glyph-name="equal" unicode="=" horiz-adv-x="500" 
d="M477 239c0 -18 -12 -31 -28 -31h-398c-15 0 -28 13 -28 31c0 16 13 28 28 28h398c16 0 28 -12 28 -28zM477 431c0 -18 -13 -31 -28 -31h-397c-15 0 -29 13 -29 31c0 15 14 29 29 29h397c15 0 28 -14 28 -29z" />
    <glyph glyph-name="greater" unicode="&#x3e;" horiz-adv-x="500" 
d="M477 336c0 -19 -10 -35 -25 -42l-385 -185c-4 -2 -8 -3 -13 -3c-14 0 -31 13 -31 32c0 12 6 24 17 28l359 168l-358 169c-12 5 -19 16 -19 28c0 19 16 32 33 32c4 0 9 0 13 -2l384 -186c15 -7 25 -23 25 -39z" />
    <glyph glyph-name="question" unicode="?" horiz-adv-x="460" 
d="M432 521c0 -149 -186 -162 -186 -256c0 -14 10 -26 10 -40c0 -19 -15 -38 -39 -38c-39 0 -58 56 -58 86c0 125 171 137 171 233c0 45 -34 83 -107 83c-52 0 -92 -19 -124 -50c-8 -7 -18 -11 -29 -11c-22 0 -42 19 -42 43c0 9 3 19 9 26c44 52 120 80 196 80
c124 0 199 -68 199 -156zM287 52c0 -34 -29 -62 -62 -62c-34 0 -62 28 -62 62c0 33 28 62 62 62c33 0 62 -29 62 -62z" />
    <glyph glyph-name="at" unicode="@" horiz-adv-x="783" 
d="M747 324c0 -160 -95 -239 -180 -239c-57 0 -89 38 -92 82c-36 -46 -94 -82 -156 -82c-94 0 -153 67 -153 164c0 138 115 250 232 250c64 0 108 -34 128 -75l7 36c4 17 20 30 38 30c23 0 40 -17 40 -37c0 -3 -1 -6 -1 -8l-47 -225c-1 -6 -2 -16 -2 -22
c0 -33 19 -50 44 -50c39 0 104 44 104 176c0 162 -112 279 -281 279c-192 0 -358 -170 -358 -357c0 -160 121 -282 286 -282c65 0 124 19 176 51c2 1 5 2 8 2c7 0 17 -7 17 -17c0 -5 -2 -10 -6 -12c-59 -37 -130 -58 -199 -58c-182 0 -317 137 -317 314
c0 215 189 394 397 394c190 0 315 -141 315 -314zM513 366c-11 28 -43 68 -97 68c-95 0 -167 -89 -167 -179c0 -61 36 -105 97 -105c65 0 112 45 139 83z" />
    <glyph glyph-name="A" unicode="A" horiz-adv-x="665" 
d="M637 47c0 -25 -21 -53 -53 -53c-21 0 -40 12 -48 32l-44 113h-319l-44 -113c-8 -20 -27 -32 -48 -32c-31 0 -53 26 -53 53c0 6 1 12 3 19l221 554c12 32 44 53 79 53c35 1 68 -20 81 -53l221 -554c3 -7 4 -13 4 -19zM464 226l-132 340l-131 -340h263z" />
    <glyph glyph-name="B" unicode="B" horiz-adv-x="638" 
d="M588 180c0 -105 -70 -180 -194 -180h-254c-36 0 -65 29 -65 65v537c0 36 29 65 65 65h246c119 0 189 -73 189 -170c0 -84 -55 -140 -117 -153c71 -11 130 -83 130 -164zM473 482c0 55 -38 98 -105 98h-194v-196h194c67 0 105 42 105 98zM486 192c0 56 -39 105 -114 105
h-198v-210h198c72 0 114 40 114 105z" />
    <glyph glyph-name="C" unicode="C" horiz-adv-x="679" 
d="M393 678c104 0 177 -42 228 -99c8 -9 12 -20 12 -32c0 -25 -21 -46 -47 -46c-12 0 -26 5 -34 16c-39 45 -101 73 -159 73c-140 0 -244 -107 -244 -257c0 -149 104 -257 244 -257c59 0 118 26 159 72c8 10 22 16 35 16c26 0 46 -22 46 -46c0 -12 -4 -23 -12 -31
c-52 -56 -124 -99 -228 -99c-194 0 -347 140 -347 345s153 345 347 345z" />
    <glyph glyph-name="D" unicode="D" horiz-adv-x="705" 
d="M657 333c0 -193 -137 -333 -345 -333h-172c-36 0 -65 29 -65 65v537c0 36 29 65 65 65h172c208 0 345 -142 345 -334zM556 333c0 137 -86 246 -244 246h-138v-491h138c154 0 244 110 244 245z" />
    <glyph glyph-name="E" unicode="E" 
d="M527 45c0 -26 -19 -45 -43 -45h-344c-36 0 -65 29 -65 65v537c0 36 29 65 65 65h344c24 0 43 -19 43 -45c0 -23 -19 -43 -43 -43h-310v-195h303c24 0 43 -19 43 -45c0 -23 -19 -43 -43 -43h-303v-208h310c24 0 43 -20 43 -43z" />
    <glyph glyph-name="F" unicode="F" horiz-adv-x="556" 
d="M527 622c0 -23 -19 -43 -43 -43h-310v-195h303c24 0 43 -19 43 -45c0 -23 -19 -43 -43 -43h-303v-253c0 -27 -22 -49 -50 -49c-27 0 -49 22 -49 49v559c0 36 29 65 65 65h344c24 0 43 -19 43 -45z" />
    <glyph glyph-name="G" unicode="G" horiz-adv-x="715" 
d="M661 158c0 -108 -146 -171 -268 -171c-192 0 -347 138 -347 346s155 345 347 345c102 0 178 -39 231 -93c9 -8 12 -21 12 -32c0 -25 -20 -46 -45 -46c-12 0 -24 5 -33 15c-41 42 -103 68 -165 68c-140 0 -244 -107 -244 -257c0 -149 104 -258 244 -258
c74 0 137 36 169 67v121h-178c-24 0 -43 19 -43 44c0 24 19 43 43 43h211c36 0 66 -29 66 -65v-127z" />
    <glyph glyph-name="H" unicode="H" horiz-adv-x="717" 
d="M643 43c0 -27 -22 -49 -50 -49s-50 22 -50 49v256h-369v-256c0 -27 -22 -49 -50 -49c-27 0 -49 22 -49 49v582c0 26 22 48 51 48c26 0 48 -22 48 -48v-238h369v238c0 26 22 48 52 48c26 0 48 -22 48 -48v-582z" />
    <glyph glyph-name="I" unicode="I" horiz-adv-x="248" 
d="M174 43c0 -27 -22 -49 -50 -49c-27 0 -49 22 -49 49v582c0 26 22 48 51 48c26 0 48 -22 48 -48v-582z" />
    <glyph glyph-name="J" unicode="J" horiz-adv-x="478" 
d="M403 206c0 -149 -94 -218 -218 -218c-57 0 -116 15 -155 57c-8 7 -11 17 -11 27c0 24 20 45 44 45c7 0 15 -1 21 -6c25 -19 55 -35 94 -35c77 0 126 53 126 131v418c0 26 22 48 51 48c26 0 48 -22 48 -48v-419z" />
    <glyph glyph-name="K" unicode="K" horiz-adv-x="610" 
d="M551 41c0 -23 -20 -48 -48 -48c-14 0 -27 6 -37 18l-229 280l-63 -72v-176c0 -27 -22 -49 -50 -49c-27 0 -49 22 -49 49v582c0 26 22 48 51 48c26 0 48 -22 48 -48v-290l269 321c9 11 22 16 35 16c26 0 49 -20 49 -46c0 -10 -4 -21 -11 -28l-215 -247l239 -282
c7 -8 11 -18 11 -28z" />
    <glyph glyph-name="L" unicode="L" horiz-adv-x="513" 
d="M482 45c0 -26 -19 -45 -43 -45h-299c-36 0 -65 29 -65 65v560c0 26 22 48 51 48c26 0 48 -22 48 -48v-537h265c24 0 43 -20 43 -43z" />
    <glyph glyph-name="M" unicode="M" horiz-adv-x="821" 
d="M747 43c0 -27 -22 -49 -50 -49s-50 22 -50 49v484l-212 -517c-4 -9 -13 -16 -26 -16c-10 0 -20 7 -24 16l-211 517v-484c0 -27 -22 -49 -50 -49c-27 0 -49 22 -49 49v557c0 38 32 71 72 71c37 2 73 -14 87 -49l176 -430l177 430c12 30 42 49 74 49c45 2 86 -27 86 -71
v-557z" />
    <glyph glyph-name="N" unicode="N" horiz-adv-x="714" 
d="M639 51c0 -29 -25 -57 -60 -57c-19 0 -38 9 -49 25l-356 487v-463c0 -27 -22 -49 -50 -49c-27 0 -49 22 -49 49v569c0 32 27 61 64 61c20 0 41 -10 53 -27l348 -473v452c0 26 22 48 51 48c26 0 48 -22 48 -48v-574z" />
    <glyph glyph-name="O" unicode="O" horiz-adv-x="765" 
d="M718 333c0 -198 -138 -345 -336 -345c-199 0 -336 147 -336 345s137 345 336 345c198 0 336 -147 336 -345zM616 333c0 148 -92 257 -234 257c-143 0 -233 -109 -233 -257c0 -147 90 -257 233 -257c142 0 234 110 234 257z" />
    <glyph glyph-name="P" unicode="P" horiz-adv-x="597" 
d="M568 462c0 -111 -78 -205 -213 -205h-181v-214c0 -27 -22 -49 -50 -49c-27 0 -49 22 -49 49v559c0 36 29 65 65 65h215c137 0 213 -94 213 -205zM466 462c0 70 -51 117 -124 117h-168v-234h168c73 0 124 48 124 117z" />
    <glyph glyph-name="Q" unicode="Q" horiz-adv-x="765" 
d="M718 333c0 -98 -34 -183 -91 -243l34 -37c7 -8 10 -18 10 -28c0 -24 -19 -46 -45 -46c-13 0 -25 5 -33 15l-37 39c-49 -29 -108 -45 -174 -45c-199 0 -336 147 -336 345s137 345 336 345c198 0 336 -147 336 -345zM616 333c0 148 -92 257 -234 257
c-143 0 -233 -109 -233 -257c0 -147 90 -257 233 -257c42 0 79 10 112 28l-64 70c-8 8 -11 18 -11 28c0 22 19 46 45 46c12 0 24 -5 33 -15l65 -71c34 45 54 104 54 171z" />
    <glyph glyph-name="R" unicode="R" horiz-adv-x="617" 
d="M568 462c0 -119 -80 -184 -166 -195l129 -200c5 -9 7 -17 7 -25c0 -24 -20 -48 -49 -48c-16 0 -31 8 -40 23l-150 240h-125v-214c0 -27 -22 -49 -50 -49c-27 0 -49 22 -49 49v559c0 36 29 65 65 65h215c126 0 213 -81 213 -205zM342 579h-168v-235h168
c73 0 124 48 124 118s-51 117 -124 117z" />
    <glyph glyph-name="S" unicode="S" horiz-adv-x="590" 
d="M548 189c0 -104 -72 -201 -252 -201c-98 0 -187 33 -239 84c-8 9 -12 20 -12 31c0 25 19 49 46 49c9 0 20 -3 28 -9c46 -39 108 -68 181 -68c108 0 146 57 146 104c0 158 -392 67 -392 308c0 110 98 190 236 190c83 0 168 -26 218 -72c9 -8 13 -20 13 -31
c0 -25 -22 -46 -47 -46c-9 0 -19 3 -27 9c-49 36 -107 53 -165 53c-75 0 -126 -39 -126 -96c0 -138 392 -56 392 -305z" />
    <glyph glyph-name="T" unicode="T" 
d="M549 622c0 -23 -19 -43 -43 -43h-170v-536c0 -27 -22 -49 -50 -49c-27 0 -49 22 -49 49v536h-170c-24 0 -43 20 -43 45c0 24 19 43 43 43h439c24 0 43 -19 43 -45z" />
    <glyph glyph-name="U" unicode="U" horiz-adv-x="709" 
d="M634 262c0 -166 -93 -274 -279 -274c-187 0 -280 109 -280 273v364c0 26 22 48 51 48c26 0 48 -22 48 -48v-361c0 -115 63 -188 181 -188c117 0 180 73 180 188v361c0 26 21 48 51 48c27 0 48 -22 48 -48v-363z" />
    <glyph glyph-name="V" unicode="V" horiz-adv-x="665" 
d="M637 621c0 -6 -1 -13 -3 -19l-221 -555c-13 -32 -45 -53 -78 -53h-5c-34 0 -66 21 -78 53l-221 555c-3 6 -4 12 -4 19c0 24 22 52 54 52c20 0 40 -12 48 -33l203 -532l204 532c7 20 26 33 48 33c31 0 53 -25 53 -52z" />
    <glyph glyph-name="W" unicode="W" horiz-adv-x="892" 
d="M867 624c0 -5 -1 -10 -2 -14l-162 -567c-8 -29 -35 -49 -65 -49h-2c-30 0 -56 21 -63 49l-127 473l-128 -473c-8 -29 -34 -49 -64 -49h-2c-31 0 -56 20 -63 48l-162 568c-1 5 -2 9 -2 14c0 26 20 51 52 51c23 0 46 -16 52 -40l131 -504l138 505c5 22 25 37 49 37
c22 0 42 -15 48 -37l137 -505l131 504c5 23 27 39 51 39c31 0 53 -23 53 -50z" />
    <glyph glyph-name="X" unicode="X" horiz-adv-x="656" 
d="M605 42c0 -25 -20 -49 -48 -49c-14 0 -28 7 -37 19l-192 261l-193 -261c-8 -12 -22 -19 -37 -19c-26 0 -48 20 -48 48c0 9 3 19 9 28l204 273l-189 257c-6 8 -9 17 -9 26c0 23 19 48 48 48c15 0 29 -8 39 -20l176 -243l176 243c8 13 22 20 38 20c25 0 49 -21 49 -48
c0 -9 -3 -18 -9 -27l-189 -255l204 -274c6 -8 8 -18 8 -27z" />
    <glyph glyph-name="Y" unicode="Y" horiz-adv-x="631" 
d="M588 626c0 -8 -2 -17 -7 -25l-216 -321v-237c0 -27 -21 -49 -50 -49c-27 0 -48 22 -48 49v237l-217 322c-5 7 -8 15 -8 24c0 23 18 47 47 47c15 0 32 -8 41 -21l186 -284l185 283c8 13 24 21 39 21c27 0 48 -22 48 -46z" />
    <glyph glyph-name="Z" unicode="Z" horiz-adv-x="587" 
d="M546 45c0 -26 -19 -45 -43 -45h-410c-26 0 -52 23 -52 55c0 12 4 24 11 33l353 491h-322c-23 0 -43 20 -43 45c0 24 20 43 43 43h404c26 0 51 -23 51 -55c0 -12 -4 -24 -11 -34l-353 -490h329c24 0 43 -20 43 -43z" />
    <glyph glyph-name="bracketleft" unicode="[" horiz-adv-x="253" 
d="M242 -158c0 -18 -14 -32 -30 -32h-105c-36 0 -65 29 -65 65v738c0 36 29 65 65 65h105c16 0 30 -14 30 -32c0 -17 -14 -31 -30 -31h-103v-742h103c16 0 30 -14 30 -31z" />
    <glyph glyph-name="backslash" unicode="\" horiz-adv-x="305" 
d="M295 2c0 -15 -13 -32 -32 -32c-13 0 -26 8 -31 22l-221 663c-1 3 -2 6 -2 9c0 16 14 33 33 33c13 0 26 -9 30 -22l222 -663c1 -3 1 -6 1 -10z" />
    <glyph glyph-name="bracketright" unicode="]" horiz-adv-x="253" 
d="M211 -125c0 -36 -29 -65 -65 -65h-104c-17 0 -31 14 -31 32c0 17 14 31 31 31h102v742h-102c-17 0 -31 14 -31 33c0 16 14 30 31 30h104c36 0 65 -29 65 -65v-738z" />
    <glyph glyph-name="asciicircum" unicode="^" horiz-adv-x="434" 
d="M400 358c0 -14 -13 -32 -33 -32c-10 0 -22 6 -27 17l-123 260l-122 -260c-5 -11 -16 -17 -27 -17c-19 0 -33 16 -33 32c0 5 1 9 3 14l137 274c8 16 24 27 44 27c17 0 34 -11 42 -27l136 -274c2 -4 3 -9 3 -14z" />
    <glyph glyph-name="underscore" unicode="_" horiz-adv-x="564" 
d="M573 -71c0 -18 -14 -32 -30 -32h-521c-17 0 -31 14 -31 32c0 17 14 31 31 31h521c16 0 30 -14 30 -31z" />
    <glyph glyph-name="grave" unicode="`" horiz-adv-x="233" 
d="M206 574c0 -12 -10 -24 -24 -24c-5 0 -10 2 -15 6l-117 101c-6 5 -9 12 -9 20c0 14 14 28 30 28c7 0 14 -2 20 -8l109 -107c4 -5 6 -10 6 -16z" />
    <glyph glyph-name="a" unicode="a" horiz-adv-x="531" 
d="M460 38c0 -24 -20 -44 -45 -44h-3c-18 0 -41 15 -41 44v16c-39 -43 -94 -66 -159 -66c-80 0 -168 54 -168 160c0 109 88 158 168 158c66 0 121 -21 159 -64v81c0 61 -50 97 -118 97c-45 0 -85 -14 -121 -42c-7 -5 -15 -8 -22 -8c-18 0 -37 14 -37 35c0 8 3 16 9 23
c46 46 119 67 184 67c104 0 194 -45 194 -168v-289zM371 106v82c-27 37 -75 56 -125 56c-65 0 -112 -40 -112 -98c0 -56 47 -95 112 -95c50 0 98 18 125 55z" />
    <glyph glyph-name="b" unicode="b" horiz-adv-x="578" 
d="M535 241c0 -158 -90 -253 -215 -253c-65 0 -123 33 -159 81v-31c0 -24 -20 -44 -45 -44c-24 0 -44 20 -44 44v592c0 23 20 43 46 43c23 0 43 -20 43 -43v-217c39 52 95 82 159 82c125 0 215 -99 215 -254zM442 241c0 101 -55 175 -147 175c-54 0 -110 -33 -134 -72v-207
c24 -39 80 -70 134 -70c92 0 147 73 147 174z" />
    <glyph glyph-name="c" unicode="c" horiz-adv-x="496" 
d="M457 73c0 -9 -4 -19 -12 -26c-36 -35 -85 -59 -157 -59c-145 0 -245 109 -245 254c0 144 100 253 245 253c74 0 128 -26 161 -64c5 -6 7 -13 7 -21c0 -22 -19 -40 -41 -40c-10 0 -20 4 -28 11c-27 24 -59 35 -94 35c-96 0 -158 -73 -158 -174s62 -175 158 -175
c36 0 67 12 94 36c8 6 18 9 28 9c21 0 42 -16 42 -39z" />
    <glyph glyph-name="d" unicode="d" horiz-adv-x="578" 
d="M506 38c0 -24 -20 -44 -45 -44c-24 0 -44 20 -44 44v31c-37 -48 -94 -81 -159 -81c-125 0 -215 95 -215 253c0 155 89 254 215 254c63 0 120 -30 159 -82v217c0 23 20 43 46 43c23 0 43 -20 43 -43v-592zM417 138v206c-25 39 -80 72 -136 72c-90 0 -146 -74 -146 -175
s56 -174 146 -174c56 0 111 31 136 71z" />
    <glyph glyph-name="e" unicode="e" horiz-adv-x="560" 
d="M518 258c0 -24 -21 -45 -46 -45h-336c7 -83 67 -153 165 -153c41 0 85 14 120 40c6 3 13 5 20 5c16 0 36 -14 36 -36c0 -54 -124 -81 -185 -81c-144 0 -249 102 -249 254c0 140 101 253 241 253c117 0 197 -73 225 -181c4 -16 9 -37 9 -56zM432 276
c-2 65 -46 147 -149 147c-96 0 -143 -80 -147 -147h296z" />
    <glyph glyph-name="f" unicode="f" horiz-adv-x="295" 
d="M342 628c0 -22 -17 -35 -34 -35c-16 0 -31 12 -52 12c-46 0 -72 -31 -72 -88v-34h66c21 0 38 -17 38 -40c0 -21 -17 -38 -38 -38h-66v-367c0 -24 -20 -44 -45 -44c-24 0 -44 20 -44 44v367h-48c-21 0 -38 17 -38 40c0 21 17 38 38 38h48v34c0 100 57 160 146 160
c43 0 101 -15 101 -49z" />
    <glyph glyph-name="g" unicode="g" horiz-adv-x="577" 
d="M505 19c0 -166 -120 -215 -238 -215c-68 0 -136 14 -183 59c-6 6 -10 15 -10 25c0 21 18 38 38 38c9 0 16 -2 23 -7c37 -31 79 -42 132 -42c75 0 149 36 149 139v64c-36 -49 -93 -84 -159 -84c-124 0 -214 92 -214 249c0 156 89 250 214 250c64 0 120 -30 159 -82v33
c0 23 20 43 46 43c23 0 43 -20 43 -43v-427zM416 148v196c-25 39 -80 72 -135 72c-90 0 -146 -70 -146 -171c0 -99 56 -170 146 -170c55 0 110 34 135 73z" />
    <glyph glyph-name="h" unicode="h" horiz-adv-x="560" 
d="M488 38c0 -24 -20 -44 -45 -44c-24 0 -44 20 -44 44v274c0 80 -42 104 -104 104c-56 0 -107 -34 -134 -71v-307c0 -24 -20 -44 -45 -44c-24 0 -44 20 -44 44v592c0 23 20 43 46 43c23 0 43 -20 43 -43v-215c33 39 97 80 172 80c102 0 155 -51 155 -153v-304z" />
    <glyph glyph-name="i" unicode="i" horiz-adv-x="233" 
d="M116 662c32 0 57 -26 57 -58c0 -31 -25 -57 -57 -57c-31 0 -57 26 -57 57c0 32 26 58 57 58zM161 38c0 -24 -20 -44 -45 -44c-24 0 -44 20 -44 44v408c0 23 20 43 46 43c23 0 43 -20 43 -43v-408z" />
    <glyph glyph-name="j" unicode="j" horiz-adv-x="233" 
d="M116 662c32 0 57 -26 57 -58c0 -31 -26 -57 -57 -57s-57 26 -57 57c0 32 26 58 57 58zM161 -38c0 -99 -53 -158 -151 -158c-53 0 -106 15 -106 51c0 20 18 36 37 36c16 0 31 -14 56 -14c43 0 75 26 75 85v484c0 23 20 43 46 43c23 0 43 -20 43 -43v-484z" />
    <glyph glyph-name="k" unicode="k" horiz-adv-x="520" 
d="M467 38c0 -21 -17 -45 -44 -45c-13 0 -27 6 -35 18l-153 198l-74 -75v-96c0 -24 -20 -44 -45 -44c-24 0 -44 20 -44 44v592c0 23 20 43 46 43c23 0 43 -20 43 -43v-393l228 240c8 8 19 13 29 13c22 0 42 -20 42 -42c0 -10 -4 -19 -11 -27l-150 -157l159 -200
c6 -7 9 -17 9 -26z" />
    <glyph glyph-name="l" unicode="l" horiz-adv-x="233" 
d="M161 38c0 -24 -20 -44 -45 -44c-24 0 -44 20 -44 44v592c0 23 20 43 46 43c23 0 43 -20 43 -43v-592z" />
    <glyph glyph-name="m" unicode="m" horiz-adv-x="820" 
d="M748 38c0 -24 -20 -44 -45 -44c-24 0 -44 20 -44 44v284c0 57 -25 94 -84 94c-49 0 -98 -35 -121 -70v-308c0 -24 -20 -44 -45 -44c-24 0 -44 20 -44 44v284c0 57 -24 94 -85 94c-47 0 -95 -35 -119 -71v-307c0 -24 -20 -44 -45 -44c-24 0 -44 20 -44 44v408
c0 23 20 43 46 43c23 0 43 -20 43 -43v-31c20 30 84 80 156 80c74 0 116 -38 131 -89c28 44 92 89 163 89c89 0 137 -48 137 -146v-311z" />
    <glyph glyph-name="n" unicode="n" horiz-adv-x="559" 
d="M487 38c0 -24 -20 -44 -45 -44c-24 0 -44 20 -44 44v272c0 80 -41 106 -103 106c-57 0 -108 -34 -134 -71v-307c0 -24 -20 -44 -45 -44c-24 0 -44 20 -44 44v408c0 23 20 43 46 43c23 0 43 -20 43 -43v-31c33 39 97 80 171 80c102 0 155 -53 155 -155v-302z" />
    <glyph glyph-name="o" unicode="o" 
d="M530 242c0 -139 -93 -254 -244 -254c-150 0 -243 115 -243 254s93 253 243 253c151 0 244 -114 244 -253zM437 242c0 92 -54 174 -151 174c-96 0 -151 -82 -151 -174c0 -93 55 -175 151 -175c97 0 151 82 151 175z" />
    <glyph glyph-name="p" unicode="p" horiz-adv-x="575" 
d="M535 242c0 -157 -89 -254 -215 -254c-64 0 -120 29 -159 82v-217c0 -23 -20 -43 -45 -43c-24 0 -44 20 -44 43v593c0 23 20 43 46 43c23 0 43 -20 43 -43v-32c35 48 93 81 159 81c126 0 215 -95 215 -253zM441 242c0 101 -55 174 -146 174c-54 0 -110 -32 -134 -71v-206
c24 -39 80 -72 134 -72c91 0 146 74 146 175z" />
    <glyph glyph-name="q" unicode="q" horiz-adv-x="575" 
d="M503 -147c0 -23 -20 -43 -46 -43c-24 0 -44 20 -44 43v217c-39 -53 -95 -82 -158 -82c-126 0 -215 97 -215 254c0 158 89 253 215 253c66 0 124 -33 158 -81v32c0 23 20 43 46 43c24 0 44 -20 44 -43v-593zM413 139v206c-23 39 -79 71 -134 71c-90 0 -146 -73 -146 -174
s56 -175 146 -175c55 0 111 33 134 72z" />
    <glyph glyph-name="r" unicode="r" horiz-adv-x="338" 
d="M326 450c0 -26 -20 -45 -45 -47c-46 -4 -91 -24 -120 -67v-298c0 -24 -20 -44 -45 -44h-1c-24 1 -43 20 -43 44v408c0 23 20 43 46 43c23 0 43 -20 43 -43v-38c27 37 71 82 125 82c23 0 40 -17 40 -40z" />
    <glyph glyph-name="s" unicode="s" horiz-adv-x="468" 
d="M426 136c0 -82 -68 -148 -196 -148c-66 0 -139 19 -183 63c-7 6 -11 14 -11 24c0 21 18 37 39 37c9 0 16 -2 23 -7c36 -26 86 -46 136 -46c69 0 105 31 105 75c0 107 -295 37 -295 219c0 76 66 142 184 142c69 0 130 -21 168 -58c6 -6 9 -14 9 -22c0 -20 -17 -35 -35 -35
c-8 0 -15 2 -21 7c-31 22 -74 37 -120 37c-61 0 -99 -29 -99 -68c0 -97 296 -30 296 -220z" />
    <glyph glyph-name="t" unicode="t" horiz-adv-x="306" 
d="M297 35c0 -32 -39 -47 -92 -47c-76 0 -116 42 -116 118v299h-47c-22 0 -39 17 -39 40c0 21 17 38 39 38h47v95c0 23 20 43 46 43c24 0 44 -20 44 -43v-95h66c21 0 38 -17 38 -40c0 -21 -17 -38 -38 -38h-66v-278c0 -37 18 -60 47 -60c11 0 23 5 33 5c22 0 38 -16 38 -37z
" />
    <glyph glyph-name="u" unicode="u" horiz-adv-x="559" 
d="M487 38c0 -24 -20 -44 -45 -44c-24 0 -44 20 -44 44v28c-36 -41 -98 -78 -172 -78c-102 0 -154 51 -154 153v305c0 23 20 43 46 43c23 0 43 -20 43 -43v-274c0 -80 41 -105 103 -105c56 0 107 32 134 69v310c0 23 20 43 46 43c23 0 43 -20 43 -43v-408z" />
    <glyph glyph-name="v" unicode="v" horiz-adv-x="496" 
d="M477 445c0 -5 -1 -11 -3 -16l-162 -393c-11 -25 -36 -42 -64 -42h-2c-27 0 -51 17 -61 42l-163 393c-2 5 -3 11 -3 16c0 22 18 44 45 44c18 0 34 -10 41 -28l143 -358l142 358c7 17 24 28 41 28c27 0 46 -21 46 -44z" />
    <glyph glyph-name="w" unicode="w" horiz-adv-x="743" 
d="M721 446c0 -4 -1 -8 -2 -12l-126 -399c-7 -24 -30 -41 -56 -41h-1c-26 0 -48 17 -56 41l-108 337l-109 -337c-7 -24 -30 -41 -56 -41h-2c-25 0 -47 17 -55 41l-126 399c-1 4 -2 8 -2 12c0 21 18 43 43 43c19 0 38 -12 44 -30l103 -345l112 341c7 20 25 34 49 34
c21 0 39 -14 46 -34l113 -341l103 345c5 18 23 30 42 30c26 0 44 -20 44 -43z" />
    <glyph glyph-name="x" unicode="x" horiz-adv-x="491" 
d="M448 34c0 -19 -16 -41 -42 -41c-12 0 -25 6 -32 17l-129 179l-129 -179c-8 -11 -19 -17 -32 -17c-21 0 -41 19 -41 41c0 9 2 17 8 24l139 190l-129 177c-5 7 -8 14 -8 22c0 19 17 42 42 42c12 0 25 -6 33 -17l117 -164l117 163c7 11 20 18 33 18c23 0 42 -20 42 -41
c0 -8 -2 -17 -8 -24l-129 -176l141 -190c4 -7 7 -15 7 -24z" />
    <glyph glyph-name="y" unicode="y" horiz-adv-x="496" 
d="M477 445c0 -5 -1 -11 -3 -15l-216 -523c-31 -73 -84 -103 -149 -103c-31 0 -64 7 -64 40c0 23 18 40 40 40c8 0 16 -1 23 0c27 0 49 11 65 46l28 64l-179 436c-2 5 -3 10 -3 15c0 22 18 44 45 44c17 0 34 -10 41 -28l143 -358l142 358c7 17 24 28 42 28
c26 0 45 -21 45 -44z" />
    <glyph glyph-name="z" unicode="z" horiz-adv-x="474" 
d="M430 40c0 -23 -17 -40 -37 -40h-307c-23 0 -42 19 -42 45c0 11 4 21 10 29l248 331h-221c-21 0 -38 17 -38 40c0 21 17 38 38 38h304c20 0 40 -18 40 -44c0 -10 -3 -20 -9 -28l-251 -334h228c20 0 37 -17 37 -37z" />
    <glyph glyph-name="braceleft" unicode="{" horiz-adv-x="268" 
d="M257 -158c0 -18 -13 -32 -33 -32h-34c-68 0 -134 54 -134 141v197c0 33 -8 56 -31 64c-16 7 -27 16 -27 33c0 16 11 24 27 31c23 8 31 31 31 64v196c0 88 66 142 134 142h34c20 0 33 -14 33 -32c0 -17 -13 -31 -33 -31h-34c-36 0 -65 -32 -65 -78v-204
c0 -42 -13 -75 -46 -89c33 -14 46 -47 46 -89v-203c0 -46 29 -79 65 -79h34c20 0 33 -14 33 -31z" />
    <glyph glyph-name="bar" unicode="|" horiz-adv-x="212" 
d="M138 5c0 -17 -14 -31 -32 -31c-17 0 -31 14 -31 31v658c0 16 14 30 33 30c16 0 30 -14 30 -30v-658z" />
    <glyph glyph-name="braceright" unicode="}" horiz-adv-x="268" 
d="M269 244c0 -16 -10 -25 -27 -32c-22 -8 -31 -31 -31 -64v-197c0 -87 -65 -141 -133 -141h-34c-20 0 -33 14 -33 32c0 17 13 31 33 31h34c35 0 65 33 65 79v203c0 42 13 75 46 89c-33 14 -46 47 -46 89v204c0 46 -30 78 -65 78h-34c-20 0 -33 14 -33 33c0 16 13 30 33 30
h34c68 0 133 -54 133 -142v-196c0 -33 9 -56 31 -64c17 -7 27 -15 27 -32z" />
    <glyph glyph-name="asciitilde" unicode="~" horiz-adv-x="505" 
d="M474 628c-12 -109 -43 -208 -138 -208c-126 0 -96 186 -168 186c-42 0 -62 -66 -74 -155c-2 -17 -16 -27 -32 -27c-22 0 -32 15 -32 34c13 110 45 208 138 208c127 0 96 -187 168 -187c42 0 64 65 74 157c1 16 15 27 32 27c20 0 32 -16 32 -35z" />
    <glyph glyph-name="uni00A0" unicode="&#xa0;" horiz-adv-x="257" 
 />
    <glyph glyph-name="exclamdown" unicode="&#xa1;" horiz-adv-x="237" 
d="M180 432c-1 -34 -28 -62 -62 -62s-62 28 -62 62c0 32 28 61 62 61s62 -29 62 -61zM172 -137c0 -29 -24 -53 -53 -53c-30 0 -54 24 -53 53c0 5 12 365 13 394c1 21 17 37 40 37c21 0 37 -16 38 -37c2 -29 15 -389 15 -394z" />
    <glyph glyph-name="cent" unicode="&#xa2;" horiz-adv-x="496" 
d="M457 74c0 -8 -2 -16 -8 -22c-30 -34 -74 -57 -132 -62v-62c0 -18 -15 -32 -33 -32c-20 0 -35 14 -35 32v63c-124 17 -206 119 -206 251c0 131 82 232 206 250v45c0 18 15 32 35 32c18 0 33 -14 33 -32v-44c59 -5 103 -28 132 -62c5 -7 7 -14 7 -21c0 -23 -20 -40 -41 -40
c-9 0 -17 3 -23 9c-24 20 -47 30 -75 34v-343c28 3 51 15 75 35c6 5 14 7 23 7c20 0 42 -15 42 -38zM249 73v336c-71 -18 -114 -83 -114 -167c0 -85 43 -150 114 -169z" />
    <glyph glyph-name="sterling" unicode="&#xa3;" horiz-adv-x="527" 
d="M510 51c0 -43 -71 -64 -132 -64c-89 0 -108 45 -180 45c-26 0 -58 -10 -90 -26c-6 -2 -12 -3 -18 -3c-21 0 -38 16 -38 38c0 15 7 29 21 37c63 35 100 83 100 132c0 21 -6 41 -15 58h-114c-16 0 -30 14 -30 32c0 16 14 30 30 30h72c-33 39 -69 83 -69 147
c0 115 108 200 229 200c81 0 156 -32 191 -86c4 -6 6 -13 6 -20c0 -25 -20 -43 -45 -43c-12 0 -24 5 -33 14c-30 27 -63 53 -108 53c-72 0 -133 -45 -133 -119c0 -67 41 -103 72 -146h125c16 0 30 -14 30 -32c0 -16 -14 -30 -30 -30h-96c3 -11 6 -23 6 -36
c0 -58 -34 -100 -73 -127c14 5 34 9 51 9c62 0 88 -39 143 -39c33 0 60 19 81 19c22 0 47 -17 47 -43z" />
    <glyph glyph-name="currency" unicode="&#xa4;" horiz-adv-x="605" 
d="M563 112c0 -19 -17 -39 -39 -39c-9 0 -19 4 -26 11l-51 50c-39 -27 -87 -43 -145 -43s-107 17 -146 44l-50 -51c-7 -7 -17 -10 -26 -10c-19 0 -39 16 -39 37c0 9 4 19 11 26l51 51c-28 41 -44 91 -44 145s16 105 45 145l-53 52c-7 8 -11 17 -11 27c0 19 16 38 38 38
c11 0 20 -3 27 -11l53 -53c39 27 87 43 144 43s106 -16 144 -43l52 53c7 7 16 10 26 10c19 0 39 -16 39 -38c0 -9 -4 -19 -11 -26l-52 -52c29 -40 46 -91 46 -145c0 -55 -17 -105 -45 -146l51 -50c7 -7 11 -17 11 -25zM455 333c0 84 -54 160 -153 160
c-98 0 -152 -76 -152 -160c0 -85 54 -162 152 -162c99 0 153 77 153 162z" />
    <glyph glyph-name="yen" unicode="&#xa5;" horiz-adv-x="631" 
d="M616 149c0 -16 -14 -29 -29 -29h-222v-77c0 -27 -21 -49 -48 -49c-28 0 -50 20 -50 49v77h-221c-16 0 -29 13 -29 31c0 15 13 29 29 29h221v100h-222c-16 0 -28 12 -28 30c0 16 12 29 28 29h181l-176 263c-6 7 -8 15 -8 24c0 22 18 47 47 47c15 0 32 -8 41 -21l186 -284
l185 283c8 13 24 21 39 21c27 0 48 -22 48 -46c0 -8 -2 -17 -7 -25l-176 -262h182c16 0 29 -13 29 -31c0 -16 -13 -28 -29 -28h-222v-100h222c15 0 29 -14 29 -31z" />
    <glyph glyph-name="brokenbar" unicode="&#xa6;" horiz-adv-x="212" 
d="M138 9c0 -17 -14 -31 -32 -31c-17 0 -31 14 -31 31v259c0 16 14 30 33 30c16 0 30 -14 30 -30v-259zM138 400c0 -17 -14 -31 -32 -31c-17 0 -31 14 -31 31v259c0 16 14 30 33 30c16 0 30 -14 30 -30v-259z" />
    <glyph glyph-name="section" unicode="&#xa7;" horiz-adv-x="472" 
d="M426 68c0 -94 -81 -149 -196 -149c-79 0 -143 27 -181 63c-7 6 -10 15 -10 24c0 19 15 35 34 35c7 0 15 -2 20 -6c34 -28 83 -52 137 -52c65 0 109 29 109 79c0 116 -295 46 -295 226c0 70 54 111 110 127c-68 22 -110 59 -110 124c0 76 69 138 184 138
c84 0 176 -36 176 -78c0 -18 -13 -34 -32 -34c-6 0 -12 2 -18 6c-34 27 -81 41 -123 41c-60 0 -101 -28 -101 -73c0 -105 296 -33 296 -221c0 -56 -31 -101 -90 -128c53 -21 90 -56 90 -122zM338 304c0 54 -53 74 -105 87c-80 -20 -103 -52 -103 -92c0 -55 65 -70 132 -86
c49 21 76 47 76 91z" />
    <glyph glyph-name="dieresis" unicode="&#xa8;" horiz-adv-x="278" 
d="M87 606c0 -29 -23 -53 -52 -53s-52 24 -52 53c0 28 23 52 52 52s52 -24 52 -52zM295 606c0 -29 -24 -53 -52 -53s-53 24 -53 53c0 28 25 52 53 52s52 -24 52 -52z" />
    <glyph glyph-name="copyright" unicode="&#xa9;" horiz-adv-x="778" 
d="M734 334c0 -190 -154 -345 -345 -345c-190 0 -345 155 -345 345c0 191 155 345 345 345c191 0 345 -154 345 -345zM702 334c0 172 -141 313 -313 313s-313 -141 -313 -313s141 -313 313 -313s313 141 313 313zM535 191c0 -5 -1 -10 -5 -13c-36 -36 -83 -56 -138 -56
c-115 0 -208 91 -208 213s93 212 208 212c55 0 103 -20 137 -57c4 -3 5 -7 5 -11c0 -10 -8 -20 -18 -20c-5 0 -9 2 -12 6c-29 31 -71 47 -112 47c-90 0 -169 -71 -169 -177c0 -103 79 -179 169 -179c41 0 84 19 111 48c3 4 8 6 13 6c9 0 19 -9 19 -19z" />
    <glyph glyph-name="ordfeminine" unicode="&#xaa;" horiz-adv-x="380" 
d="M322 353c0 -19 -14 -33 -33 -33c-18 -1 -34 12 -34 30v10c-22 -24 -56 -42 -105 -42c-55 0 -112 36 -112 104c0 69 57 102 112 102c49 0 83 -17 105 -40v51c0 38 -33 62 -76 62c-27 0 -56 -10 -80 -30c-5 -3 -10 -5 -16 -5c-12 0 -26 11 -26 25c0 5 2 11 7 16
c31 31 82 45 125 45c70 0 133 -29 133 -115v-180zM255 397v50c-16 22 -47 35 -79 35c-40 0 -71 -24 -71 -60c0 -38 31 -61 71 -61c32 0 63 13 79 36z" />
    <glyph glyph-name="guillemotleft" unicode="&#xab;" horiz-adv-x="463" 
d="M242 90c0 -16 -14 -34 -32 -34c-9 0 -18 4 -23 11l-114 127c-12 13 -18 31 -18 48s7 36 19 49l113 125c5 6 14 10 22 10c16 0 33 -13 33 -32c0 -7 -2 -14 -7 -20l-119 -131l119 -133c4 -6 7 -13 7 -20zM399 90c0 -16 -14 -34 -33 -34c-9 0 -17 4 -23 11l-113 127
c-13 14 -18 31 -18 49c0 17 5 35 18 49l112 124c6 6 14 10 23 10c16 0 33 -14 33 -32c0 -7 -2 -14 -7 -20l-118 -131l118 -133c5 -6 8 -13 8 -20z" />
    <glyph glyph-name="logicalnot" unicode="&#xac;" horiz-adv-x="507" 
d="M471 233c0 -17 -13 -31 -31 -31c-17 0 -31 14 -31 31v167h-357c-15 0 -29 13 -29 31c0 15 14 29 29 29h354c36 0 65 -29 65 -65v-162z" />
    <glyph glyph-name="uni00AD" unicode="&#xad;" horiz-adv-x="300" 
d="M234 281c21 0 38 -17 38 -38c0 -22 -16 -40 -38 -40h-168c-21 0 -38 17 -38 39c0 21 16 39 38 39h168z" />
    <glyph glyph-name="registered" unicode="&#xae;" horiz-adv-x="494" 
d="M459 465c0 -117 -94 -212 -212 -212c-117 0 -212 95 -212 212c0 118 95 212 212 212c118 0 212 -94 212 -212zM429 465c0 101 -82 182 -182 182c-101 0 -183 -81 -183 -182c0 -100 82 -183 183 -183c100 0 182 83 182 183zM343 512c0 -54 -48 -72 -62 -72l50 -75
c3 -3 4 -6 4 -9c0 -9 -9 -18 -18 -18c-6 0 -11 3 -14 8l-61 93h-43v-87c0 -8 -7 -15 -18 -15c-8 0 -15 7 -15 15v206c0 15 13 28 29 28h70c41 0 78 -29 78 -74zM309 512c0 27 -23 45 -44 45h-66v-88h66c21 0 44 18 44 43z" />
    <glyph glyph-name="macron" unicode="&#xaf;" horiz-adv-x="363" 
d="M363 598c0 -17 -12 -29 -26 -29h-311c-14 0 -26 12 -26 29c0 14 12 26 26 26h311c14 0 26 -12 26 -26z" />
    <glyph glyph-name="degree" unicode="&#xb0;" horiz-adv-x="296" 
d="M273 551c0 -70 -56 -125 -126 -125c-69 0 -125 55 -125 125c0 69 56 126 125 126c70 0 126 -57 126 -126zM220 551c0 39 -33 72 -73 72c-39 0 -70 -33 -70 -72s31 -71 70 -71c40 0 73 32 73 71z" />
    <glyph glyph-name="plusminus" unicode="&#xb1;" horiz-adv-x="500" 
d="M477 355c0 -18 -12 -30 -28 -30h-166v-186c0 -18 -14 -32 -33 -32c-18 0 -32 14 -32 32v186h-167c-15 0 -28 12 -28 30c0 16 13 29 28 29h167v179c0 17 14 31 34 31c17 0 31 -14 31 -31v-179h166c16 0 28 -13 28 -29zM477 30c0 -17 -12 -30 -28 -30h-398
c-15 0 -28 13 -28 30c0 16 13 29 28 29h398c16 0 28 -13 28 -29z" />
    <glyph glyph-name="twosuperior" unicode="&#xb2;" horiz-adv-x="390" 
d="M352 451c0 -17 -13 -30 -27 -30h-256c-14 0 -26 12 -26 28c0 14 7 24 18 31c147 105 213 166 213 222c0 48 -38 68 -80 68c-37 0 -71 -14 -96 -34c-6 -4 -12 -7 -18 -7c-15 0 -29 11 -29 29c0 7 2 14 8 20c33 33 90 49 137 49c78 0 148 -39 148 -120
c0 -77 -76 -145 -193 -229h174c14 0 27 -13 27 -27z" />
    <glyph glyph-name="threesuperior" unicode="&#xb3;" horiz-adv-x="390" 
d="M348 531c0 -69 -60 -117 -155 -117c-63 0 -149 31 -149 69c0 16 13 31 30 31c5 0 12 -2 17 -6c28 -24 65 -37 100 -37c55 0 88 24 88 63c0 48 -44 64 -100 64h-15c-12 0 -28 8 -28 27s15 28 28 28h14c55 0 94 15 94 59c0 38 -38 58 -85 58c-34 0 -66 -10 -93 -34
c-5 -4 -11 -5 -17 -5c-14 0 -27 12 -27 27c0 7 2 13 7 18c30 31 78 51 136 51c90 0 148 -42 148 -108c0 -55 -47 -85 -89 -92c39 -3 96 -34 96 -96z" />
    <glyph glyph-name="acute" unicode="&#xb4;" horiz-adv-x="233" 
d="M192 677c0 -8 -4 -15 -9 -20l-118 -101c-4 -4 -9 -6 -14 -6c-12 0 -24 10 -24 24c0 6 1 11 6 16l108 107c6 6 13 8 21 8c14 0 30 -12 30 -28z" />
    <glyph glyph-name="mu" unicode="&#xb5;" 
d="M558 28c0 -20 -12 -40 -41 -40c-50 0 -99 16 -115 86c-33 -48 -88 -86 -149 -86c-51 0 -79 20 -92 43v-178c0 -23 -20 -43 -45 -43c-24 0 -44 20 -44 43v593c0 23 20 43 46 43c23 0 43 -20 43 -43v-274c0 -76 41 -106 104 -106c55 0 106 33 133 70v310c0 23 20 43 46 43
c23 0 43 -20 43 -43v-324c0 -75 71 -38 71 -94z" />
    <glyph glyph-name="paragraph" unicode="&#xb6;" horiz-adv-x="449" 
d="M385 -83c0 -12 -11 -23 -26 -23c-13 0 -24 11 -24 23v700h-86v-700c0 -12 -11 -23 -26 -23c-13 0 -24 11 -24 23v406c-95 0 -172 77 -172 172s77 172 172 172h138c26 0 48 -21 48 -47v-703z" />
    <glyph glyph-name="periodcentered" unicode="&#xb7;" horiz-adv-x="237" 
d="M180 244c0 -33 -28 -61 -62 -61c-33 0 -61 28 -61 61c0 34 28 62 61 62c34 0 62 -28 62 -62z" />
    <glyph glyph-name="cedilla" unicode="&#xb8;" horiz-adv-x="209" 
d="M209 -111c0 -50 -48 -81 -106 -81c-41 0 -101 13 -101 42c0 12 10 22 22 22c4 0 6 0 9 -2c23 -14 47 -19 68 -19c31 0 58 14 58 39c0 20 -11 33 -34 33c-17 0 -30 -15 -46 -15c-14 0 -24 12 -24 24c0 3 1 6 2 8l20 54c4 14 17 23 31 23c10 0 18 -7 18 -17
c0 -2 0 -5 -1 -8l-19 -46c10 7 24 11 37 11c38 0 66 -27 66 -68z" />
    <glyph glyph-name="onesuperior" unicode="&#xb9;" horiz-adv-x="249" 
d="M189 449c0 -19 -15 -34 -36 -34c-19 0 -34 15 -34 34v282l-51 -53c-6 -5 -13 -8 -20 -8c-14 0 -29 13 -29 30c0 7 3 14 9 20l89 89c10 11 21 18 36 18c20 0 36 -15 36 -33v-345z" />
    <glyph glyph-name="ordmasculine" unicode="&#xba;" horiz-adv-x="405" 
d="M368 483c0 -90 -63 -165 -166 -165c-101 0 -165 75 -165 165s64 165 165 165c103 0 166 -75 166 -165zM299 483c0 62 -36 108 -97 108s-95 -46 -95 -108c0 -63 34 -110 95 -110s97 47 97 110z" />
    <glyph glyph-name="guillemotright" unicode="&#xbb;" horiz-adv-x="463" 
d="M251 243c0 -18 -6 -35 -18 -49l-113 -127c-6 -7 -14 -11 -23 -11c-16 0 -33 14 -33 33c0 7 2 15 8 21l118 133l-118 131c-5 6 -8 12 -8 19c0 17 14 33 33 33c9 0 17 -4 23 -10l113 -124c12 -14 18 -32 18 -49zM408 242c0 -17 -7 -34 -19 -48l-113 -127
c-6 -7 -14 -11 -23 -11c-16 0 -33 14 -33 33c0 7 2 15 8 21l118 133l-118 131c-5 6 -8 12 -8 19c0 16 13 33 32 33c9 0 17 -4 24 -10l113 -125c12 -14 19 -32 19 -49z" />
    <glyph glyph-name="onequarter" unicode="&#xbc;" horiz-adv-x="787" 
d="M759 126c0 -17 -12 -30 -26 -30h-36v-68c0 -19 -16 -34 -35 -34s-34 15 -34 34v68h-176c-14 0 -26 12 -26 29c0 11 6 20 13 30l144 219c15 22 34 32 60 32c30 0 54 -23 54 -50v-204h36c14 0 26 -12 26 -26zM588 650c0 -4 -2 -10 -4 -13l-405 -634c-5 -7 -13 -11 -21 -11
c-14 0 -27 12 -27 26c0 4 2 8 5 12l405 635c4 7 13 11 21 11c15 0 26 -14 26 -26zM189 295c0 -19 -15 -34 -36 -34c-19 0 -34 15 -34 34v282l-51 -53c-6 -5 -13 -8 -20 -8c-14 0 -29 13 -29 30c0 7 3 14 9 20l89 89c10 11 21 18 36 18c20 0 36 -15 36 -33v-345zM628 152v187
l-127 -187h127z" />
    <glyph glyph-name="onehalf" unicode="&#xbd;" horiz-adv-x="823" 
d="M784 30c0 -17 -13 -30 -27 -30h-256c-14 0 -26 12 -26 28c0 14 7 24 17 31c148 105 214 166 214 222c0 48 -39 68 -80 68c-37 0 -72 -14 -96 -34c-6 -4 -12 -7 -19 -7c-14 0 -28 11 -28 29c0 46 101 69 145 69c78 0 148 -39 148 -120c0 -77 -76 -145 -194 -229h175
c14 0 27 -13 27 -27zM588 650c0 -4 -2 -10 -4 -13l-405 -634c-5 -7 -13 -11 -21 -11c-14 0 -27 12 -27 26c0 4 2 8 5 12l405 635c4 7 13 11 21 11c15 0 26 -14 26 -26zM189 295c0 -19 -15 -34 -36 -34c-19 0 -34 15 -34 34v282l-51 -53c-6 -5 -13 -8 -20 -8
c-14 0 -29 13 -29 30c0 7 3 14 9 20l89 89c10 11 21 18 36 18c20 0 36 -15 36 -33v-345z" />
    <glyph glyph-name="threequarters" unicode="&#xbe;" horiz-adv-x="890" 
d="M863 126c0 -17 -13 -30 -27 -30h-36v-68c0 -19 -15 -34 -35 -34c-19 0 -34 15 -34 34v68h-176c-14 0 -26 12 -26 29c0 11 7 20 13 30l145 219c14 22 34 32 59 32c31 0 54 -23 54 -50v-204h36c14 0 27 -12 27 -26zM690 650c0 -4 -2 -10 -4 -13l-405 -634
c-5 -7 -13 -11 -21 -11c-14 0 -26 12 -26 26c0 4 1 8 4 12l405 635c5 7 13 11 21 11c15 0 26 -14 26 -26zM348 377c0 -69 -60 -117 -155 -117c-63 0 -149 31 -149 69c0 16 13 31 30 31c5 0 12 -2 17 -6c28 -24 65 -37 100 -37c55 0 88 24 88 63c0 48 -44 64 -100 64h-15
c-12 0 -28 8 -28 27s15 28 28 28h14c55 0 94 15 94 59c0 38 -38 58 -85 58c-34 0 -66 -10 -93 -34c-5 -4 -11 -5 -17 -5c-14 0 -27 12 -27 27c0 40 87 69 143 69c90 0 148 -42 148 -108c0 -55 -47 -85 -89 -92c39 -3 96 -34 96 -96zM731 152v187l-126 -187h126z" />
    <glyph glyph-name="questiondown" unicode="&#xbf;" horiz-adv-x="395" 
d="M298 431c0 -33 -28 -62 -62 -62s-62 29 -62 62s28 62 62 62s62 -29 62 -62zM433 -89c0 -67 -135 -106 -206 -106c-124 0 -199 67 -199 155c0 150 187 162 187 256c0 14 -11 27 -11 40c0 19 14 39 39 39c39 0 58 -57 58 -86c0 -125 -171 -137 -171 -233
c0 -45 35 -83 107 -83c70 0 116 60 153 60c22 0 43 -18 43 -42z" />
    <glyph glyph-name="Agrave" unicode="&#xc0;" horiz-adv-x="665" 
d="M637 47c0 -25 -21 -53 -53 -53c-21 0 -40 12 -48 32l-44 113h-319l-44 -113c-8 -20 -27 -32 -48 -32c-31 0 -53 26 -53 53c0 6 1 12 3 19l221 554c12 32 44 53 79 53c35 1 68 -20 81 -53l221 -554c3 -7 4 -13 4 -19zM464 226l-132 340l-131 -340h263zM365 741
c0 -12 -10 -24 -24 -24c-5 0 -10 2 -15 6l-117 101c-6 5 -9 12 -9 20c0 14 14 28 30 28c7 0 14 -2 20 -8l109 -107c4 -5 6 -10 6 -16z" />
    <glyph glyph-name="Aacute" unicode="&#xc1;" horiz-adv-x="665" 
d="M637 47c0 -25 -21 -53 -53 -53c-21 0 -40 12 -48 32l-44 113h-319l-44 -113c-8 -20 -27 -32 -48 -32c-31 0 -53 26 -53 53c0 6 1 12 3 19l221 554c12 32 44 53 79 53c35 1 68 -20 81 -53l221 -554c3 -7 4 -13 4 -19zM464 226l-132 340l-131 -340h263zM466 844
c0 -8 -4 -15 -9 -20l-118 -101c-4 -4 -9 -6 -14 -6c-12 0 -24 10 -24 24c0 6 1 11 6 16l108 107c6 6 13 8 21 8c14 0 30 -12 30 -28z" />
    <glyph glyph-name="Acircumflex" unicode="&#xc2;" horiz-adv-x="665" 
d="M637 47c0 -25 -21 -53 -53 -53c-21 0 -40 12 -48 32l-44 113h-319l-44 -113c-8 -20 -27 -32 -48 -32c-31 0 -53 26 -53 53c0 6 1 12 3 19l221 554c12 32 44 53 79 53c35 1 68 -20 81 -53l221 -554c3 -7 4 -13 4 -19zM464 226l-132 340l-131 -340h263zM455 740
c0 -10 -10 -24 -26 -24c-7 0 -13 3 -18 9l-78 99l-76 -98c-5 -6 -12 -9 -19 -9c-13 0 -26 10 -26 23c0 4 2 9 5 13l58 89c12 19 34 31 59 31c22 0 44 -12 56 -31l61 -89c3 -3 4 -8 4 -13z" />
    <glyph glyph-name="Atilde" unicode="&#xc3;" horiz-adv-x="665" 
d="M637 47c0 -25 -21 -53 -53 -53c-21 0 -40 12 -48 32l-44 113h-319l-44 -113c-8 -20 -27 -32 -48 -32c-31 0 -53 26 -53 53c0 6 1 12 3 19l221 554c12 32 44 53 79 53c35 1 68 -20 81 -53l221 -554c3 -7 4 -13 4 -19zM464 226l-132 340l-131 -340h263zM490 833
c-4 -58 -34 -112 -98 -112c-72 0 -76 86 -121 86c-22 0 -38 -18 -44 -57c-1 -14 -14 -25 -29 -25c-13 0 -22 11 -22 23c0 58 38 113 99 113c70 0 76 -85 121 -85c22 0 38 17 43 56c2 14 15 25 29 25s22 -12 22 -24z" />
    <glyph glyph-name="Adieresis" unicode="&#xc4;" horiz-adv-x="665" 
d="M637 47c0 -25 -21 -53 -53 -53c-21 0 -40 12 -48 32l-44 113h-319l-44 -113c-8 -20 -27 -32 -48 -32c-31 0 -53 26 -53 53c0 6 1 12 3 19l221 554c12 32 44 53 79 53c35 1 68 -20 81 -53l221 -554c3 -7 4 -13 4 -19zM464 226l-132 340l-131 -340h263zM281 773
c0 -29 -23 -53 -52 -53s-52 24 -52 53c0 28 23 52 52 52s52 -24 52 -52zM489 773c0 -29 -24 -53 -52 -53s-53 24 -53 53c0 28 25 52 53 52s52 -24 52 -52z" />
    <glyph glyph-name="Aring" unicode="&#xc5;" horiz-adv-x="665" 
d="M637 47c0 -25 -21 -53 -53 -53c-21 0 -40 12 -48 32l-44 113h-319l-44 -113c-8 -20 -27 -32 -48 -32c-31 0 -53 26 -53 53c0 6 1 12 3 19l221 554c12 32 44 53 79 53c35 1 68 -20 81 -53l221 -554c3 -7 4 -13 4 -19zM464 226l-132 340l-131 -340h263zM433 790
c0 -55 -45 -100 -100 -100s-100 45 -100 100c0 54 45 101 100 101s100 -47 100 -101zM388 790c0 31 -24 55 -55 55c-30 0 -55 -24 -55 -55c0 -30 25 -56 55 -56c31 0 55 26 55 56z" />
    <glyph glyph-name="AE" unicode="&#xc6;" horiz-adv-x="953" 
d="M908 45c0 -26 -19 -45 -43 -45h-344c-36 0 -66 29 -66 65v74h-255l-73 -121c-8 -15 -24 -22 -39 -22c-27 0 -50 22 -50 49c0 8 3 17 7 25l336 541c21 34 61 56 100 56h384c24 0 43 -19 43 -45c0 -23 -19 -43 -43 -43h-310v-195h303c24 0 43 -19 43 -45
c0 -23 -19 -43 -43 -43h-303v-208h310c24 0 43 -20 43 -43zM455 226v340l-207 -340h207z" />
    <glyph glyph-name="Ccedilla" unicode="&#xc7;" horiz-adv-x="679" 
d="M393 678c104 0 177 -42 228 -99c8 -9 12 -20 12 -32c0 -25 -21 -46 -47 -46c-12 0 -26 5 -34 16c-39 45 -101 73 -159 73c-140 0 -244 -107 -244 -257c0 -149 104 -257 244 -257c59 0 118 26 159 72c8 10 22 16 35 16c26 0 46 -22 46 -46c0 -12 -4 -23 -12 -31
c-50 -56 -118 -95 -216 -99l-16 -39c10 7 24 11 37 11c38 0 66 -27 66 -68c0 -50 -48 -81 -106 -81c-41 0 -102 13 -102 42c0 12 11 22 23 22c4 0 6 0 9 -2c23 -14 47 -19 68 -19c31 0 58 14 58 39c0 20 -11 33 -34 33c-17 0 -30 -15 -45 -15c-14 0 -25 11 -25 24
c0 3 0 6 1 8l17 47c-177 16 -310 151 -310 343c0 205 153 345 347 345z" />
    <glyph glyph-name="Egrave" unicode="&#xc8;" 
d="M527 45c0 -26 -19 -45 -43 -45h-344c-36 0 -65 29 -65 65v537c0 36 29 65 65 65h344c24 0 43 -19 43 -45c0 -23 -19 -43 -43 -43h-310v-195h303c24 0 43 -19 43 -45c0 -23 -19 -43 -43 -43h-303v-208h310c24 0 43 -20 43 -43zM329 741c0 -12 -10 -24 -24 -24
c-5 0 -10 2 -15 6l-117 101c-6 5 -9 12 -9 20c0 14 14 28 30 28c7 0 14 -2 20 -8l109 -107c4 -5 6 -10 6 -16z" />
    <glyph glyph-name="Eacute" unicode="&#xc9;" 
d="M527 45c0 -26 -19 -45 -43 -45h-344c-36 0 -65 29 -65 65v537c0 36 29 65 65 65h344c24 0 43 -19 43 -45c0 -23 -19 -43 -43 -43h-310v-195h303c24 0 43 -19 43 -45c0 -23 -19 -43 -43 -43h-303v-208h310c24 0 43 -20 43 -43zM431 844c0 -8 -4 -15 -9 -20l-118 -101
c-4 -4 -9 -6 -14 -6c-12 0 -24 10 -24 24c0 6 1 11 6 16l108 107c6 6 13 8 21 8c14 0 30 -12 30 -28z" />
    <glyph glyph-name="Ecircumflex" unicode="&#xca;" 
d="M527 45c0 -26 -19 -45 -43 -45h-344c-36 0 -65 29 -65 65v537c0 36 29 65 65 65h344c24 0 43 -19 43 -45c0 -23 -19 -43 -43 -43h-310v-195h303c24 0 43 -19 43 -45c0 -23 -19 -43 -43 -43h-303v-208h310c24 0 43 -20 43 -43zM418 740c0 -10 -10 -24 -26 -24
c-7 0 -13 3 -18 9l-78 99l-76 -98c-5 -6 -12 -9 -19 -9c-13 0 -26 10 -26 23c0 4 2 9 5 13l58 89c12 19 34 31 59 31c22 0 44 -12 56 -31l61 -89c3 -3 4 -8 4 -13z" />
    <glyph glyph-name="Edieresis" unicode="&#xcb;" 
d="M527 45c0 -26 -19 -45 -43 -45h-344c-36 0 -65 29 -65 65v537c0 36 29 65 65 65h344c24 0 43 -19 43 -45c0 -23 -19 -43 -43 -43h-310v-195h303c24 0 43 -19 43 -45c0 -23 -19 -43 -43 -43h-303v-208h310c24 0 43 -20 43 -43zM246 773c0 -29 -23 -53 -52 -53
s-52 24 -52 53c0 28 23 52 52 52s52 -24 52 -52zM454 773c0 -29 -24 -53 -52 -53s-53 24 -53 53c0 28 25 52 53 52s52 -24 52 -52z" />
    <glyph glyph-name="Igrave" unicode="&#xcc;" horiz-adv-x="248" 
d="M174 43c0 -27 -22 -49 -50 -49c-27 0 -49 22 -49 49v582c0 26 22 48 51 48c26 0 48 -22 48 -48v-582zM157 741c0 -12 -10 -24 -24 -24c-5 0 -10 2 -15 6l-117 101c-6 5 -9 12 -9 20c0 14 14 28 30 28c7 0 14 -2 20 -8l109 -107c4 -5 6 -10 6 -16z" />
    <glyph glyph-name="Iacute" unicode="&#xcd;" horiz-adv-x="248" 
d="M174 43c0 -27 -22 -49 -50 -49c-27 0 -49 22 -49 49v582c0 26 22 48 51 48c26 0 48 -22 48 -48v-582zM258 844c0 -8 -4 -15 -9 -20l-118 -101c-4 -4 -9 -6 -14 -6c-12 0 -24 10 -24 24c0 6 1 11 6 16l108 107c6 6 13 8 21 8c14 0 30 -12 30 -28z" />
    <glyph glyph-name="Icircumflex" unicode="&#xce;" horiz-adv-x="248" 
d="M174 43c0 -27 -22 -49 -50 -49c-27 0 -49 22 -49 49v582c0 26 22 48 51 48c26 0 48 -22 48 -48v-582zM247 740c0 -10 -10 -24 -26 -24c-7 0 -13 3 -18 9l-78 99l-76 -98c-5 -6 -12 -9 -19 -9c-13 0 -26 10 -26 23c0 4 2 9 5 13l58 89c12 19 34 31 59 31
c22 0 44 -12 56 -31l61 -89c3 -3 4 -8 4 -13z" />
    <glyph glyph-name="Idieresis" unicode="&#xcf;" horiz-adv-x="248" 
d="M174 43c0 -27 -22 -49 -50 -49c-27 0 -49 22 -49 49v582c0 26 22 48 51 48c26 0 48 -22 48 -48v-582zM74 773c0 -29 -23 -53 -52 -53s-52 24 -52 53c0 28 23 52 52 52s52 -24 52 -52zM282 773c0 -29 -24 -53 -52 -53s-53 24 -53 53c0 28 25 52 53 52s52 -24 52 -52z" />
    <glyph glyph-name="Eth" unicode="&#xd0;" horiz-adv-x="732" 
d="M685 333c0 -193 -138 -333 -346 -333h-172c-36 0 -65 29 -65 65v228h-63c-20 0 -36 16 -36 38c0 19 16 35 36 35h63v236c0 36 29 65 65 65h172c208 0 346 -142 346 -334zM583 333c0 137 -86 246 -244 246h-138v-213h135c19 0 34 -16 34 -37c0 -20 -15 -36 -34 -36h-135
v-205h138c154 0 244 110 244 245z" />
    <glyph glyph-name="Ntilde" unicode="&#xd1;" horiz-adv-x="714" 
d="M639 51c0 -29 -25 -57 -60 -57c-19 0 -38 9 -49 25l-356 487v-463c0 -27 -22 -49 -50 -49c-27 0 -49 22 -49 49v569c0 32 27 61 64 61c20 0 41 -10 53 -27l348 -473v452c0 26 22 48 51 48c26 0 48 -22 48 -48v-574zM512 833c-4 -58 -34 -112 -98 -112
c-72 0 -76 86 -121 86c-22 0 -38 -18 -44 -57c-1 -14 -14 -25 -29 -25c-13 0 -22 11 -22 23c0 58 38 113 99 113c70 0 76 -85 121 -85c22 0 38 17 43 56c2 14 15 25 29 25s22 -12 22 -24z" />
    <glyph glyph-name="Ograve" unicode="&#xd2;" horiz-adv-x="765" 
d="M718 333c0 -198 -138 -345 -336 -345c-199 0 -336 147 -336 345s137 345 336 345c198 0 336 -147 336 -345zM616 333c0 148 -92 257 -234 257c-143 0 -233 -109 -233 -257c0 -147 90 -257 233 -257c142 0 234 110 234 257zM415 741c0 -12 -10 -24 -24 -24
c-5 0 -10 2 -15 6l-117 101c-6 5 -9 12 -9 20c0 14 14 28 30 28c7 0 14 -2 20 -8l109 -107c4 -5 6 -10 6 -16z" />
    <glyph glyph-name="Oacute" unicode="&#xd3;" horiz-adv-x="765" 
d="M718 333c0 -198 -138 -345 -336 -345c-199 0 -336 147 -336 345s137 345 336 345c198 0 336 -147 336 -345zM616 333c0 148 -92 257 -234 257c-143 0 -233 -109 -233 -257c0 -147 90 -257 233 -257c142 0 234 110 234 257zM516 844c0 -8 -4 -15 -9 -20l-118 -101
c-4 -4 -9 -6 -14 -6c-12 0 -24 10 -24 24c0 6 1 11 6 16l108 107c6 6 13 8 21 8c14 0 30 -12 30 -28z" />
    <glyph glyph-name="Ocircumflex" unicode="&#xd4;" horiz-adv-x="765" 
d="M718 333c0 -198 -138 -345 -336 -345c-199 0 -336 147 -336 345s137 345 336 345c198 0 336 -147 336 -345zM616 333c0 148 -92 257 -234 257c-143 0 -233 -109 -233 -257c0 -147 90 -257 233 -257c142 0 234 110 234 257zM505 740c0 -10 -10 -24 -26 -24
c-7 0 -13 3 -18 9l-78 99l-76 -98c-5 -6 -12 -9 -19 -9c-13 0 -26 10 -26 23c0 4 2 9 5 13l58 89c12 19 34 31 59 31c22 0 44 -12 56 -31l61 -89c3 -3 4 -8 4 -13z" />
    <glyph glyph-name="Otilde" unicode="&#xd5;" horiz-adv-x="765" 
d="M718 333c0 -198 -138 -345 -336 -345c-199 0 -336 147 -336 345s137 345 336 345c198 0 336 -147 336 -345zM616 333c0 148 -92 257 -234 257c-143 0 -233 -109 -233 -257c0 -147 90 -257 233 -257c142 0 234 110 234 257zM539 833c-4 -58 -34 -112 -98 -112
c-72 0 -76 86 -121 86c-22 0 -38 -18 -44 -57c-1 -14 -14 -25 -29 -25c-13 0 -22 11 -22 23c0 58 38 113 99 113c70 0 76 -85 121 -85c22 0 38 17 43 56c2 14 15 25 29 25s22 -12 22 -24z" />
    <glyph glyph-name="Odieresis" unicode="&#xd6;" horiz-adv-x="765" 
d="M718 333c0 -198 -138 -345 -336 -345c-199 0 -336 147 -336 345s137 345 336 345c198 0 336 -147 336 -345zM616 333c0 148 -92 257 -234 257c-143 0 -233 -109 -233 -257c0 -147 90 -257 233 -257c142 0 234 110 234 257zM330 773c0 -29 -23 -53 -52 -53s-52 24 -52 53
c0 28 23 52 52 52s52 -24 52 -52zM538 773c0 -29 -24 -53 -52 -53s-53 24 -53 53c0 28 25 52 53 52s52 -24 52 -52z" />
    <glyph glyph-name="multiply" unicode="&#xd7;" horiz-adv-x="500" 
d="M428 186c0 -18 -17 -31 -30 -31c-8 0 -15 3 -20 9l-128 128l-127 -128c-6 -6 -13 -9 -20 -9c-16 0 -31 14 -31 31c0 7 3 14 9 20l127 128l-127 127c-6 6 -9 12 -9 20c0 15 12 31 30 31c7 0 15 -3 21 -8l127 -128l128 128c5 5 12 8 19 8c15 0 31 -13 31 -31
c0 -7 -3 -14 -8 -20l-127 -127l127 -128c5 -6 8 -13 8 -20z" />
    <glyph glyph-name="Oslash" unicode="&#xd8;" horiz-adv-x="765" 
d="M718 333c0 -198 -138 -345 -336 -345c-67 0 -126 16 -176 46l-21 -30c-5 -8 -14 -12 -23 -12c-17 0 -33 13 -33 30c0 6 2 12 6 17l21 31c-69 62 -110 155 -110 263c0 198 137 345 336 345c63 0 120 -15 169 -42l18 26c5 8 14 12 24 12c16 0 32 -12 32 -30
c0 -5 -2 -12 -5 -16l-18 -27c73 -62 116 -157 116 -268zM616 333c0 77 -25 144 -70 189l-287 -413c34 -22 76 -33 123 -33c142 0 234 110 234 257zM497 561c-32 18 -71 29 -115 29c-143 0 -233 -109 -233 -257c0 -74 22 -139 63 -184z" />
    <glyph glyph-name="Ugrave" unicode="&#xd9;" horiz-adv-x="709" 
d="M634 262c0 -166 -93 -274 -279 -274c-187 0 -280 109 -280 273v364c0 26 22 48 51 48c26 0 48 -22 48 -48v-361c0 -115 63 -188 181 -188c117 0 180 73 180 188v361c0 26 21 48 51 48c27 0 48 -22 48 -48v-363zM387 741c0 -12 -10 -24 -24 -24c-5 0 -10 2 -15 6l-117 101
c-6 5 -9 12 -9 20c0 14 14 28 30 28c7 0 14 -2 20 -8l109 -107c4 -5 6 -10 6 -16z" />
    <glyph glyph-name="Uacute" unicode="&#xda;" horiz-adv-x="709" 
d="M634 262c0 -166 -93 -274 -279 -274c-187 0 -280 109 -280 273v364c0 26 22 48 51 48c26 0 48 -22 48 -48v-361c0 -115 63 -188 181 -188c117 0 180 73 180 188v361c0 26 21 48 51 48c27 0 48 -22 48 -48v-363zM488 844c0 -8 -4 -15 -9 -20l-118 -101c-4 -4 -9 -6 -14 -6
c-12 0 -24 10 -24 24c0 6 1 11 6 16l108 107c6 6 13 8 21 8c14 0 30 -12 30 -28z" />
    <glyph glyph-name="Ucircumflex" unicode="&#xdb;" horiz-adv-x="709" 
d="M634 262c0 -166 -93 -274 -279 -274c-187 0 -280 109 -280 273v364c0 26 22 48 51 48c26 0 48 -22 48 -48v-361c0 -115 63 -188 181 -188c117 0 180 73 180 188v361c0 26 21 48 51 48c27 0 48 -22 48 -48v-363zM478 740c0 -10 -10 -24 -26 -24c-7 0 -13 3 -18 9l-78 99
l-76 -98c-5 -6 -12 -9 -19 -9c-13 0 -26 10 -26 23c0 4 2 9 5 13l58 89c12 19 34 31 59 31c22 0 44 -12 56 -31l61 -89c3 -3 4 -8 4 -13z" />
    <glyph glyph-name="Udieresis" unicode="&#xdc;" horiz-adv-x="709" 
d="M634 262c0 -166 -93 -274 -279 -274c-187 0 -280 109 -280 273v364c0 26 22 48 51 48c26 0 48 -22 48 -48v-361c0 -115 63 -188 181 -188c117 0 180 73 180 188v361c0 26 21 48 51 48c27 0 48 -22 48 -48v-363zM304 773c0 -29 -23 -53 -52 -53s-52 24 -52 53
c0 28 23 52 52 52s52 -24 52 -52zM512 773c0 -29 -24 -53 -52 -53s-53 24 -53 53c0 28 25 52 53 52s52 -24 52 -52z" />
    <glyph glyph-name="Yacute" unicode="&#xdd;" horiz-adv-x="631" 
d="M588 626c0 -8 -2 -17 -7 -25l-216 -321v-237c0 -27 -21 -49 -50 -49c-27 0 -48 22 -48 49v237l-217 322c-5 7 -8 15 -8 24c0 23 18 47 47 47c15 0 32 -8 41 -21l186 -284l185 283c8 13 24 21 39 21c27 0 48 -22 48 -46zM449 844c0 -8 -4 -15 -9 -20l-118 -101
c-4 -4 -9 -6 -14 -6c-12 0 -24 10 -24 24c0 6 1 11 6 16l108 107c6 6 13 8 21 8c14 0 30 -12 30 -28z" />
    <glyph glyph-name="Thorn" unicode="&#xde;" horiz-adv-x="597" 
d="M568 345c0 -111 -78 -203 -213 -203h-181v-95c0 -27 -22 -49 -50 -49c-27 0 -49 22 -49 49v574c0 26 22 48 51 48c26 0 48 -22 48 -48v-70h181c137 0 213 -95 213 -206zM466 345c0 70 -51 118 -124 118h-168v-234h168c73 0 124 47 124 116z" />
    <glyph glyph-name="germandbls" unicode="&#xdf;" horiz-adv-x="609" 
d="M591 137c0 -81 -66 -149 -190 -149c-78 0 -135 25 -170 62c-7 7 -11 16 -11 26c0 20 15 37 34 37c8 0 15 -3 22 -8c31 -27 75 -46 125 -46c70 0 104 37 104 76c0 106 -280 41 -280 218c0 107 140 123 140 181c0 42 -49 64 -93 64c-61 0 -111 -40 -111 -105v-455
c0 -24 -20 -44 -45 -44c-24 0 -44 20 -44 44v455c0 101 76 184 201 184c96 0 183 -50 183 -131c0 -111 -145 -115 -145 -191c0 -96 280 -28 280 -218z" />
    <glyph glyph-name="agrave" unicode="&#xe0;" horiz-adv-x="531" 
d="M460 38c0 -24 -20 -44 -45 -44h-3c-18 0 -41 15 -41 44v16c-39 -43 -94 -66 -159 -66c-80 0 -168 54 -168 160c0 109 88 158 168 158c66 0 121 -21 159 -64v81c0 61 -50 97 -118 97c-45 0 -85 -14 -121 -42c-7 -5 -15 -8 -22 -8c-18 0 -37 14 -37 35c0 8 3 16 9 23
c46 46 119 67 184 67c104 0 194 -45 194 -168v-289zM371 106v82c-27 37 -75 56 -125 56c-65 0 -112 -40 -112 -98c0 -56 47 -95 112 -95c50 0 98 18 125 55zM298 574c0 -12 -10 -24 -24 -24c-5 0 -10 2 -15 6l-117 101c-6 5 -9 12 -9 20c0 14 14 28 30 28c7 0 14 -2 20 -8
l109 -107c4 -5 6 -10 6 -16z" />
    <glyph glyph-name="aacute" unicode="&#xe1;" horiz-adv-x="531" 
d="M460 38c0 -24 -20 -44 -45 -44h-3c-18 0 -41 15 -41 44v16c-39 -43 -94 -66 -159 -66c-80 0 -168 54 -168 160c0 109 88 158 168 158c66 0 121 -21 159 -64v81c0 61 -50 97 -118 97c-45 0 -85 -14 -121 -42c-7 -5 -15 -8 -22 -8c-18 0 -37 14 -37 35c0 8 3 16 9 23
c46 46 119 67 184 67c104 0 194 -45 194 -168v-289zM371 106v82c-27 37 -75 56 -125 56c-65 0 -112 -40 -112 -98c0 -56 47 -95 112 -95c50 0 98 18 125 55zM399 677c0 -8 -4 -15 -9 -20l-118 -101c-4 -4 -9 -6 -14 -6c-12 0 -24 10 -24 24c0 6 1 11 6 16l108 107
c6 6 13 8 21 8c14 0 30 -12 30 -28z" />
    <glyph glyph-name="acircumflex" unicode="&#xe2;" horiz-adv-x="531" 
d="M460 38c0 -24 -20 -44 -45 -44h-3c-18 0 -41 15 -41 44v16c-39 -43 -94 -66 -159 -66c-80 0 -168 54 -168 160c0 109 88 158 168 158c66 0 121 -21 159 -64v81c0 61 -50 97 -118 97c-45 0 -85 -14 -121 -42c-7 -5 -15 -8 -22 -8c-18 0 -37 14 -37 35c0 8 3 16 9 23
c46 46 119 67 184 67c104 0 194 -45 194 -168v-289zM371 106v82c-27 37 -75 56 -125 56c-65 0 -112 -40 -112 -98c0 -56 47 -95 112 -95c50 0 98 18 125 55zM388 573c0 -10 -10 -24 -26 -24c-7 0 -13 3 -18 9l-78 99l-76 -98c-5 -6 -12 -9 -19 -9c-13 0 -26 10 -26 23
c0 4 2 9 5 13l58 89c12 19 34 31 59 31c22 0 44 -12 56 -31l61 -89c3 -3 4 -8 4 -13z" />
    <glyph glyph-name="atilde" unicode="&#xe3;" horiz-adv-x="531" 
d="M460 38c0 -24 -20 -44 -45 -44h-3c-18 0 -41 15 -41 44v16c-39 -43 -94 -66 -159 -66c-80 0 -168 54 -168 160c0 109 88 158 168 158c66 0 121 -21 159 -64v81c0 61 -50 97 -118 97c-45 0 -85 -14 -121 -42c-7 -5 -15 -8 -22 -8c-18 0 -37 14 -37 35c0 8 3 16 9 23
c46 46 119 67 184 67c104 0 194 -45 194 -168v-289zM371 106v82c-27 37 -75 56 -125 56c-65 0 -112 -40 -112 -98c0 -56 47 -95 112 -95c50 0 98 18 125 55zM423 666c-4 -58 -34 -112 -98 -112c-72 0 -76 86 -121 86c-22 0 -38 -18 -44 -57c-1 -14 -14 -25 -29 -25
c-13 0 -22 11 -22 23c0 58 38 113 99 113c70 0 76 -85 121 -85c22 0 38 17 43 56c2 14 15 25 29 25s22 -12 22 -24z" />
    <glyph glyph-name="adieresis" unicode="&#xe4;" horiz-adv-x="531" 
d="M460 38c0 -24 -20 -44 -45 -44h-3c-18 0 -41 15 -41 44v16c-39 -43 -94 -66 -159 -66c-80 0 -168 54 -168 160c0 109 88 158 168 158c66 0 121 -21 159 -64v81c0 61 -50 97 -118 97c-45 0 -85 -14 -121 -42c-7 -5 -15 -8 -22 -8c-18 0 -37 14 -37 35c0 8 3 16 9 23
c46 46 119 67 184 67c104 0 194 -45 194 -168v-289zM371 106v82c-27 37 -75 56 -125 56c-65 0 -112 -40 -112 -98c0 -56 47 -95 112 -95c50 0 98 18 125 55zM214 606c0 -29 -23 -53 -52 -53s-52 24 -52 53c0 28 23 52 52 52s52 -24 52 -52zM422 606c0 -29 -24 -53 -52 -53
s-53 24 -53 53c0 28 25 52 53 52s52 -24 52 -52z" />
    <glyph glyph-name="aring" unicode="&#xe5;" horiz-adv-x="531" 
d="M460 38c0 -24 -20 -44 -45 -44h-3c-18 0 -41 15 -41 44v16c-39 -43 -94 -66 -159 -66c-80 0 -168 54 -168 160c0 109 88 158 168 158c66 0 121 -21 159 -64v81c0 61 -50 97 -118 97c-45 0 -85 -14 -121 -42c-7 -5 -15 -8 -22 -8c-18 0 -37 14 -37 35c0 8 3 16 9 23
c46 46 119 67 184 67c104 0 194 -45 194 -168v-289zM371 106v82c-27 37 -75 56 -125 56c-65 0 -112 -40 -112 -98c0 -56 47 -95 112 -95c50 0 98 18 125 55zM367 640c0 -55 -45 -100 -100 -100s-100 45 -100 100c0 54 45 101 100 101s100 -47 100 -101zM322 640
c0 31 -24 55 -55 55c-30 0 -55 -24 -55 -55c0 -30 25 -56 55 -56c31 0 55 26 55 56z" />
    <glyph glyph-name="ae" unicode="&#xe6;" horiz-adv-x="884" 
d="M841 259c0 -25 -20 -46 -46 -46h-313c8 -83 62 -150 153 -150c38 0 77 12 108 35c7 4 15 6 23 6c19 0 37 -14 37 -35c0 -8 -3 -16 -9 -22c-42 -41 -109 -59 -164 -59c-83 0 -150 33 -191 108c-35 -64 -111 -108 -199 -108c-105 0 -196 54 -196 159s83 159 177 159
c70 0 131 -20 172 -62v80c0 60 -52 96 -128 96c-49 0 -93 -13 -133 -43c-6 -5 -14 -7 -21 -7c-17 0 -37 14 -37 35c0 9 3 17 9 23c47 46 124 67 193 67c80 0 150 -31 170 -99c34 55 89 99 178 99c109 0 184 -69 209 -180c4 -17 8 -36 8 -56zM755 276c-1 65 -40 147 -137 147
c-89 0 -133 -80 -136 -147h273zM393 177v10c-30 36 -82 57 -136 57c-72 0 -123 -36 -123 -92s51 -90 122 -90c79 0 137 58 137 115z" />
    <glyph glyph-name="ccedilla" unicode="&#xe7;" horiz-adv-x="496" 
d="M457 74c0 -8 -2 -16 -8 -22c-31 -37 -78 -58 -141 -63l-16 -41c10 6 24 10 37 10c38 0 66 -26 66 -68c0 -50 -48 -81 -106 -81c-41 0 -102 14 -102 42c0 13 11 23 23 23c4 0 6 -1 9 -3c23 -14 47 -19 68 -19c30 0 58 14 58 40c0 19 -11 32 -35 32c-16 0 -29 -15 -44 -15
c-14 0 -25 12 -25 25c0 2 0 5 1 8l18 48c-130 13 -217 115 -217 252c0 144 100 253 245 253c74 0 128 -26 161 -64c5 -6 7 -13 7 -21c0 -22 -19 -40 -41 -40c-10 0 -20 4 -28 11c-27 24 -59 35 -94 35c-96 0 -158 -73 -158 -174s62 -175 158 -175c36 0 67 12 94 36
c8 6 18 9 28 9c21 0 42 -15 42 -38z" />
    <glyph glyph-name="egrave" unicode="&#xe8;" horiz-adv-x="560" 
d="M518 258c0 -24 -21 -45 -46 -45h-336c7 -83 67 -153 165 -153c41 0 85 14 120 40c6 3 13 5 20 5c16 0 36 -14 36 -36c0 -54 -124 -81 -185 -81c-144 0 -249 102 -249 254c0 140 101 253 241 253c117 0 197 -73 225 -181c4 -16 9 -37 9 -56zM432 276
c-2 65 -46 147 -149 147c-96 0 -143 -80 -147 -147h296zM316 574c0 -12 -10 -24 -24 -24c-5 0 -10 2 -15 6l-117 101c-6 5 -9 12 -9 20c0 14 14 28 30 28c7 0 14 -2 20 -8l109 -107c4 -5 6 -10 6 -16z" />
    <glyph glyph-name="eacute" unicode="&#xe9;" horiz-adv-x="560" 
d="M518 258c0 -24 -21 -45 -46 -45h-336c7 -83 67 -153 165 -153c41 0 85 14 120 40c6 3 13 5 20 5c16 0 36 -14 36 -36c0 -54 -124 -81 -185 -81c-144 0 -249 102 -249 254c0 140 101 253 241 253c117 0 197 -73 225 -181c4 -16 9 -37 9 -56zM432 276
c-2 65 -46 147 -149 147c-96 0 -143 -80 -147 -147h296zM418 677c0 -8 -4 -15 -9 -20l-118 -101c-4 -4 -9 -6 -14 -6c-12 0 -24 10 -24 24c0 6 1 11 6 16l108 107c6 6 13 8 21 8c14 0 30 -12 30 -28z" />
    <glyph glyph-name="ecircumflex" unicode="&#xea;" horiz-adv-x="560" 
d="M518 258c0 -24 -21 -45 -46 -45h-336c7 -83 67 -153 165 -153c41 0 85 14 120 40c6 3 13 5 20 5c16 0 36 -14 36 -36c0 -54 -124 -81 -185 -81c-144 0 -249 102 -249 254c0 140 101 253 241 253c117 0 197 -73 225 -181c4 -16 9 -37 9 -56zM432 276
c-2 65 -46 147 -149 147c-96 0 -143 -80 -147 -147h296zM406 573c0 -10 -10 -24 -26 -24c-7 0 -13 3 -18 9l-78 99l-76 -98c-5 -6 -12 -9 -19 -9c-13 0 -26 10 -26 23c0 4 2 9 5 13l58 89c12 19 34 31 59 31c22 0 44 -12 56 -31l61 -89c3 -3 4 -8 4 -13z" />
    <glyph glyph-name="edieresis" unicode="&#xeb;" horiz-adv-x="560" 
d="M518 258c0 -24 -21 -45 -46 -45h-336c7 -83 67 -153 165 -153c41 0 85 14 120 40c6 3 13 5 20 5c16 0 36 -14 36 -36c0 -54 -124 -81 -185 -81c-144 0 -249 102 -249 254c0 140 101 253 241 253c117 0 197 -73 225 -181c4 -16 9 -37 9 -56zM432 276
c-2 65 -46 147 -149 147c-96 0 -143 -80 -147 -147h296zM233 606c0 -29 -23 -53 -52 -53s-52 24 -52 53c0 28 23 52 52 52s52 -24 52 -52zM441 606c0 -29 -24 -53 -52 -53s-53 24 -53 53c0 28 25 52 53 52s52 -24 52 -52z" />
    <glyph glyph-name="igrave" unicode="&#xec;" horiz-adv-x="233" 
d="M149 574c0 -12 -10 -24 -24 -24c-5 0 -10 2 -15 6l-117 101c-6 5 -9 12 -9 20c0 14 14 28 30 28c7 0 14 -2 20 -8l109 -107c4 -5 6 -10 6 -16zM161 38c0 -24 -20 -44 -45 -44c-24 0 -44 20 -44 44v408c0 23 20 43 46 43c23 0 43 -20 43 -43v-408z" />
    <glyph glyph-name="iacute" unicode="&#xed;" horiz-adv-x="233" 
d="M250 677c0 -8 -4 -15 -9 -20l-118 -101c-4 -4 -9 -6 -14 -6c-12 0 -24 10 -24 24c0 6 1 11 6 16l108 107c6 6 13 8 21 8c14 0 30 -12 30 -28zM161 38c0 -24 -20 -44 -45 -44c-24 0 -44 20 -44 44v408c0 23 20 43 46 43c23 0 43 -20 43 -43v-408z" />
    <glyph glyph-name="icircumflex" unicode="&#xee;" horiz-adv-x="233" 
d="M161 38c0 -24 -20 -44 -45 -44c-24 0 -44 20 -44 44v408c0 23 20 43 46 43c23 0 43 -20 43 -43v-408zM238 573c0 -10 -10 -24 -26 -24c-7 0 -13 3 -18 9l-78 99l-76 -98c-5 -6 -12 -9 -19 -9c-13 0 -26 10 -26 23c0 4 2 9 5 13l58 89c12 19 34 31 59 31
c22 0 44 -12 56 -31l61 -89c3 -3 4 -8 4 -13z" />
    <glyph glyph-name="idieresis" unicode="&#xef;" horiz-adv-x="233" 
d="M66 606c0 -29 -23 -53 -52 -53s-52 24 -52 53c0 28 23 52 52 52s52 -24 52 -52zM274 606c0 -29 -24 -53 -52 -53s-53 24 -53 53c0 28 25 52 53 52s52 -24 52 -52zM161 38c0 -24 -20 -44 -45 -44c-24 0 -44 20 -44 44v408c0 23 20 43 46 43c23 0 43 -20 43 -43v-408z" />
    <glyph glyph-name="eth" unicode="&#xf0;" 
d="M530 248c0 -151 -93 -260 -244 -260c-146 0 -243 104 -243 243c0 140 91 243 218 243c64 0 116 -27 159 -90c-34 64 -92 120 -159 169l-123 -54c-4 -2 -7 -3 -10 -3c-12 0 -25 11 -25 27c0 9 6 18 15 23l94 41c-23 13 -56 32 -56 59c0 25 22 44 45 44
c26 0 75 -41 103 -63l87 38c2 1 6 2 9 2c11 0 24 -9 24 -24c0 -10 -5 -19 -14 -23l-62 -28c107 -92 182 -205 182 -344zM437 231c0 87 -54 164 -151 164c-96 0 -151 -77 -151 -164s55 -164 151 -164c97 0 151 77 151 164z" />
    <glyph glyph-name="ntilde" unicode="&#xf1;" horiz-adv-x="559" 
d="M487 38c0 -24 -20 -44 -45 -44c-24 0 -44 20 -44 44v272c0 80 -41 106 -103 106c-57 0 -108 -34 -134 -71v-307c0 -24 -20 -44 -45 -44c-24 0 -44 20 -44 44v408c0 23 20 43 46 43c23 0 43 -20 43 -43v-31c33 39 97 80 171 80c102 0 155 -53 155 -155v-302zM437 666
c-4 -58 -34 -112 -98 -112c-72 0 -76 86 -121 86c-22 0 -38 -18 -44 -57c-1 -14 -14 -25 -29 -25c-13 0 -22 11 -22 23c0 58 38 113 99 113c70 0 76 -85 121 -85c22 0 38 17 43 56c2 14 15 25 29 25s22 -12 22 -24z" />
    <glyph glyph-name="ograve" unicode="&#xf2;" 
d="M530 242c0 -139 -93 -254 -244 -254c-150 0 -243 115 -243 254s93 253 243 253c151 0 244 -114 244 -253zM437 242c0 92 -54 174 -151 174c-96 0 -151 -82 -151 -174c0 -93 55 -175 151 -175c97 0 151 82 151 175zM318 574c0 -12 -10 -24 -24 -24c-5 0 -10 2 -15 6
l-117 101c-6 5 -9 12 -9 20c0 14 14 28 30 28c7 0 14 -2 20 -8l109 -107c4 -5 6 -10 6 -16z" />
    <glyph glyph-name="oacute" unicode="&#xf3;" 
d="M530 242c0 -139 -93 -254 -244 -254c-150 0 -243 115 -243 254s93 253 243 253c151 0 244 -114 244 -253zM437 242c0 92 -54 174 -151 174c-96 0 -151 -82 -151 -174c0 -93 55 -175 151 -175c97 0 151 82 151 175zM420 677c0 -8 -4 -15 -9 -20l-118 -101
c-4 -4 -9 -6 -14 -6c-12 0 -24 10 -24 24c0 6 1 11 6 16l108 107c6 6 13 8 21 8c14 0 30 -12 30 -28z" />
    <glyph glyph-name="ocircumflex" unicode="&#xf4;" 
d="M530 242c0 -139 -93 -254 -244 -254c-150 0 -243 115 -243 254s93 253 243 253c151 0 244 -114 244 -253zM437 242c0 92 -54 174 -151 174c-96 0 -151 -82 -151 -174c0 -93 55 -175 151 -175c97 0 151 82 151 175zM407 573c0 -10 -10 -24 -26 -24c-7 0 -13 3 -18 9
l-78 99l-76 -98c-5 -6 -12 -9 -19 -9c-13 0 -26 10 -26 23c0 4 2 9 5 13l58 89c12 19 34 31 59 31c22 0 44 -12 56 -31l61 -89c3 -3 4 -8 4 -13z" />
    <glyph glyph-name="otilde" unicode="&#xf5;" 
d="M530 242c0 -139 -93 -254 -244 -254c-150 0 -243 115 -243 254s93 253 243 253c151 0 244 -114 244 -253zM437 242c0 92 -54 174 -151 174c-96 0 -151 -82 -151 -174c0 -93 55 -175 151 -175c97 0 151 82 151 175zM443 666c-4 -58 -34 -112 -98 -112
c-72 0 -76 86 -121 86c-22 0 -38 -18 -44 -57c-1 -14 -14 -25 -29 -25c-13 0 -22 11 -22 23c0 58 38 113 99 113c70 0 76 -85 121 -85c22 0 38 17 43 56c2 14 15 25 29 25s22 -12 22 -24z" />
    <glyph glyph-name="odieresis" unicode="&#xf6;" 
d="M530 242c0 -139 -93 -254 -244 -254c-150 0 -243 115 -243 254s93 253 243 253c151 0 244 -114 244 -253zM437 242c0 92 -54 174 -151 174c-96 0 -151 -82 -151 -174c0 -93 55 -175 151 -175c97 0 151 82 151 175zM234 606c0 -29 -23 -53 -52 -53s-52 24 -52 53
c0 28 23 52 52 52s52 -24 52 -52zM442 606c0 -29 -24 -53 -52 -53s-53 24 -53 53c0 28 25 52 53 52s52 -24 52 -52z" />
    <glyph glyph-name="divide" unicode="&#xf7;" horiz-adv-x="511" 
d="M255 573c28 0 51 -22 51 -50c0 -27 -23 -50 -51 -50c-27 0 -49 23 -49 50c0 28 22 50 49 50zM484 338c0 -18 -13 -30 -29 -30h-399c-16 0 -29 12 -29 30c0 16 13 29 29 29h399c16 0 29 -13 29 -29zM306 147c0 -27 -23 -50 -51 -50c-27 0 -49 23 -49 50c0 28 22 51 49 51
c28 0 51 -23 51 -51z" />
    <glyph glyph-name="oslash" unicode="&#xf8;" 
d="M143 32l-28 -35c-4 -5 -9 -8 -16 -8c-12 0 -24 11 -24 24c0 5 1 10 5 14l28 36c-42 46 -65 109 -65 179c0 139 93 253 243 253c54 0 101 -15 138 -40l25 30c3 6 10 8 16 8c12 0 25 -10 25 -23c0 -6 -2 -10 -5 -15l-25 -31c45 -46 70 -110 70 -182
c0 -139 -93 -254 -244 -254c-56 0 -104 15 -143 44zM197 97c23 -19 53 -30 89 -30c97 0 151 82 151 175c0 42 -12 82 -34 113zM286 416c-96 0 -151 -82 -151 -174c0 -40 11 -79 30 -109l205 256c-22 17 -50 27 -84 27z" />
    <glyph glyph-name="ugrave" unicode="&#xf9;" horiz-adv-x="559" 
d="M487 38c0 -24 -20 -44 -45 -44c-24 0 -44 20 -44 44v28c-36 -41 -98 -78 -172 -78c-102 0 -154 51 -154 153v305c0 23 20 43 46 43c23 0 43 -20 43 -43v-274c0 -80 41 -105 103 -105c56 0 107 32 134 69v310c0 23 20 43 46 43c23 0 43 -20 43 -43v-408zM311 574
c0 -12 -10 -24 -24 -24c-5 0 -10 2 -15 6l-117 101c-6 5 -9 12 -9 20c0 14 14 28 30 28c7 0 14 -2 20 -8l109 -107c4 -5 6 -10 6 -16z" />
    <glyph glyph-name="uacute" unicode="&#xfa;" horiz-adv-x="559" 
d="M487 38c0 -24 -20 -44 -45 -44c-24 0 -44 20 -44 44v28c-36 -41 -98 -78 -172 -78c-102 0 -154 51 -154 153v305c0 23 20 43 46 43c23 0 43 -20 43 -43v-274c0 -80 41 -105 103 -105c56 0 107 32 134 69v310c0 23 20 43 46 43c23 0 43 -20 43 -43v-408zM412 677
c0 -8 -4 -15 -9 -20l-118 -101c-4 -4 -9 -6 -14 -6c-12 0 -24 10 -24 24c0 6 1 11 6 16l108 107c6 6 13 8 21 8c14 0 30 -12 30 -28z" />
    <glyph glyph-name="ucircumflex" unicode="&#xfb;" horiz-adv-x="559" 
d="M487 38c0 -24 -20 -44 -45 -44c-24 0 -44 20 -44 44v28c-36 -41 -98 -78 -172 -78c-102 0 -154 51 -154 153v305c0 23 20 43 46 43c23 0 43 -20 43 -43v-274c0 -80 41 -105 103 -105c56 0 107 32 134 69v310c0 23 20 43 46 43c23 0 43 -20 43 -43v-408zM400 573
c0 -10 -10 -24 -26 -24c-7 0 -13 3 -18 9l-78 99l-76 -98c-5 -6 -12 -9 -19 -9c-13 0 -26 10 -26 23c0 4 2 9 5 13l58 89c12 19 34 31 59 31c22 0 44 -12 56 -31l61 -89c3 -3 4 -8 4 -13z" />
    <glyph glyph-name="udieresis" unicode="&#xfc;" horiz-adv-x="559" 
d="M487 38c0 -24 -20 -44 -45 -44c-24 0 -44 20 -44 44v28c-36 -41 -98 -78 -172 -78c-102 0 -154 51 -154 153v305c0 23 20 43 46 43c23 0 43 -20 43 -43v-274c0 -80 41 -105 103 -105c56 0 107 32 134 69v310c0 23 20 43 46 43c23 0 43 -20 43 -43v-408zM228 606
c0 -29 -23 -53 -52 -53s-52 24 -52 53c0 28 23 52 52 52s52 -24 52 -52zM436 606c0 -29 -24 -53 -52 -53s-53 24 -53 53c0 28 25 52 53 52s52 -24 52 -52z" />
    <glyph glyph-name="yacute" unicode="&#xfd;" horiz-adv-x="496" 
d="M477 445c0 -5 -1 -11 -3 -15l-216 -523c-31 -73 -84 -103 -149 -103c-31 0 -64 7 -64 40c0 23 18 40 40 40c8 0 16 -1 23 0c27 0 49 11 65 46l28 64l-179 436c-2 5 -3 10 -3 15c0 22 18 44 45 44c17 0 34 -10 41 -28l143 -358l142 358c7 17 24 28 42 28
c26 0 45 -21 45 -44zM381 677c0 -8 -4 -15 -9 -20l-118 -101c-4 -4 -9 -6 -14 -6c-12 0 -24 10 -24 24c0 6 1 11 6 16l108 107c6 6 13 8 21 8c14 0 30 -12 30 -28z" />
    <glyph glyph-name="thorn" unicode="&#xfe;" horiz-adv-x="575" 
d="M535 242c0 -157 -89 -254 -215 -254c-64 0 -120 29 -159 82v-213c0 -23 -20 -43 -45 -43c-24 0 -44 20 -44 43v769c0 23 20 43 46 43c23 0 43 -20 43 -43v-212c35 48 93 81 159 81c126 0 215 -95 215 -253zM441 242c0 101 -55 174 -146 174c-54 0 -110 -32 -134 -71v-206
c24 -39 80 -72 134 -72c91 0 146 74 146 175z" />
    <glyph glyph-name="ydieresis" unicode="&#xff;" horiz-adv-x="496" 
d="M477 445c0 -5 -1 -11 -3 -15l-216 -523c-31 -73 -84 -103 -149 -103c-31 0 -64 7 -64 40c0 23 18 40 40 40c8 0 16 -1 23 0c27 0 49 11 65 46l28 64l-179 436c-2 5 -3 10 -3 15c0 22 18 44 45 44c17 0 34 -10 41 -28l143 -358l142 358c7 17 24 28 42 28
c26 0 45 -21 45 -44zM196 606c0 -29 -23 -53 -52 -53s-52 24 -52 53c0 28 23 52 52 52s52 -24 52 -52zM404 606c0 -29 -24 -53 -52 -53s-53 24 -53 53c0 28 25 52 53 52s52 -24 52 -52z" />
    <glyph glyph-name="Amacron" unicode="&#x100;" horiz-adv-x="665" 
d="M637 47c0 -25 -21 -53 -53 -53c-21 0 -40 12 -48 32l-44 113h-319l-44 -113c-8 -20 -27 -32 -48 -32c-31 0 -53 26 -53 53c0 6 1 12 3 19l221 554c12 32 44 53 79 53c35 1 68 -20 81 -53l221 -554c3 -7 4 -13 4 -19zM464 226l-132 340l-131 -340h263zM513 765
c0 -17 -12 -29 -26 -29h-311c-14 0 -26 12 -26 29c0 14 12 26 26 26h311c14 0 26 -12 26 -26z" />
    <glyph glyph-name="amacron" unicode="&#x101;" horiz-adv-x="531" 
d="M460 38c0 -24 -20 -44 -45 -44h-3c-18 0 -41 15 -41 44v16c-39 -43 -94 -66 -159 -66c-80 0 -168 54 -168 160c0 109 88 158 168 158c66 0 121 -21 159 -64v81c0 61 -50 97 -118 97c-45 0 -85 -14 -121 -42c-7 -5 -15 -8 -22 -8c-18 0 -37 14 -37 35c0 8 3 16 9 23
c46 46 119 67 184 67c104 0 194 -45 194 -168v-289zM371 106v82c-27 37 -75 56 -125 56c-65 0 -112 -40 -112 -98c0 -56 47 -95 112 -95c50 0 98 18 125 55zM447 598c0 -17 -12 -29 -26 -29h-311c-14 0 -26 12 -26 29c0 14 12 26 26 26h311c14 0 26 -12 26 -26z" />
    <glyph glyph-name="Abreve" unicode="&#x102;" horiz-adv-x="665" 
d="M637 47c0 -25 -21 -53 -53 -53c-21 0 -40 12 -48 32l-44 113h-319l-44 -113c-8 -20 -27 -32 -48 -32c-31 0 -53 26 -53 53c0 6 1 12 3 19l221 554c12 32 44 53 79 53c35 1 68 -20 81 -53l221 -554c3 -7 4 -13 4 -19zM464 226l-132 340l-131 -340h263zM497 788
c0 -7 -3 -13 -7 -17c-40 -42 -95 -68 -158 -68c-62 0 -118 26 -159 68c-4 4 -6 10 -6 17c0 13 11 27 28 27c7 0 14 -3 21 -8c29 -31 69 -49 116 -49c46 0 87 18 115 49c6 6 14 8 21 8c17 0 29 -15 29 -27z" />
    <glyph glyph-name="abreve" unicode="&#x103;" horiz-adv-x="531" 
d="M460 38c0 -24 -20 -44 -45 -44h-3c-18 0 -41 15 -41 44v16c-39 -43 -94 -66 -159 -66c-80 0 -168 54 -168 160c0 109 88 158 168 158c66 0 121 -21 159 -64v81c0 61 -50 97 -118 97c-45 0 -85 -14 -121 -42c-7 -5 -15 -8 -22 -8c-18 0 -37 14 -37 35c0 8 3 16 9 23
c46 46 119 67 184 67c104 0 194 -45 194 -168v-289zM371 106v82c-27 37 -75 56 -125 56c-65 0 -112 -40 -112 -98c0 -56 47 -95 112 -95c50 0 98 18 125 55zM431 621c0 -7 -3 -13 -7 -17c-40 -42 -95 -68 -158 -68c-62 0 -118 26 -159 68c-4 4 -6 10 -6 17c0 13 11 27 28 27
c7 0 14 -3 21 -8c29 -31 69 -49 116 -49c46 0 87 18 115 49c6 6 14 8 21 8c17 0 29 -15 29 -27z" />
    <glyph glyph-name="Aogonek" unicode="&#x104;" horiz-adv-x="665" 
d="M711 -134c0 -29 -47 -52 -84 -52c-48 0 -92 26 -92 88c0 37 19 71 49 97c-3 0 -6 -1 -9 0c-18 2 -34 13 -40 30l-43 110h-319l-44 -113c-8 -20 -27 -32 -48 -32c-31 0 -53 26 -53 53c0 6 1 12 3 19l221 554c12 32 44 53 79 53c35 1 68 -20 81 -53l220 -549
c6 -16 9 -28 9 -40c0 -21 -11 -38 -30 -61c-16 -19 -26 -40 -26 -65c0 -33 18 -48 42 -48c20 0 33 9 44 23c3 5 10 8 17 8c12 0 23 -9 23 -22zM464 226l-132 340l-131 -340h263z" />
    <glyph glyph-name="aogonek" unicode="&#x105;" horiz-adv-x="531" 
d="M511 -134c0 -29 -47 -52 -84 -52c-48 0 -92 26 -92 88c0 39 21 74 54 100c-16 11 -19 26 -18 52c-39 -43 -94 -66 -159 -66c-80 0 -168 54 -168 160c0 109 88 158 168 158c66 0 121 -21 159 -64v81c0 61 -50 97 -118 97c-45 0 -85 -14 -121 -42c-7 -5 -15 -8 -22 -8
c-18 0 -37 14 -37 35c0 8 3 16 9 23c46 46 119 67 184 67c104 0 194 -45 194 -168v-289c0 -11 -5 -21 -11 -28c-33 -31 -64 -62 -64 -105c0 -33 18 -48 42 -48c20 0 33 9 44 23c3 5 10 8 17 8c12 0 23 -9 23 -22zM371 106v82c-27 37 -75 56 -125 56c-65 0 -112 -40 -112 -98
c0 -56 47 -95 112 -95c50 0 98 18 125 55z" />
    <glyph glyph-name="Cacute" unicode="&#x106;" horiz-adv-x="679" 
d="M393 678c104 0 177 -42 228 -99c8 -9 12 -20 12 -32c0 -25 -21 -46 -47 -46c-12 0 -26 5 -34 16c-39 45 -101 73 -159 73c-140 0 -244 -107 -244 -257c0 -149 104 -257 244 -257c59 0 118 26 159 72c8 10 22 16 35 16c26 0 46 -22 46 -46c0 -12 -4 -23 -12 -31
c-52 -56 -124 -99 -228 -99c-194 0 -347 140 -347 345s153 345 347 345zM526 844c0 -8 -4 -15 -9 -20l-118 -101c-4 -4 -9 -6 -14 -6c-12 0 -24 10 -24 24c0 6 1 11 6 16l108 107c6 6 13 8 21 8c14 0 30 -12 30 -28z" />
    <glyph glyph-name="cacute" unicode="&#x107;" horiz-adv-x="496" 
d="M457 73c0 -9 -4 -19 -12 -26c-36 -35 -85 -59 -157 -59c-145 0 -245 109 -245 254c0 144 100 253 245 253c74 0 128 -26 161 -64c5 -6 7 -13 7 -21c0 -22 -19 -40 -41 -40c-10 0 -20 4 -28 11c-27 24 -59 35 -94 35c-96 0 -158 -73 -158 -174s62 -175 158 -175
c36 0 67 12 94 36c8 6 18 9 28 9c21 0 42 -16 42 -39zM420 677c0 -8 -4 -15 -9 -20l-118 -101c-4 -4 -9 -6 -14 -6c-12 0 -24 10 -24 24c0 6 1 11 6 16l108 107c6 6 13 8 21 8c14 0 30 -12 30 -28z" />
    <glyph glyph-name="Ccaron" unicode="&#x10c;" horiz-adv-x="679" 
d="M393 678c104 0 177 -42 228 -99c8 -9 12 -20 12 -32c0 -25 -21 -46 -47 -46c-12 0 -26 5 -34 16c-39 45 -101 73 -159 73c-140 0 -244 -107 -244 -257c0 -149 104 -257 244 -257c59 0 118 26 159 72c8 10 22 16 35 16c26 0 46 -22 46 -46c0 -12 -4 -23 -12 -31
c-52 -56 -124 -99 -228 -99c-194 0 -347 140 -347 345s153 345 347 345zM516 849c0 -4 -1 -9 -4 -12l-61 -89c-12 -19 -34 -31 -58 -31c-23 0 -45 12 -57 31l-58 89c-3 3 -4 8 -4 12c0 10 9 24 25 24c6 0 14 -4 19 -9l76 -99l78 99c5 6 11 9 18 9c13 0 26 -10 26 -24z" />
    <glyph glyph-name="ccaron" unicode="&#x10d;" horiz-adv-x="496" 
d="M457 73c0 -9 -4 -19 -12 -26c-36 -35 -85 -59 -157 -59c-145 0 -245 109 -245 254c0 144 100 253 245 253c74 0 128 -26 161 -64c5 -6 7 -13 7 -21c0 -22 -19 -40 -41 -40c-10 0 -20 4 -28 11c-27 24 -59 35 -94 35c-96 0 -158 -73 -158 -174s62 -175 158 -175
c36 0 67 12 94 36c8 6 18 9 28 9c21 0 42 -16 42 -39zM413 682c0 -4 -1 -9 -4 -12l-61 -89c-12 -19 -34 -31 -58 -31c-23 0 -45 12 -57 31l-58 89c-3 3 -4 8 -4 12c0 10 9 24 25 24c6 0 14 -4 19 -9l76 -99l78 99c5 6 11 9 18 9c13 0 26 -10 26 -24z" />
    <glyph glyph-name="Dcaron" unicode="&#x10e;" horiz-adv-x="705" 
d="M657 333c0 -193 -137 -333 -345 -333h-172c-36 0 -65 29 -65 65v537c0 36 29 65 65 65h172c208 0 345 -142 345 -334zM556 333c0 137 -86 246 -244 246h-138v-491h138c154 0 244 110 244 245zM478 849c0 -4 -1 -9 -4 -12l-61 -89c-12 -19 -34 -31 -58 -31
c-23 0 -45 12 -57 31l-58 89c-3 3 -4 8 -4 12c0 10 9 24 25 24c6 0 14 -4 19 -9l76 -99l78 99c5 6 11 9 18 9c13 0 26 -10 26 -24z" />
    <glyph glyph-name="dcaron" unicode="&#x10f;" horiz-adv-x="656" 
d="M506 38c0 -24 -20 -44 -45 -44c-24 0 -44 20 -44 44v31c-37 -48 -94 -81 -159 -81c-125 0 -215 95 -215 253c0 155 89 254 215 254c63 0 120 -30 159 -82v217c0 23 20 43 46 43c23 0 43 -20 43 -43v-592zM417 138v206c-25 39 -80 72 -136 72c-90 0 -146 -74 -146 -175
s56 -174 146 -174c56 0 111 31 136 71zM661 609c0 -48 -24 -93 -59 -125c-4 -4 -11 -7 -17 -7s-12 2 -16 6l-1 1c-4 4 -7 9 -7 14s2 9 6 12c19 20 40 48 43 73c-1 -1 -8 -2 -12 -2c-25 0 -45 20 -45 47c0 29 22 52 50 52c31 0 58 -26 58 -71z" />
    <glyph glyph-name="Dcroat" unicode="&#x110;" horiz-adv-x="732" 
d="M685 333c0 -193 -138 -333 -346 -333h-172c-36 0 -65 29 -65 65v228h-63c-20 0 -36 16 -36 38c0 19 16 35 36 35h63v236c0 36 29 65 65 65h172c208 0 346 -142 346 -334zM583 333c0 137 -86 246 -244 246h-138v-213h135c19 0 34 -16 34 -37c0 -20 -15 -36 -34 -36h-135
v-205h138c154 0 244 110 244 245z" />
    <glyph glyph-name="dcroat" unicode="&#x111;" horiz-adv-x="580" 
d="M577 559c0 -14 -11 -26 -26 -26h-45v-495c0 -24 -20 -44 -45 -44c-24 0 -44 20 -44 44v31c-37 -48 -94 -81 -159 -81c-125 0 -215 95 -215 253c0 155 89 254 215 254c63 0 120 -30 159 -82v120h-134c-14 0 -26 12 -26 28c0 15 12 27 26 27h134v42c0 23 20 43 46 43
c23 0 43 -20 43 -43v-42h45c15 0 26 -12 26 -29zM417 138v206c-25 39 -80 72 -136 72c-90 0 -146 -74 -146 -175s56 -174 146 -174c56 0 111 31 136 71z" />
    <glyph glyph-name="Emacron" unicode="&#x112;" 
d="M527 45c0 -26 -19 -45 -43 -45h-344c-36 0 -65 29 -65 65v537c0 36 29 65 65 65h344c24 0 43 -19 43 -45c0 -23 -19 -43 -43 -43h-310v-195h303c24 0 43 -19 43 -45c0 -23 -19 -43 -43 -43h-303v-208h310c24 0 43 -20 43 -43zM478 765c0 -17 -12 -29 -26 -29h-311
c-14 0 -26 12 -26 29c0 14 12 26 26 26h311c14 0 26 -12 26 -26z" />
    <glyph glyph-name="emacron" unicode="&#x113;" horiz-adv-x="560" 
d="M518 258c0 -24 -21 -45 -46 -45h-336c7 -83 67 -153 165 -153c41 0 85 14 120 40c6 3 13 5 20 5c16 0 36 -14 36 -36c0 -54 -124 -81 -185 -81c-144 0 -249 102 -249 254c0 140 101 253 241 253c117 0 197 -73 225 -181c4 -16 9 -37 9 -56zM432 276
c-2 65 -46 147 -149 147c-96 0 -143 -80 -147 -147h296zM465 598c0 -17 -12 -29 -26 -29h-311c-14 0 -26 12 -26 29c0 14 12 26 26 26h311c14 0 26 -12 26 -26z" />
    <glyph glyph-name="Edotaccent" unicode="&#x116;" 
d="M527 45c0 -26 -19 -45 -43 -45h-344c-36 0 -65 29 -65 65v537c0 36 29 65 65 65h344c24 0 43 -19 43 -45c0 -23 -19 -43 -43 -43h-310v-195h303c24 0 43 -19 43 -45c0 -23 -19 -43 -43 -43h-303v-208h310c24 0 43 -20 43 -43zM352 771c0 -29 -23 -52 -51 -52
c-29 0 -53 23 -53 52s24 53 53 53c28 0 51 -24 51 -53z" />
    <glyph glyph-name="edotaccent" unicode="&#x117;" horiz-adv-x="560" 
d="M518 258c0 -24 -21 -45 -46 -45h-336c7 -83 67 -153 165 -153c41 0 85 14 120 40c6 3 13 5 20 5c16 0 36 -14 36 -36c0 -54 -124 -81 -185 -81c-144 0 -249 102 -249 254c0 140 101 253 241 253c117 0 197 -73 225 -181c4 -16 9 -37 9 -56zM432 276
c-2 65 -46 147 -149 147c-96 0 -143 -80 -147 -147h296zM337 604c0 -29 -23 -52 -51 -52c-29 0 -53 23 -53 52s24 53 53 53c28 0 51 -24 51 -53z" />
    <glyph glyph-name="Eogonek" unicode="&#x118;" 
d="M561 -134c0 -29 -47 -52 -84 -52c-48 0 -92 26 -92 88c0 38 19 72 51 98h-296c-36 0 -65 29 -65 65v537c0 36 29 65 65 65h344c24 0 43 -19 43 -45c0 -23 -19 -43 -43 -43h-310v-195h303c24 0 43 -19 43 -45c0 -23 -19 -43 -43 -43h-303v-208h310c24 0 43 -20 43 -43
c0 -25 -24 -43 -44 -58c-29 -22 -48 -48 -48 -82c0 -33 18 -48 42 -48c20 0 33 9 44 23c3 5 10 8 17 8c12 0 23 -9 23 -22z" />
    <glyph glyph-name="eogonek" unicode="&#x119;" horiz-adv-x="560" 
d="M518 261c0 -26 -20 -48 -47 -48h-335c7 -83 67 -153 165 -153c41 0 85 14 120 40c6 3 13 5 20 5c16 0 36 -14 36 -36c0 -36 -64 -59 -97 -69c-41 -20 -74 -51 -74 -95c0 -33 18 -48 43 -48c20 0 32 9 43 23c4 5 10 8 17 8c12 0 23 -9 23 -22c0 -29 -47 -52 -83 -52
c-49 0 -92 26 -92 88c0 33 13 62 33 86c-143 1 -247 102 -247 254c0 140 101 253 241 253c137 0 222 -99 234 -234zM432 276c-2 65 -46 147 -149 147c-96 0 -143 -80 -147 -147h296z" />
    <glyph glyph-name="Ecaron" unicode="&#x11a;" 
d="M527 45c0 -26 -19 -45 -43 -45h-344c-36 0 -65 29 -65 65v537c0 36 29 65 65 65h344c24 0 43 -19 43 -45c0 -23 -19 -43 -43 -43h-310v-195h303c24 0 43 -19 43 -45c0 -23 -19 -43 -43 -43h-303v-208h310c24 0 43 -20 43 -43zM423 849c0 -4 -1 -9 -4 -12l-61 -89
c-12 -19 -34 -31 -58 -31c-23 0 -45 12 -57 31l-58 89c-3 3 -4 8 -4 12c0 10 9 24 25 24c6 0 14 -4 19 -9l76 -99l78 99c5 6 11 9 18 9c13 0 26 -10 26 -24z" />
    <glyph glyph-name="ecaron" unicode="&#x11b;" horiz-adv-x="560" 
d="M518 258c0 -24 -21 -45 -46 -45h-336c7 -83 67 -153 165 -153c41 0 85 14 120 40c6 3 13 5 20 5c16 0 36 -14 36 -36c0 -54 -124 -81 -185 -81c-144 0 -249 102 -249 254c0 140 101 253 241 253c117 0 197 -73 225 -181c4 -16 9 -37 9 -56zM432 276
c-2 65 -46 147 -149 147c-96 0 -143 -80 -147 -147h296zM408 682c0 -4 -1 -9 -4 -12l-61 -89c-12 -19 -34 -31 -58 -31c-23 0 -45 12 -57 31l-58 89c-3 3 -4 8 -4 12c0 10 9 24 25 24c6 0 14 -4 19 -9l76 -99l78 99c5 6 11 9 18 9c13 0 26 -10 26 -24z" />
    <glyph glyph-name="uni0122" unicode="&#x122;" horiz-adv-x="715" 
d="M661 158c0 -108 -146 -171 -268 -171c-192 0 -347 138 -347 346s155 345 347 345c102 0 178 -39 231 -93c9 -8 12 -21 12 -32c0 -25 -20 -46 -45 -46c-12 0 -24 5 -33 15c-41 42 -103 68 -165 68c-140 0 -244 -107 -244 -257c0 -149 104 -258 244 -258
c74 0 137 36 169 67v121h-178c-24 0 -43 19 -43 44c0 24 19 43 43 43h211c36 0 66 -29 66 -65v-127zM451 -138c0 -48 -24 -93 -59 -125c-4 -4 -11 -7 -17 -7s-12 2 -16 6l-1 1c-4 4 -7 9 -7 14s2 9 6 12c19 20 40 48 43 73c-1 -1 -8 -2 -12 -2c-25 0 -45 20 -45 47
c0 29 22 52 50 52c31 0 58 -26 58 -71z" />
    <glyph glyph-name="uni0123" unicode="&#x123;" horiz-adv-x="577" 
d="M288 547c-24 0 -52 18 -52 64c0 52 34 137 71 137c11 0 24 -8 24 -22c0 -17 -44 -51 -44 -80c27 0 53 -21 53 -48s-22 -51 -52 -51zM505 19c0 -166 -120 -215 -238 -215c-59 0 -193 20 -193 84c0 21 18 38 38 38c9 0 16 -2 23 -7c37 -31 79 -42 132 -42
c75 0 149 36 149 139v64c-36 -49 -93 -84 -159 -84c-124 0 -214 92 -214 249c0 156 89 250 214 250c64 0 120 -30 159 -82v33c0 23 20 43 46 43c23 0 43 -20 43 -43v-427zM416 148v196c-25 39 -80 72 -135 72c-90 0 -146 -70 -146 -171c0 -99 56 -170 146 -170
c55 0 110 34 135 73z" />
    <glyph glyph-name="Imacron" unicode="&#x12a;" horiz-adv-x="248" 
d="M174 43c0 -27 -22 -49 -50 -49c-27 0 -49 22 -49 49v582c0 26 22 48 51 48c26 0 48 -22 48 -48v-582zM308 765c0 -17 -12 -29 -26 -29h-311c-14 0 -26 12 -26 29c0 14 12 26 26 26h311c14 0 26 -12 26 -26z" />
    <glyph glyph-name="imacron" unicode="&#x12b;" horiz-adv-x="233" 
d="M299 598c0 -17 -12 -29 -26 -29h-311c-14 0 -26 12 -26 29c0 14 12 26 26 26h311c14 0 26 -12 26 -26zM161 38c0 -24 -20 -44 -45 -44c-24 0 -44 20 -44 44v408c0 23 20 43 46 43c23 0 43 -20 43 -43v-408z" />
    <glyph glyph-name="Iogonek" unicode="&#x12e;" horiz-adv-x="248" 
d="M225 -134c0 -29 -47 -52 -84 -52c-48 0 -92 26 -92 88c0 38 21 72 52 98c-16 8 -26 24 -26 43v582c0 26 22 48 51 48c26 0 48 -22 48 -48v-582c0 -14 -6 -28 -15 -38c-34 -35 -60 -58 -60 -100c0 -33 18 -48 42 -48c21 0 33 9 44 23c3 5 10 8 17 8c12 0 23 -9 23 -22z
" />
    <glyph glyph-name="iogonek" unicode="&#x12f;" horiz-adv-x="233" 
d="M116 662c32 0 57 -26 57 -58c0 -31 -25 -57 -57 -57c-31 0 -57 26 -57 57c0 32 26 58 57 58zM212 -134c0 -29 -47 -52 -84 -52c-48 0 -91 26 -91 88c0 39 21 75 54 101c-12 7 -19 20 -19 35v408c0 23 20 43 46 43c23 0 43 -20 43 -43v-408c0 -44 -75 -78 -75 -133
c0 -33 18 -48 42 -48c31 0 39 31 61 31c12 0 23 -9 23 -22z" />
    <glyph glyph-name="dotlessi" unicode="&#x131;" horiz-adv-x="233" 
d="M161 38c0 -24 -20 -44 -45 -44c-24 0 -44 20 -44 44v408c0 23 20 43 46 43c23 0 43 -20 43 -43v-408z" />
    <glyph glyph-name="uni0136" unicode="&#x136;" horiz-adv-x="617" 
d="M551 41c0 -23 -20 -48 -48 -48c-14 0 -27 6 -37 18l-229 280l-63 -72v-176c0 -27 -22 -49 -50 -49c-27 0 -49 22 -49 49v582c0 26 22 48 51 48c26 0 48 -22 48 -48v-290l269 321c9 11 22 16 35 16c26 0 49 -20 49 -46c0 -10 -4 -21 -11 -28l-215 -247l239 -282
c7 -8 11 -18 11 -28zM369 -138c0 -48 -24 -93 -59 -125c-4 -4 -11 -7 -17 -7s-12 2 -16 6l-1 1c-4 4 -7 9 -7 14s2 9 6 12c19 20 40 48 43 73c-1 -1 -8 -2 -12 -2c-25 0 -45 20 -45 47c0 29 22 52 50 52c31 0 58 -26 58 -71z" />
    <glyph glyph-name="uni0137" unicode="&#x137;" horiz-adv-x="520" 
d="M467 38c0 -21 -17 -45 -44 -45c-13 0 -27 6 -35 18l-153 198l-74 -75v-96c0 -24 -20 -44 -45 -44c-24 0 -44 20 -44 44v592c0 23 20 43 46 43c23 0 43 -20 43 -43v-393l228 240c8 8 19 13 29 13c22 0 42 -20 42 -42c0 -10 -4 -19 -11 -27l-150 -157l159 -200
c6 -7 9 -17 9 -26zM321 -138c0 -48 -24 -93 -59 -125c-4 -4 -11 -7 -17 -7s-12 2 -16 6l-1 1c-4 4 -7 9 -7 14s2 9 6 12c19 20 40 48 43 73c-1 -1 -8 -2 -12 -2c-25 0 -45 20 -45 47c0 29 22 52 50 52c31 0 58 -26 58 -71z" />
    <glyph glyph-name="Lacute" unicode="&#x139;" horiz-adv-x="513" 
d="M482 45c0 -26 -19 -45 -43 -45h-299c-36 0 -65 29 -65 65v560c0 26 22 48 51 48c26 0 48 -22 48 -48v-537h265c24 0 43 -20 43 -43zM408 844c0 -8 -4 -15 -9 -20l-118 -101c-4 -4 -9 -6 -14 -6c-12 0 -24 10 -24 24c0 6 1 11 6 16l108 107c6 6 13 8 21 8
c14 0 30 -12 30 -28z" />
    <glyph glyph-name="lacute" unicode="&#x13a;" horiz-adv-x="233" 
d="M161 38c0 -24 -20 -44 -45 -44c-24 0 -44 20 -44 44v592c0 23 20 43 46 43c23 0 43 -20 43 -43v-592zM250 844c0 -8 -4 -15 -9 -20l-118 -101c-4 -4 -9 -6 -14 -6c-12 0 -24 10 -24 24c0 6 1 11 6 16l108 107c6 6 13 8 21 8c14 0 30 -12 30 -28z" />
    <glyph glyph-name="uni013B" unicode="&#x13b;" horiz-adv-x="513" 
d="M482 45c0 -26 -19 -45 -43 -45h-299c-36 0 -65 29 -65 65v560c0 26 22 48 51 48c26 0 48 -22 48 -48v-537h265c24 0 43 -20 43 -43zM322 -138c0 -48 -24 -93 -59 -125c-4 -4 -11 -7 -17 -7s-12 2 -16 6l-1 1c-4 4 -7 9 -7 14s2 9 6 12c19 20 40 48 43 73
c-1 -1 -8 -2 -12 -2c-25 0 -45 20 -45 47c0 29 22 52 50 52c31 0 58 -26 58 -71z" />
    <glyph glyph-name="uni013C" unicode="&#x13c;" horiz-adv-x="233" 
d="M161 38c0 -24 -20 -44 -45 -44c-24 0 -44 20 -44 44v592c0 23 20 43 46 43c23 0 43 -20 43 -43v-592zM177 -138c0 -48 -24 -93 -59 -125c-4 -4 -11 -7 -17 -7s-12 2 -16 6l-1 1c-4 4 -7 9 -7 14s2 9 6 12c19 20 40 48 43 73c-1 -1 -8 -2 -12 -2c-25 0 -45 20 -45 47
c0 29 22 52 50 52c31 0 58 -26 58 -71z" />
    <glyph glyph-name="Lcaron" unicode="&#x13d;" horiz-adv-x="513" 
d="M482 45c0 -26 -19 -45 -43 -45h-299c-36 0 -65 29 -65 65v560c0 26 22 48 51 48c26 0 48 -22 48 -48v-537h265c24 0 43 -20 43 -43zM372 609c0 -48 -24 -93 -59 -125c-4 -4 -11 -7 -17 -7s-12 2 -16 6l-1 1c-4 4 -7 9 -7 14s2 9 6 12c19 20 40 48 43 73
c-1 -1 -8 -2 -12 -2c-25 0 -45 20 -45 47c0 29 22 52 50 52c31 0 58 -26 58 -71z" />
    <glyph glyph-name="lcaron" unicode="&#x13e;" horiz-adv-x="308" 
d="M161 38c0 -24 -20 -44 -45 -44c-24 0 -44 20 -44 44v592c0 23 20 43 46 43c23 0 43 -20 43 -43v-592zM328 609c0 -48 -24 -93 -59 -125c-4 -4 -11 -7 -17 -7s-12 2 -16 6l-1 1c-4 4 -7 9 -7 14s2 9 6 12c19 20 40 48 43 73c-1 -1 -8 -2 -12 -2c-25 0 -45 20 -45 47
c0 29 22 52 50 52c31 0 58 -26 58 -71z" />
    <glyph glyph-name="Lslash" unicode="&#x141;" horiz-adv-x="531" 
d="M500 43c0 -24 -19 -43 -43 -43h-299c-36 0 -66 29 -66 65v196l-39 -23c-5 -3 -11 -4 -16 -4c-18 0 -37 14 -37 37c0 12 6 24 17 30l75 44v280c0 26 22 48 51 48c27 0 48 -22 48 -48v-223l48 27c4 2 10 4 16 4c17 0 38 -13 38 -36c0 -12 -8 -25 -18 -31l-84 -48v-230h266
c24 0 43 -20 43 -45z" />
    <glyph glyph-name="lslash" unicode="&#x142;" horiz-adv-x="293" 
d="M292 400c0 -10 -5 -20 -14 -25l-87 -50v-287c0 -24 -20 -44 -45 -44c-24 0 -44 20 -44 44v236l-59 -33c-3 -3 -8 -4 -13 -4c-13 0 -29 12 -29 30c0 10 4 20 14 25l87 51v287c0 23 20 43 46 43c23 0 43 -20 43 -43v-236l57 33c4 2 9 3 14 3c14 0 30 -12 30 -30z" />
    <glyph glyph-name="Nacute" unicode="&#x143;" horiz-adv-x="714" 
d="M639 51c0 -29 -25 -57 -60 -57c-19 0 -38 9 -49 25l-356 487v-463c0 -27 -22 -49 -50 -49c-27 0 -49 22 -49 49v569c0 32 27 61 64 61c20 0 41 -10 53 -27l348 -473v452c0 26 22 48 51 48c26 0 48 -22 48 -48v-574zM496 844c0 -8 -4 -15 -9 -20l-118 -101
c-4 -4 -9 -6 -14 -6c-12 0 -24 10 -24 24c0 6 1 11 6 16l108 107c6 6 13 8 21 8c14 0 30 -12 30 -28z" />
    <glyph glyph-name="nacute" unicode="&#x144;" horiz-adv-x="559" 
d="M487 38c0 -24 -20 -44 -45 -44c-24 0 -44 20 -44 44v272c0 80 -41 106 -103 106c-57 0 -108 -34 -134 -71v-307c0 -24 -20 -44 -45 -44c-24 0 -44 20 -44 44v408c0 23 20 43 46 43c23 0 43 -20 43 -43v-31c33 39 97 80 171 80c102 0 155 -53 155 -155v-302zM412 677
c0 -8 -4 -15 -9 -20l-118 -101c-4 -4 -9 -6 -14 -6c-12 0 -24 10 -24 24c0 6 1 11 6 16l108 107c6 6 13 8 21 8c14 0 30 -12 30 -28z" />
    <glyph glyph-name="uni0145" unicode="&#x145;" horiz-adv-x="714" 
d="M639 51c0 -29 -25 -57 -60 -57c-19 0 -38 9 -49 25l-356 487v-463c0 -27 -22 -49 -50 -49c-27 0 -49 22 -49 49v569c0 32 27 61 64 61c20 0 41 -10 53 -27l348 -473v452c0 26 22 48 51 48c26 0 48 -22 48 -48v-574zM418 -138c0 -48 -24 -93 -59 -125c-4 -4 -11 -7 -17 -7
s-12 2 -16 6l-1 1c-4 4 -7 9 -7 14s2 9 6 12c19 20 40 48 43 73c-1 -1 -8 -2 -12 -2c-25 0 -45 20 -45 47c0 29 22 52 50 52c31 0 58 -26 58 -71z" />
    <glyph glyph-name="uni0146" unicode="&#x146;" horiz-adv-x="559" 
d="M487 38c0 -24 -20 -44 -45 -44c-24 0 -44 20 -44 44v272c0 80 -41 106 -103 106c-57 0 -108 -34 -134 -71v-307c0 -24 -20 -44 -45 -44c-24 0 -44 20 -44 44v408c0 23 20 43 46 43c23 0 43 -20 43 -43v-31c33 39 97 80 171 80c102 0 155 -53 155 -155v-302zM337 -138
c0 -48 -24 -93 -59 -125c-4 -4 -11 -7 -17 -7s-12 2 -16 6l-1 1c-4 4 -7 9 -7 14s2 9 6 12c19 20 40 48 43 73c-1 -1 -8 -2 -12 -2c-25 0 -45 20 -45 47c0 29 22 52 50 52c31 0 58 -26 58 -71z" />
    <glyph glyph-name="Ncaron" unicode="&#x147;" horiz-adv-x="714" 
d="M639 51c0 -29 -25 -57 -60 -57c-19 0 -38 9 -49 25l-356 487v-463c0 -27 -22 -49 -50 -49c-27 0 -49 22 -49 49v569c0 32 27 61 64 61c20 0 41 -10 53 -27l348 -473v452c0 26 22 48 51 48c26 0 48 -22 48 -48v-574zM479 849c0 -4 -1 -9 -4 -12l-61 -89
c-12 -19 -34 -31 -58 -31c-23 0 -45 12 -57 31l-58 89c-3 3 -4 8 -4 12c0 10 9 24 25 24c6 0 14 -4 19 -9l76 -99l78 99c5 6 11 9 18 9c13 0 26 -10 26 -24z" />
    <glyph glyph-name="ncaron" unicode="&#x148;" horiz-adv-x="559" 
d="M487 38c0 -24 -20 -44 -45 -44c-24 0 -44 20 -44 44v272c0 80 -41 106 -103 106c-57 0 -108 -34 -134 -71v-307c0 -24 -20 -44 -45 -44c-24 0 -44 20 -44 44v408c0 23 20 43 46 43c23 0 43 -20 43 -43v-31c33 39 97 80 171 80c102 0 155 -53 155 -155v-302zM404 682
c0 -4 -1 -9 -4 -12l-61 -89c-12 -19 -34 -31 -58 -31c-23 0 -45 12 -57 31l-58 89c-3 3 -4 8 -4 12c0 10 9 24 25 24c6 0 14 -4 19 -9l76 -99l78 99c5 6 11 9 18 9c13 0 26 -10 26 -24z" />
    <glyph glyph-name="Omacron" unicode="&#x14c;" horiz-adv-x="765" 
d="M718 333c0 -198 -138 -345 -336 -345c-199 0 -336 147 -336 345s137 345 336 345c198 0 336 -147 336 -345zM616 333c0 148 -92 257 -234 257c-143 0 -233 -109 -233 -257c0 -147 90 -257 233 -257c142 0 234 110 234 257zM563 765c0 -17 -12 -29 -26 -29h-311
c-14 0 -26 12 -26 29c0 14 12 26 26 26h311c14 0 26 -12 26 -26z" />
    <glyph glyph-name="omacron" unicode="&#x14d;" 
d="M530 242c0 -139 -93 -254 -244 -254c-150 0 -243 115 -243 254s93 253 243 253c151 0 244 -114 244 -253zM437 242c0 92 -54 174 -151 174c-96 0 -151 -82 -151 -174c0 -93 55 -175 151 -175c97 0 151 82 151 175zM468 598c0 -17 -12 -29 -26 -29h-311
c-14 0 -26 12 -26 29c0 14 12 26 26 26h311c14 0 26 -12 26 -26z" />
    <glyph glyph-name="Ohungarumlaut" unicode="&#x150;" horiz-adv-x="765" 
d="M718 333c0 -198 -138 -345 -336 -345c-199 0 -336 147 -336 345s137 345 336 345c198 0 336 -147 336 -345zM616 333c0 148 -92 257 -234 257c-143 0 -233 -109 -233 -257c0 -147 90 -257 233 -257c142 0 234 110 234 257zM412 843c0 -6 -2 -12 -5 -17l-82 -101
c-3 -6 -10 -9 -17 -9c-12 0 -25 10 -25 23c0 5 1 8 4 12l69 108c6 9 15 14 25 14c20 0 31 -16 31 -30zM556 843c0 -6 -2 -12 -5 -17l-81 -101c-5 -6 -11 -9 -18 -9c-13 0 -25 10 -25 23c0 4 1 8 4 12l69 108c5 9 15 14 25 14c20 0 31 -16 31 -30z" />
    <glyph glyph-name="ohungarumlaut" unicode="&#x151;" 
d="M530 242c0 -139 -93 -254 -244 -254c-150 0 -243 115 -243 254s93 253 243 253c151 0 244 -114 244 -253zM437 242c0 92 -54 174 -151 174c-96 0 -151 -82 -151 -174c0 -93 55 -175 151 -175c97 0 151 82 151 175zM316 676c0 -6 -2 -12 -5 -17l-82 -101
c-3 -6 -10 -9 -17 -9c-12 0 -25 10 -25 23c0 5 1 8 4 12l69 108c6 9 15 14 25 14c20 0 31 -16 31 -30zM460 676c0 -6 -2 -12 -5 -17l-81 -101c-5 -6 -11 -9 -18 -9c-13 0 -25 10 -25 23c0 4 1 8 4 12l69 108c5 9 15 14 25 14c20 0 31 -16 31 -30z" />
    <glyph glyph-name="OE" unicode="&#x152;" horiz-adv-x="1099" 
d="M1054 45c0 -26 -19 -45 -42 -45h-346c-54 0 -69 50 -65 109c-48 -80 -140 -121 -228 -121c-194 0 -327 147 -327 345s133 344 327 344c88 0 180 -40 228 -119c-4 58 10 109 65 109h346c23 0 42 -19 42 -45c0 -23 -19 -43 -42 -43h-312v-195h305c23 0 42 -19 42 -45
c0 -23 -19 -43 -42 -43h-305v-208h312c23 0 42 -20 42 -43zM601 225v216c-37 99 -119 148 -216 148c-146 0 -236 -108 -236 -256c0 -147 90 -257 236 -257c97 0 179 51 216 149z" />
    <glyph glyph-name="oe" unicode="&#x153;" horiz-adv-x="954" 
d="M910 259c0 -25 -20 -46 -46 -46h-333c7 -83 65 -153 164 -153c42 0 85 14 120 40c6 3 13 5 20 5c16 0 36 -14 36 -36c0 -9 -3 -18 -10 -25c-44 -38 -111 -56 -174 -56c-120 0 -178 76 -205 130c-26 -51 -81 -130 -196 -130c-150 0 -243 115 -243 254s93 253 243 253
c115 0 172 -80 197 -130c24 51 84 130 195 130c115 0 196 -70 224 -181c4 -16 8 -35 8 -55zM826 276c-2 65 -46 147 -149 147c-96 0 -143 -80 -147 -147h296zM437 242c0 96 -57 174 -151 174c-93 0 -151 -78 -151 -174c0 -97 58 -176 151 -176c94 0 151 79 151 176z" />
    <glyph glyph-name="Racute" unicode="&#x154;" horiz-adv-x="617" 
d="M568 462c0 -119 -80 -184 -166 -195l129 -200c5 -9 7 -17 7 -25c0 -24 -20 -48 -49 -48c-16 0 -31 8 -40 23l-150 240h-125v-214c0 -27 -22 -49 -50 -49c-27 0 -49 22 -49 49v559c0 36 29 65 65 65h215c126 0 213 -81 213 -205zM342 579h-168v-235h168
c73 0 124 48 124 118s-51 117 -124 117zM449 844c0 -8 -4 -15 -9 -20l-118 -101c-4 -4 -9 -6 -14 -6c-12 0 -24 10 -24 24c0 6 1 11 6 16l108 107c6 6 13 8 21 8c14 0 30 -12 30 -28z" />
    <glyph glyph-name="racute" unicode="&#x155;" horiz-adv-x="338" 
d="M326 450c0 -26 -20 -45 -45 -47c-46 -4 -91 -24 -120 -67v-298c0 -24 -20 -44 -45 -44h-1c-24 1 -43 20 -43 44v408c0 23 20 43 46 43c23 0 43 -20 43 -43v-38c27 37 71 82 125 82c23 0 40 -17 40 -40zM329 677c0 -8 -4 -15 -9 -20l-118 -101c-4 -4 -9 -6 -14 -6
c-12 0 -24 10 -24 24c0 6 1 11 6 16l108 107c6 6 13 8 21 8c14 0 30 -12 30 -28z" />
    <glyph glyph-name="uni0156" unicode="&#x156;" horiz-adv-x="617" 
d="M568 462c0 -119 -80 -184 -166 -195l129 -200c5 -9 7 -17 7 -25c0 -24 -20 -48 -49 -48c-16 0 -31 8 -40 23l-150 240h-125v-214c0 -27 -22 -49 -50 -49c-27 0 -49 22 -49 49v559c0 36 29 65 65 65h215c126 0 213 -81 213 -205zM342 579h-168v-235h168
c73 0 124 48 124 118s-51 117 -124 117zM371 -138c0 -48 -24 -93 -59 -125c-4 -4 -11 -7 -17 -7s-12 2 -16 6l-1 1c-4 4 -7 9 -7 14s2 9 6 12c19 20 40 48 43 73c-1 -1 -8 -2 -12 -2c-25 0 -45 20 -45 47c0 29 22 52 50 52c31 0 58 -26 58 -71z" />
    <glyph glyph-name="uni0157" unicode="&#x157;" horiz-adv-x="338" 
d="M326 450c0 -26 -20 -45 -45 -47c-46 -4 -91 -24 -120 -67v-298c0 -24 -20 -44 -45 -44h-1c-24 1 -43 20 -43 44v408c0 23 20 43 46 43c23 0 43 -20 43 -43v-38c27 37 71 82 125 82c23 0 40 -17 40 -40zM229 -138c0 -48 -24 -93 -59 -125c-4 -4 -11 -7 -17 -7s-12 2 -16 6
l-1 1c-4 4 -7 9 -7 14s2 9 6 12c19 20 40 48 43 73c-1 -1 -8 -2 -12 -2c-25 0 -45 20 -45 47c0 29 22 52 50 52c31 0 58 -26 58 -71z" />
    <glyph glyph-name="Rcaron" unicode="&#x158;" horiz-adv-x="617" 
d="M568 462c0 -119 -80 -184 -166 -195l129 -200c5 -9 7 -17 7 -25c0 -24 -20 -48 -49 -48c-16 0 -31 8 -40 23l-150 240h-125v-214c0 -27 -22 -49 -50 -49c-27 0 -49 22 -49 49v559c0 36 29 65 65 65h215c126 0 213 -81 213 -205zM342 579h-168v-235h168
c73 0 124 48 124 118s-51 117 -124 117zM434 849c0 -4 -1 -9 -4 -12l-61 -89c-12 -19 -34 -31 -58 -31c-23 0 -45 12 -57 31l-58 89c-3 3 -4 8 -4 12c0 10 9 24 25 24c6 0 14 -4 19 -9l76 -99l78 99c5 6 11 9 18 9c13 0 26 -10 26 -24z" />
    <glyph glyph-name="rcaron" unicode="&#x159;" horiz-adv-x="338" 
d="M326 450c0 -26 -20 -45 -45 -47c-46 -4 -91 -24 -120 -67v-298c0 -24 -20 -44 -45 -44h-1c-24 1 -43 20 -43 44v408c0 23 20 43 46 43c23 0 43 -20 43 -43v-38c27 37 71 82 125 82c23 0 40 -17 40 -40zM318 682c0 -4 -1 -9 -4 -12l-61 -89c-12 -19 -34 -31 -58 -31
c-23 0 -45 12 -57 31l-58 89c-3 3 -4 8 -4 12c0 10 9 24 25 24c6 0 14 -4 19 -9l76 -99l78 99c5 6 11 9 18 9c13 0 26 -10 26 -24z" />
    <glyph glyph-name="Sacute" unicode="&#x15a;" horiz-adv-x="590" 
d="M548 189c0 -104 -72 -201 -252 -201c-98 0 -187 33 -239 84c-8 9 -12 20 -12 31c0 25 19 49 46 49c9 0 20 -3 28 -9c46 -39 108 -68 181 -68c108 0 146 57 146 104c0 158 -392 67 -392 308c0 110 98 190 236 190c83 0 168 -26 218 -72c9 -8 13 -20 13 -31
c0 -25 -22 -46 -47 -46c-9 0 -19 3 -27 9c-49 36 -107 53 -165 53c-75 0 -126 -39 -126 -96c0 -138 392 -56 392 -305zM426 844c0 -8 -4 -15 -9 -20l-118 -101c-4 -4 -9 -6 -14 -6c-12 0 -24 10 -24 24c0 6 1 11 6 16l108 107c6 6 13 8 21 8c14 0 30 -12 30 -28z" />
    <glyph glyph-name="sacute" unicode="&#x15b;" horiz-adv-x="468" 
d="M426 136c0 -82 -68 -148 -196 -148c-66 0 -139 19 -183 63c-7 6 -11 14 -11 24c0 21 18 37 39 37c9 0 16 -2 23 -7c36 -26 86 -46 136 -46c69 0 105 31 105 75c0 107 -295 37 -295 219c0 76 66 142 184 142c69 0 130 -21 168 -58c6 -6 9 -14 9 -22c0 -20 -17 -35 -35 -35
c-8 0 -15 2 -21 7c-31 22 -74 37 -120 37c-61 0 -99 -29 -99 -68c0 -97 296 -30 296 -220zM364 677c0 -8 -4 -15 -9 -20l-118 -101c-4 -4 -9 -6 -14 -6c-12 0 -24 10 -24 24c0 6 1 11 6 16l108 107c6 6 13 8 21 8c14 0 30 -12 30 -28z" />
    <glyph glyph-name="Scedilla" unicode="&#x15e;" horiz-adv-x="590" 
d="M548 189c0 -102 -68 -196 -240 -201l-16 -42c10 7 23 11 36 11c38 0 67 -27 67 -68c0 -50 -48 -81 -106 -81c-41 0 -102 13 -102 42c0 12 11 22 23 22c3 0 6 0 9 -2c22 -14 46 -19 67 -19c31 0 59 14 59 39c0 20 -12 33 -35 33c-17 0 -30 -15 -45 -15
c-14 0 -24 12 -24 24c0 3 0 6 1 8l18 49c-82 7 -157 38 -203 83c-8 9 -12 20 -12 31c0 25 19 49 46 49c9 0 20 -3 28 -9c46 -39 108 -68 181 -68c108 0 146 57 146 104c0 158 -392 67 -392 308c0 110 98 190 236 190c83 0 168 -26 218 -72c9 -8 13 -20 13 -31
c0 -25 -22 -46 -47 -46c-9 0 -19 3 -27 9c-49 36 -107 53 -165 53c-75 0 -126 -39 -126 -96c0 -138 392 -56 392 -305z" />
    <glyph glyph-name="scedilla" unicode="&#x15f;" horiz-adv-x="468" 
d="M426 136c0 -79 -62 -141 -177 -147l-17 -43c10 7 24 11 37 11c38 0 66 -27 66 -68c0 -50 -48 -81 -106 -81c-41 0 -101 13 -101 42c0 12 10 22 22 22c4 0 6 0 9 -2c23 -14 47 -19 68 -19c31 0 58 14 58 39c0 20 -11 33 -34 33c-17 0 -30 -15 -45 -15s-25 12 -25 24
c0 3 1 6 2 8l18 49c-57 5 -116 24 -155 62c-6 6 -10 15 -10 24c0 21 18 37 39 37c9 0 16 -2 23 -7c36 -26 86 -46 136 -46c69 0 105 31 105 75c0 107 -295 37 -295 219c0 76 66 142 184 142c69 0 130 -21 168 -58c6 -6 9 -14 9 -22c0 -20 -17 -35 -35 -35c-8 0 -15 2 -21 7
c-31 22 -74 37 -120 37c-61 0 -99 -29 -99 -68c0 -97 296 -30 296 -220z" />
    <glyph glyph-name="Scaron" unicode="&#x160;" horiz-adv-x="590" 
d="M548 189c0 -104 -72 -201 -252 -201c-98 0 -187 33 -239 84c-8 9 -12 20 -12 31c0 25 19 49 46 49c9 0 20 -3 28 -9c46 -39 108 -68 181 -68c108 0 146 57 146 104c0 158 -392 67 -392 308c0 110 98 190 236 190c83 0 168 -26 218 -72c9 -8 13 -20 13 -31
c0 -25 -22 -46 -47 -46c-9 0 -19 3 -27 9c-49 36 -107 53 -165 53c-75 0 -126 -39 -126 -96c0 -138 392 -56 392 -305zM411 849c0 -4 -1 -9 -4 -12l-61 -89c-12 -19 -34 -31 -58 -31c-23 0 -45 12 -57 31l-58 89c-3 3 -4 8 -4 12c0 10 9 24 25 24c6 0 14 -4 19 -9l76 -99
l78 99c5 6 11 9 18 9c13 0 26 -10 26 -24z" />
    <glyph glyph-name="scaron" unicode="&#x161;" horiz-adv-x="468" 
d="M426 136c0 -82 -68 -148 -196 -148c-66 0 -139 19 -183 63c-7 6 -11 14 -11 24c0 21 18 37 39 37c9 0 16 -2 23 -7c36 -26 86 -46 136 -46c69 0 105 31 105 75c0 107 -295 37 -295 219c0 76 66 142 184 142c69 0 130 -21 168 -58c6 -6 9 -14 9 -22c0 -20 -17 -35 -35 -35
c-8 0 -15 2 -21 7c-31 22 -74 37 -120 37c-61 0 -99 -29 -99 -68c0 -97 296 -30 296 -220zM355 682c0 -4 -1 -9 -4 -12l-61 -89c-12 -19 -34 -31 -58 -31c-23 0 -45 12 -57 31l-58 89c-3 3 -4 8 -4 12c0 10 9 24 25 24c6 0 14 -4 19 -9l76 -99l78 99c5 6 11 9 18 9
c13 0 26 -10 26 -24z" />
    <glyph glyph-name="uni0162" unicode="&#x162;" 
d="M549 622c0 -23 -19 -43 -43 -43h-170v-536c0 -27 -22 -49 -50 -49c-27 0 -49 22 -49 49v536h-170c-24 0 -43 20 -43 45c0 24 19 43 43 43h439c24 0 43 -19 43 -45zM347 -138c0 -48 -24 -93 -59 -125c-4 -4 -11 -7 -17 -7s-12 2 -16 6l-1 1c-4 4 -7 9 -7 14s2 9 6 12
c19 20 40 48 43 73c-1 -1 -8 -2 -12 -2c-25 0 -45 20 -45 47c0 29 22 52 50 52c31 0 58 -26 58 -71z" />
    <glyph glyph-name="uni0163" unicode="&#x163;" horiz-adv-x="306" 
d="M297 35c0 -32 -39 -47 -92 -47c-76 0 -116 42 -116 118v299h-47c-22 0 -39 17 -39 40c0 21 17 38 39 38h47v95c0 23 20 43 46 43c24 0 44 -20 44 -43v-95h66c21 0 38 -17 38 -40c0 -21 -17 -38 -38 -38h-66v-278c0 -37 18 -60 47 -60c11 0 23 5 33 5c22 0 38 -16 38 -37z
M213 -138c0 -48 -24 -93 -59 -125c-4 -4 -11 -7 -17 -7s-12 2 -16 6l-1 1c-4 4 -7 9 -7 14s2 9 6 12c19 20 40 48 43 73c-1 -1 -8 -2 -12 -2c-25 0 -45 20 -45 47c0 29 22 52 50 52c31 0 58 -26 58 -71z" />
    <glyph glyph-name="Tcaron" unicode="&#x164;" 
d="M549 622c0 -23 -19 -43 -43 -43h-170v-536c0 -27 -22 -49 -50 -49c-27 0 -49 22 -49 49v536h-170c-24 0 -43 20 -43 45c0 24 19 43 43 43h439c24 0 43 -19 43 -45zM410 849c0 -4 -1 -9 -4 -12l-61 -89c-12 -19 -34 -31 -58 -31c-23 0 -45 12 -57 31l-58 89
c-3 3 -4 8 -4 12c0 10 9 24 25 24c6 0 14 -4 19 -9l76 -99l78 99c5 6 11 9 18 9c13 0 26 -10 26 -24z" />
    <glyph glyph-name="tcaron" unicode="&#x165;" horiz-adv-x="331" 
d="M297 35c0 -32 -39 -47 -92 -47c-76 0 -116 42 -116 118v299h-47c-22 0 -39 17 -39 40c0 21 17 38 39 38h47v95c0 23 20 43 46 43c24 0 44 -20 44 -43v-95h66c21 0 38 -17 38 -40c0 -21 -17 -38 -38 -38h-66v-278c0 -37 18 -60 47 -60c11 0 23 5 33 5c22 0 38 -16 38 -37z
M346 678c0 -48 -24 -93 -59 -125c-4 -4 -11 -7 -17 -7s-12 2 -16 6l-1 1c-4 4 -7 9 -7 14s2 9 6 12c19 20 40 48 43 73c-1 -1 -8 -2 -12 -2c-25 0 -45 20 -45 47c0 29 22 52 50 52c31 0 58 -26 58 -71z" />
    <glyph glyph-name="Umacron" unicode="&#x16a;" horiz-adv-x="709" 
d="M634 262c0 -166 -93 -274 -279 -274c-187 0 -280 109 -280 273v364c0 26 22 48 51 48c26 0 48 -22 48 -48v-361c0 -115 63 -188 181 -188c117 0 180 73 180 188v361c0 26 21 48 51 48c27 0 48 -22 48 -48v-363zM537 765c0 -17 -12 -29 -26 -29h-311c-14 0 -26 12 -26 29
c0 14 12 26 26 26h311c14 0 26 -12 26 -26z" />
    <glyph glyph-name="umacron" unicode="&#x16b;" horiz-adv-x="559" 
d="M487 38c0 -24 -20 -44 -45 -44c-24 0 -44 20 -44 44v28c-36 -41 -98 -78 -172 -78c-102 0 -154 51 -154 153v305c0 23 20 43 46 43c23 0 43 -20 43 -43v-274c0 -80 41 -105 103 -105c56 0 107 32 134 69v310c0 23 20 43 46 43c23 0 43 -20 43 -43v-408zM460 598
c0 -17 -12 -29 -26 -29h-311c-14 0 -26 12 -26 29c0 14 12 26 26 26h311c14 0 26 -12 26 -26z" />
    <glyph glyph-name="Uring" unicode="&#x16e;" horiz-adv-x="709" 
d="M634 262c0 -166 -93 -274 -279 -274c-187 0 -280 109 -280 273v364c0 26 22 48 51 48c26 0 48 -22 48 -48v-361c0 -115 63 -188 181 -188c117 0 180 73 180 188v361c0 26 21 48 51 48c27 0 48 -22 48 -48v-363zM456 807c0 -55 -45 -100 -100 -100s-100 45 -100 100
c0 54 45 101 100 101s100 -47 100 -101zM411 807c0 31 -24 55 -55 55c-30 0 -55 -24 -55 -55c0 -30 25 -56 55 -56c31 0 55 26 55 56z" />
    <glyph glyph-name="uring" unicode="&#x16f;" horiz-adv-x="559" 
d="M487 38c0 -24 -20 -44 -45 -44c-24 0 -44 20 -44 44v28c-36 -41 -98 -78 -172 -78c-102 0 -154 51 -154 153v305c0 23 20 43 46 43c23 0 43 -20 43 -43v-274c0 -80 41 -105 103 -105c56 0 107 32 134 69v310c0 23 20 43 46 43c23 0 43 -20 43 -43v-408zM380 640
c0 -55 -45 -100 -100 -100s-100 45 -100 100c0 54 45 101 100 101s100 -47 100 -101zM335 640c0 31 -24 55 -55 55c-30 0 -55 -24 -55 -55c0 -30 25 -56 55 -56c31 0 55 26 55 56z" />
    <glyph glyph-name="Uhungarumlaut" unicode="&#x170;" horiz-adv-x="709" 
d="M634 262c0 -166 -93 -274 -279 -274c-187 0 -280 109 -280 273v364c0 26 22 48 51 48c26 0 48 -22 48 -48v-361c0 -115 63 -188 181 -188c117 0 180 73 180 188v361c0 26 21 48 51 48c27 0 48 -22 48 -48v-363zM385 843c0 -6 -2 -12 -5 -17l-82 -101c-3 -6 -10 -9 -17 -9
c-12 0 -25 10 -25 23c0 5 1 8 4 12l69 108c6 9 15 14 25 14c20 0 31 -16 31 -30zM529 843c0 -6 -2 -12 -5 -17l-81 -101c-5 -6 -11 -9 -18 -9c-13 0 -25 10 -25 23c0 4 1 8 4 12l69 108c5 9 15 14 25 14c20 0 31 -16 31 -30z" />
    <glyph glyph-name="uhungarumlaut" unicode="&#x171;" horiz-adv-x="559" 
d="M487 38c0 -24 -20 -44 -45 -44c-24 0 -44 20 -44 44v28c-36 -41 -98 -78 -172 -78c-102 0 -154 51 -154 153v305c0 23 20 43 46 43c23 0 43 -20 43 -43v-274c0 -80 41 -105 103 -105c56 0 107 32 134 69v310c0 23 20 43 46 43c23 0 43 -20 43 -43v-408zM309 676
c0 -6 -2 -12 -5 -17l-82 -101c-3 -6 -10 -9 -17 -9c-12 0 -25 10 -25 23c0 5 1 8 4 12l69 108c6 9 15 14 25 14c20 0 31 -16 31 -30zM453 676c0 -6 -2 -12 -5 -17l-81 -101c-5 -6 -11 -9 -18 -9c-13 0 -25 10 -25 23c0 4 1 8 4 12l69 108c5 9 15 14 25 14
c20 0 31 -16 31 -30z" />
    <glyph glyph-name="Uogonek" unicode="&#x172;" horiz-adv-x="709" 
d="M634 262c0 -134 -60 -230 -180 -262c-48 -24 -75 -55 -75 -95c0 -33 18 -48 42 -48c20 0 33 9 44 23c3 5 10 8 17 8c12 0 23 -9 23 -22c0 -29 -47 -52 -84 -52c-48 0 -92 26 -92 88c0 33 15 62 37 86c-195 -4 -291 105 -291 273v364c0 26 22 48 51 48c26 0 48 -22 48 -48
v-361c0 -115 63 -188 181 -188c117 0 180 73 180 188v361c0 26 21 48 51 48c27 0 48 -22 48 -48v-363z" />
    <glyph glyph-name="uogonek" unicode="&#x173;" horiz-adv-x="559" 
d="M530 -134c0 -29 -47 -52 -84 -52c-48 0 -92 26 -92 88c0 39 23 78 55 104c-5 6 -11 14 -11 35v25c-36 -41 -98 -78 -172 -78c-102 0 -154 51 -154 153v305c0 23 20 43 46 43c23 0 43 -20 43 -43v-274c0 -80 41 -105 103 -105c56 0 107 32 134 69v310c0 23 20 43 46 43
c23 0 43 -20 43 -43v-404c0 -53 -83 -73 -83 -137c0 -33 18 -48 42 -48c31 0 39 31 61 31c12 0 23 -9 23 -22z" />
    <glyph glyph-name="Ydieresis" unicode="&#x178;" horiz-adv-x="631" 
d="M588 626c0 -8 -2 -17 -7 -25l-216 -321v-237c0 -27 -21 -49 -50 -49c-27 0 -48 22 -48 49v237l-217 322c-5 7 -8 15 -8 24c0 23 18 47 47 47c15 0 32 -8 41 -21l186 -284l185 283c8 13 24 21 39 21c27 0 48 -22 48 -46zM265 773c0 -29 -23 -53 -52 -53s-52 24 -52 53
c0 28 23 52 52 52s52 -24 52 -52zM473 773c0 -29 -24 -53 -52 -53s-53 24 -53 53c0 28 25 52 53 52s52 -24 52 -52z" />
    <glyph glyph-name="Zacute" unicode="&#x179;" horiz-adv-x="587" 
d="M546 45c0 -26 -19 -45 -43 -45h-410c-26 0 -52 23 -52 55c0 12 4 24 11 33l353 491h-322c-23 0 -43 20 -43 45c0 24 20 43 43 43h404c26 0 51 -23 51 -55c0 -12 -4 -24 -11 -34l-353 -490h329c24 0 43 -20 43 -43zM422 844c0 -8 -4 -15 -9 -20l-118 -101
c-4 -4 -9 -6 -14 -6c-12 0 -24 10 -24 24c0 6 1 11 6 16l108 107c6 6 13 8 21 8c14 0 30 -12 30 -28z" />
    <glyph glyph-name="zacute" unicode="&#x17a;" horiz-adv-x="474" 
d="M430 40c0 -23 -17 -40 -37 -40h-307c-23 0 -42 19 -42 45c0 11 4 21 10 29l248 331h-221c-21 0 -38 17 -38 40c0 21 17 38 38 38h304c20 0 40 -18 40 -44c0 -10 -3 -20 -9 -28l-251 -334h228c20 0 37 -17 37 -37zM369 677c0 -8 -4 -15 -9 -20l-118 -101
c-4 -4 -9 -6 -14 -6c-12 0 -24 10 -24 24c0 6 1 11 6 16l108 107c6 6 13 8 21 8c14 0 30 -12 30 -28z" />
    <glyph glyph-name="Zdotaccent" unicode="&#x17b;" horiz-adv-x="587" 
d="M546 45c0 -26 -19 -45 -43 -45h-410c-26 0 -52 23 -52 55c0 12 4 24 11 33l353 491h-322c-23 0 -43 20 -43 45c0 24 20 43 43 43h404c26 0 51 -23 51 -55c0 -12 -4 -24 -11 -34l-353 -490h329c24 0 43 -20 43 -43zM342 771c0 -29 -23 -52 -51 -52c-29 0 -53 23 -53 52
s24 53 53 53c28 0 51 -24 51 -53z" />
    <glyph glyph-name="zdotaccent" unicode="&#x17c;" horiz-adv-x="474" 
d="M430 40c0 -23 -17 -40 -37 -40h-307c-23 0 -42 19 -42 45c0 11 4 21 10 29l248 331h-221c-21 0 -38 17 -38 40c0 21 17 38 38 38h304c20 0 40 -18 40 -44c0 -10 -3 -20 -9 -28l-251 -334h228c20 0 37 -17 37 -37zM287 604c0 -29 -23 -52 -51 -52c-29 0 -53 23 -53 52
s24 53 53 53c28 0 51 -24 51 -53z" />
    <glyph glyph-name="Zcaron" unicode="&#x17d;" horiz-adv-x="587" 
d="M546 45c0 -26 -19 -45 -43 -45h-410c-26 0 -52 23 -52 55c0 12 4 24 11 33l353 491h-322c-23 0 -43 20 -43 45c0 24 20 43 43 43h404c26 0 51 -23 51 -55c0 -12 -4 -24 -11 -34l-353 -490h329c24 0 43 -20 43 -43zM414 849c0 -4 -1 -9 -4 -12l-61 -89
c-12 -19 -34 -31 -58 -31c-23 0 -45 12 -57 31l-58 89c-3 3 -4 8 -4 12c0 10 9 24 25 24c6 0 14 -4 19 -9l76 -99l78 99c5 6 11 9 18 9c13 0 26 -10 26 -24z" />
    <glyph glyph-name="zcaron" unicode="&#x17e;" horiz-adv-x="474" 
d="M430 40c0 -23 -17 -40 -37 -40h-307c-23 0 -42 19 -42 45c0 11 4 21 10 29l248 331h-221c-21 0 -38 17 -38 40c0 21 17 38 38 38h304c20 0 40 -18 40 -44c0 -10 -3 -20 -9 -28l-251 -334h228c20 0 37 -17 37 -37zM356 682c0 -4 -1 -9 -4 -12l-61 -89
c-12 -19 -34 -31 -58 -31c-23 0 -45 12 -57 31l-58 89c-3 3 -4 8 -4 12c0 10 9 24 25 24c6 0 14 -4 19 -9l76 -99l78 99c5 6 11 9 18 9c13 0 26 -10 26 -24z" />
    <glyph glyph-name="florin" unicode="&#x192;" horiz-adv-x="437" 
d="M445 623c0 -22 -16 -44 -40 -44c-13 0 -27 10 -44 10c-44 0 -81 -31 -93 -85l-39 -174h100c21 0 38 -18 38 -41c0 -22 -17 -39 -38 -39h-117l-85 -381c-4 -23 -25 -38 -47 -38c-28 0 -49 21 -49 47c0 4 0 7 1 11l79 361h-31c-21 0 -39 17 -39 41c0 21 18 39 39 39h48
l44 193c21 94 91 154 180 154c39 0 93 -11 93 -54z" />
    <glyph glyph-name="uni0218" unicode="&#x218;" horiz-adv-x="590" 
d="M548 189c0 -104 -72 -201 -252 -201c-98 0 -187 33 -239 84c-8 9 -12 20 -12 31c0 25 19 49 46 49c9 0 20 -3 28 -9c46 -39 108 -68 181 -68c108 0 146 57 146 104c0 158 -392 67 -392 308c0 110 98 190 236 190c83 0 168 -26 218 -72c9 -8 13 -20 13 -31
c0 -25 -22 -46 -47 -46c-9 0 -19 3 -27 9c-49 36 -107 53 -165 53c-75 0 -126 -39 -126 -96c0 -138 392 -56 392 -305zM349 -138c0 -48 -24 -93 -59 -125c-4 -4 -11 -7 -17 -7s-12 2 -16 6l-1 1c-4 4 -7 9 -7 14s2 9 6 12c19 20 40 48 43 73c-1 -1 -8 -2 -12 -2
c-25 0 -45 20 -45 47c0 29 22 52 50 52c31 0 58 -26 58 -71z" />
    <glyph glyph-name="uni0219" unicode="&#x219;" horiz-adv-x="468" 
d="M426 136c0 -82 -68 -148 -196 -148c-66 0 -139 19 -183 63c-7 6 -11 14 -11 24c0 21 18 37 39 37c9 0 16 -2 23 -7c36 -26 86 -46 136 -46c69 0 105 31 105 75c0 107 -295 37 -295 219c0 76 66 142 184 142c69 0 130 -21 168 -58c6 -6 9 -14 9 -22c0 -20 -17 -35 -35 -35
c-8 0 -15 2 -21 7c-31 22 -74 37 -120 37c-61 0 -99 -29 -99 -68c0 -97 296 -30 296 -220zM291 -138c0 -48 -24 -93 -59 -125c-4 -4 -11 -7 -17 -7s-12 2 -16 6l-1 1c-4 4 -7 9 -7 14s2 9 6 12c19 20 40 48 43 73c-1 -1 -8 -2 -12 -2c-25 0 -45 20 -45 47c0 29 22 52 50 52
c31 0 58 -26 58 -71z" />
    <glyph glyph-name="uni021A" unicode="&#x21a;" 
d="M549 622c0 -23 -19 -43 -43 -43h-170v-536c0 -27 -22 -49 -50 -49c-27 0 -49 22 -49 49v536h-170c-24 0 -43 20 -43 45c0 24 19 43 43 43h439c24 0 43 -19 43 -45zM347 -138c0 -48 -24 -93 -59 -125c-4 -4 -11 -7 -17 -7s-12 2 -16 6l-1 1c-4 4 -7 9 -7 14s2 9 6 12
c19 20 40 48 43 73c-1 -1 -8 -2 -12 -2c-25 0 -45 20 -45 47c0 29 22 52 50 52c31 0 58 -26 58 -71z" />
    <glyph glyph-name="uni021B" unicode="&#x21b;" horiz-adv-x="306" 
d="M297 35c0 -32 -39 -47 -92 -47c-76 0 -116 42 -116 118v299h-47c-22 0 -39 17 -39 40c0 21 17 38 39 38h47v95c0 23 20 43 46 43c24 0 44 -20 44 -43v-95h66c21 0 38 -17 38 -40c0 -21 -17 -38 -38 -38h-66v-278c0 -37 18 -60 47 -60c11 0 23 5 33 5c22 0 38 -16 38 -37z
M213 -138c0 -48 -24 -93 -59 -125c-4 -4 -11 -7 -17 -7s-12 2 -16 6l-1 1c-4 4 -7 9 -7 14s2 9 6 12c19 20 40 48 43 73c-1 -1 -8 -2 -12 -2c-25 0 -45 20 -45 47c0 29 22 52 50 52c31 0 58 -26 58 -71z" />
    <glyph glyph-name="circumflex" unicode="&#x2c6;" horiz-adv-x="274" 
d="M258 573c0 -10 -10 -24 -26 -24c-7 0 -13 3 -18 9l-78 99l-76 -98c-5 -6 -12 -9 -19 -9c-13 0 -26 10 -26 23c0 4 2 9 5 13l58 89c12 19 34 31 59 31c22 0 44 -12 56 -31l61 -89c3 -3 4 -8 4 -13z" />
    <glyph glyph-name="caron" unicode="&#x2c7;" horiz-adv-x="274" 
d="M261 682c0 -4 -1 -9 -4 -12l-61 -89c-12 -19 -34 -31 -58 -31c-23 0 -45 12 -57 31l-58 89c-3 3 -4 8 -4 12c0 10 9 24 25 24c6 0 14 -4 19 -9l76 -99l78 99c5 6 11 9 18 9c13 0 26 -10 26 -24z" />
    <glyph glyph-name="breve" unicode="&#x2d8;" horiz-adv-x="351" 
d="M341 621c0 -7 -3 -13 -7 -17c-40 -42 -95 -68 -158 -68c-62 0 -118 26 -159 68c-4 4 -6 10 -6 17c0 13 11 27 28 27c7 0 14 -3 21 -8c29 -31 69 -49 116 -49c46 0 87 18 115 49c6 6 14 8 21 8c17 0 29 -15 29 -27z" />
    <glyph glyph-name="dotaccent" unicode="&#x2d9;" horiz-adv-x="128" 
d="M116 604c0 -29 -23 -52 -51 -52c-29 0 -53 23 -53 52s24 53 53 53c28 0 51 -24 51 -53z" />
    <glyph glyph-name="ring" unicode="&#x2da;" horiz-adv-x="200" 
d="M200 640c0 -55 -45 -100 -100 -100s-100 45 -100 100c0 54 45 101 100 101s100 -47 100 -101zM155 640c0 31 -24 55 -55 55c-30 0 -55 -24 -55 -55c0 -30 25 -56 55 -56c31 0 55 26 55 56z" />
    <glyph glyph-name="ogonek" unicode="&#x2db;" horiz-adv-x="182" 
d="M175 -134c0 -29 -47 -52 -83 -52c-49 0 -92 26 -92 88c0 45 28 84 70 112c5 3 11 5 17 5c8 0 24 -5 24 -18c0 -5 -2 -9 -7 -12c-34 -22 -54 -49 -54 -84c0 -33 18 -48 42 -48c20 0 32 9 43 23c4 5 10 8 17 8c13 0 23 -9 23 -22z" />
    <glyph glyph-name="tilde" unicode="&#x2dc;" horiz-adv-x="317" 
d="M315 666c-4 -58 -34 -112 -98 -112c-72 0 -76 86 -121 86c-22 0 -38 -18 -44 -57c-1 -14 -14 -25 -29 -25c-13 0 -22 11 -22 23c0 58 38 113 99 113c70 0 76 -85 121 -85c22 0 38 17 43 56c2 14 15 25 29 25s22 -12 22 -24z" />
    <glyph glyph-name="hungarumlaut" unicode="&#x2dd;" horiz-adv-x="314" 
d="M143 676c0 -6 -2 -12 -5 -17l-82 -101c-3 -6 -10 -9 -17 -9c-12 0 -25 10 -25 23c0 5 1 8 4 12l69 108c6 9 15 14 25 14c20 0 31 -16 31 -30zM287 676c0 -6 -2 -12 -5 -17l-81 -101c-5 -6 -11 -9 -18 -9c-13 0 -25 10 -25 23c0 4 1 8 4 12l69 108c5 9 15 14 25 14
c20 0 31 -16 31 -30z" />
    <glyph glyph-name="uni03A9" unicode="&#x3a9;" horiz-adv-x="765" 
d="M718 353c0 -127 -64 -214 -147 -265h89c23 0 42 -20 42 -45c0 -24 -19 -43 -42 -43h-164c-24 0 -45 20 -45 43c0 24 13 45 38 59c70 35 127 117 127 232c0 136 -80 255 -234 255s-233 -119 -233 -255c0 -115 57 -197 127 -232c25 -13 38 -36 38 -57
c0 -25 -21 -45 -45 -45h-163c-24 0 -43 19 -43 43c0 25 19 45 43 45h89c-83 51 -149 138 -149 265c0 191 138 325 336 325c199 0 336 -134 336 -325z" />
    <glyph glyph-name="pi" unicode="&#x3c0;" horiz-adv-x="595" 
d="M592 443c0 -21 -17 -38 -38 -38h-48v-367c0 -24 -20 -44 -46 -44c-24 0 -44 20 -44 44v367h-237v-367c0 -24 -20 -44 -46 -44c-24 0 -44 20 -44 44v367h-47c-22 0 -39 17 -39 40c0 21 17 38 39 38h512c21 0 38 -17 38 -40z" />
    <glyph glyph-name="endash" unicode="&#x2013;" horiz-adv-x="593" 
d="M569 243c0 -23 -17 -40 -38 -40h-469c-21 0 -38 17 -38 40c0 21 17 38 38 38h469c21 0 38 -17 38 -38z" />
    <glyph glyph-name="emdash" unicode="&#x2014;" horiz-adv-x="833" 
d="M809 243c0 -23 -17 -40 -38 -40h-709c-21 0 -38 17 -38 40c0 21 17 38 38 38h709c21 0 38 -17 38 -38z" />
    <glyph glyph-name="quoteleft" unicode="&#x2018;" horiz-adv-x="237" 
d="M175 496c0 -33 -27 -61 -60 -61c-37 0 -70 30 -70 83c0 56 30 113 74 150c4 4 10 6 16 6c15 0 28 -12 28 -26c0 -7 -3 -14 -8 -19c-25 -22 -45 -52 -49 -79c2 1 10 2 15 2c31 0 54 -23 54 -56z" />
    <glyph glyph-name="quoteright" unicode="&#x2019;" horiz-adv-x="237" 
d="M187 594c0 -56 -31 -113 -74 -150c-5 -4 -11 -6 -17 -6c-14 0 -28 11 -28 25c0 8 3 15 8 20c25 22 45 52 49 79c-2 -1 -10 -3 -15 -3c-31 0 -53 24 -53 57s26 61 59 61c37 0 71 -30 71 -83z" />
    <glyph glyph-name="quotesinglbase" unicode="&#x201a;" horiz-adv-x="237" 
d="M187 31c0 -56 -31 -113 -74 -150c-5 -4 -11 -7 -17 -7c-14 0 -28 12 -28 26c0 7 3 14 8 20c25 21 45 52 49 78c-2 -1 -10 -2 -15 -2c-31 0 -53 23 -53 57c0 33 26 61 59 61c37 0 71 -31 71 -83z" />
    <glyph glyph-name="quotedblleft" unicode="&#x201c;" horiz-adv-x="409" 
d="M351 496c0 -33 -27 -61 -60 -61c-37 0 -70 30 -70 83c0 56 30 113 73 150c5 4 11 6 17 6c14 0 28 -13 28 -26c0 -7 -3 -14 -8 -19c-25 -22 -45 -52 -49 -79c2 1 10 2 15 2c31 0 54 -23 54 -56zM179 496c0 -33 -26 -61 -60 -61c-36 0 -70 30 -70 83c0 56 30 113 74 150
c5 4 10 6 17 6c14 0 28 -12 28 -26c0 -7 -3 -14 -9 -19c-24 -22 -45 -52 -49 -79c3 1 10 2 16 2c31 0 53 -23 53 -56z" />
    <glyph glyph-name="quotedblright" unicode="&#x201d;" horiz-adv-x="409" 
d="M358 594c0 -56 -30 -113 -73 -150c-5 -4 -12 -6 -17 -6c-15 0 -28 11 -28 25c0 8 3 15 8 20c25 22 45 52 49 79c-2 -1 -10 -3 -15 -3c-31 0 -54 24 -54 57s27 61 60 61c37 0 70 -30 70 -83zM187 594c0 -56 -31 -113 -74 -150c-5 -4 -11 -6 -17 -6c-14 0 -28 11 -28 25
c0 8 3 15 9 20c24 22 45 52 48 79c-2 -1 -9 -3 -15 -3c-31 0 -53 24 -53 57s26 61 59 61c37 0 71 -30 71 -83z" />
    <glyph glyph-name="quotedblbase" unicode="&#x201e;" horiz-adv-x="409" 
d="M187 31c0 -56 -31 -113 -74 -150c-5 -4 -12 -7 -17 -7c-14 0 -28 12 -28 26c0 7 3 14 8 20c25 21 45 52 49 78c-2 -1 -10 -2 -15 -2c-31 0 -53 23 -53 57c0 33 26 61 59 61c37 0 71 -31 71 -83zM358 31c0 -56 -30 -113 -73 -150c-5 -4 -12 -7 -17 -7c-15 0 -28 12 -28 26
c0 7 3 14 8 20c25 21 45 52 49 78c-2 -1 -10 -2 -15 -2c-31 0 -54 23 -54 57c0 33 27 61 60 61c37 0 70 -31 70 -83z" />
    <glyph glyph-name="dagger" unicode="&#x2020;" horiz-adv-x="267" 
d="M251 554c0 -16 -11 -25 -23 -24l-72 3l3 -186c0 -14 -12 -26 -27 -26s-25 12 -25 26l4 186l-72 -3c-12 -1 -23 8 -23 24c0 13 11 22 23 22l72 -2l-4 83c-1 14 11 26 27 26c14 0 25 -12 25 -26l-3 -83l72 2c12 0 23 -9 23 -22z" />
    <glyph glyph-name="daggerdbl" unicode="&#x2021;" horiz-adv-x="267" 
d="M251 304c0 -14 -11 -22 -23 -22l-72 2l3 -84c0 -14 -11 -26 -27 -26c-14 0 -25 12 -25 26l3 84l-71 -2c-12 -1 -23 8 -23 24c0 13 11 22 23 22l71 -3v208l-71 -3c-12 -1 -23 8 -23 24c0 13 11 22 23 22l71 -2l-3 83c0 14 11 26 27 26c14 0 25 -12 25 -26l-3 -83l72 2
c12 0 23 -9 23 -24c0 -14 -11 -23 -23 -22l-72 3v-208l72 3c12 0 23 -9 23 -24z" />
    <glyph glyph-name="bullet" unicode="&#x2022;" horiz-adv-x="358" 
d="M291 242c0 -60 -50 -110 -111 -110s-111 50 -111 110c0 61 50 111 111 111s111 -50 111 -111z" />
    <glyph glyph-name="ellipsis" unicode="&#x2026;" horiz-adv-x="711" 
d="M179 52c0 -33 -28 -62 -61 -62c-34 0 -61 29 -61 62s27 62 61 62c33 0 61 -29 61 -62zM417 52c0 -33 -29 -62 -63 -62c-33 0 -61 29 -61 62s28 62 61 62c34 0 63 -29 63 -62zM654 52c0 -33 -28 -62 -62 -62s-62 29 -62 62s28 62 62 62s62 -29 62 -62z" />
    <glyph glyph-name="perthousand" unicode="&#x2030;" horiz-adv-x="1093" 
d="M192 677c98 0 164 -73 164 -167c0 -93 -66 -163 -164 -163c-97 0 -162 70 -162 163c0 94 65 167 162 167zM545 318c97 0 164 -72 164 -166c0 -93 -67 -164 -164 -164s-162 71 -162 164c0 94 65 166 162 166zM545 41c56 0 96 46 96 111c0 66 -40 113 -96 113
s-95 -47 -95 -113c0 -65 39 -111 95 -111zM900 41c57 0 96 46 96 111c0 66 -39 113 -96 113c-56 0 -94 -47 -94 -113c0 -65 38 -111 94 -111zM900 318c97 0 164 -72 164 -166c0 -93 -67 -164 -164 -164c-96 0 -162 71 -162 164c0 94 66 166 162 166zM192 400
c56 0 96 46 96 110c0 67 -40 114 -96 114c-55 0 -94 -47 -94 -114c0 -64 39 -110 94 -110zM595 635l-403 -631c-5 -6 -12 -11 -20 -11c-14 0 -27 11 -27 25c0 5 2 9 5 14l402 630c4 7 13 11 21 11c14 0 25 -13 25 -26c0 -4 -1 -9 -3 -12z" />
    <glyph glyph-name="guilsinglleft" unicode="&#x2039;" horiz-adv-x="306" 
d="M242 90c0 -16 -14 -34 -32 -34c-9 0 -18 4 -23 11l-114 127c-12 13 -18 31 -18 48s7 36 19 49l113 125c5 6 14 10 22 10c16 0 33 -13 33 -32c0 -7 -2 -14 -7 -20l-119 -131l119 -133c4 -6 7 -13 7 -20z" />
    <glyph glyph-name="guilsinglright" unicode="&#x203a;" horiz-adv-x="306" 
d="M251 242c0 -17 -6 -34 -18 -48l-113 -127c-6 -7 -14 -11 -23 -11c-16 0 -33 14 -33 33c0 7 2 15 8 21l118 133l-118 131c-6 6 -8 12 -8 19c0 16 13 33 32 33c9 0 17 -4 24 -10l113 -125c12 -14 18 -32 18 -49z" />
    <glyph glyph-name="fraction" unicode="&#x2044;" horiz-adv-x="144" 
d="M300 650c0 -4 -2 -10 -4 -13l-405 -634c-6 -7 -13 -11 -21 -11c-15 0 -27 12 -27 26c0 4 2 8 5 12l405 635c4 7 13 11 21 11c15 0 26 -14 26 -26z" />
    <glyph glyph-name="Euro" unicode="&#x20ac;" horiz-adv-x="699" 
d="M414 678c104 0 178 -42 229 -99c7 -9 11 -20 11 -32c0 -25 -20 -46 -46 -46c-13 0 -26 5 -35 16c-39 45 -100 73 -159 73c-105 0 -190 -61 -226 -156h265c16 0 28 -13 28 -30c0 -16 -12 -28 -28 -28h-280c-2 -14 -3 -28 -3 -43c0 -14 1 -28 3 -41h280c16 0 28 -12 28 -30
c0 -15 -12 -28 -28 -28h-265c34 -96 121 -158 226 -158c60 0 118 26 159 72c9 10 22 16 35 16c26 0 46 -22 46 -46c0 -12 -4 -23 -12 -31c-51 -56 -124 -99 -228 -99c-161 0 -293 96 -333 246h-30c-16 0 -29 13 -29 30c0 16 13 28 29 28h19c-1 13 -2 27 -2 41s1 29 2 43h-19
c-16 0 -29 12 -29 30c0 15 13 28 29 28h30c41 148 173 244 333 244z" />
    <glyph glyph-name="trademark" unicode="&#x2122;" horiz-adv-x="454" 
d="M419 454c0 -7 -6 -13 -15 -13c-7 0 -13 6 -13 13v175l-70 -168c-2 -4 -5 -7 -9 -7c-3 0 -7 3 -9 8l-70 167v-175c0 -7 -6 -13 -15 -13c-7 0 -13 6 -13 13v194c0 11 10 24 25 24c10 0 18 -5 22 -14l60 -151l60 150c3 9 11 15 22 15c14 0 25 -10 25 -24v-194zM175 655
c0 -8 -6 -14 -12 -14h-56v-187c0 -7 -6 -13 -15 -13c-7 0 -13 6 -13 13v187h-56c-6 0 -12 6 -12 14c0 6 6 12 12 12h140c6 0 12 -6 12 -12z" />
    <glyph glyph-name="partialdiff" unicode="&#x2202;" 
d="M530 251c0 -154 -93 -263 -244 -263c-150 0 -243 109 -243 243s90 243 218 243c64 0 116 -23 155 -81c-35 78 -105 158 -205 215c-13 8 -19 20 -19 33c0 23 18 39 40 39c8 0 16 -2 23 -6c147 -83 275 -240 275 -423zM437 231c0 88 -54 164 -151 164
c-96 0 -151 -76 -151 -164s55 -164 151 -164c97 0 151 76 151 164z" />
    <glyph glyph-name="Delta" unicode="&#x2206;" horiz-adv-x="665" 
d="M639 45c0 -23 -19 -45 -45 -45h-523c-27 0 -45 22 -45 45c0 5 1 11 3 16l223 559c12 32 44 53 79 53c35 1 69 -19 82 -53l223 -559c2 -5 3 -11 3 -16zM519 88l-187 478l-186 -478h373z" />
    <glyph glyph-name="product" unicode="&#x220f;" horiz-adv-x="729" 
d="M705 622c0 -23 -20 -43 -43 -43h-71v-627c0 -26 -22 -48 -50 -48c-27 0 -49 22 -49 48v627h-255v-627c0 -26 -22 -48 -50 -48c-27 0 -49 22 -49 48v627h-71c-24 0 -43 20 -43 45c0 24 19 43 43 43h595c23 0 43 -19 43 -45z" />
    <glyph glyph-name="summation" unicode="&#x2211;" horiz-adv-x="578" 
d="M532 -47c0 -24 -19 -43 -43 -43h-386c-28 0 -57 24 -57 60c0 13 4 25 12 36l217 290l-216 275c-8 10 -13 24 -13 37c0 32 26 59 57 59h386c24 0 43 -19 43 -45c0 -23 -19 -43 -43 -43h-314l180 -231c12 -15 19 -33 19 -51c0 -19 -7 -36 -18 -52l-185 -247h318
c24 0 43 -20 43 -45z" />
    <glyph glyph-name="radical" unicode="&#x221a;" horiz-adv-x="713" 
d="M671 642c0 -3 0 -7 -2 -11l-241 -611c-6 -15 -22 -26 -41 -26c-18 0 -32 11 -39 27l-117 299l-128 -49c-3 -1 -6 -2 -9 -2c-15 0 -30 12 -30 31c0 12 8 23 19 28l125 47c7 3 15 4 23 4c27 0 51 -17 62 -43l97 -245l220 563c4 12 16 20 29 20c19 0 32 -15 32 -32z" />
    <glyph glyph-name="infinity" unicode="&#x221e;" horiz-adv-x="665" 
d="M636 335c0 -81 -46 -168 -157 -168c-68 0 -119 49 -147 106c-27 -57 -78 -106 -146 -106c-110 0 -157 88 -157 168c0 82 47 168 157 168c68 0 119 -49 146 -106c28 57 79 106 147 106c111 0 157 -87 157 -168zM305 335c-20 54 -57 109 -111 109c-62 0 -101 -45 -101 -109
c0 -63 39 -109 101 -109c54 0 91 55 111 109zM572 335c0 64 -38 109 -100 109c-54 0 -92 -55 -111 -109c19 -54 57 -108 111 -108c62 0 100 44 100 108z" />
    <glyph glyph-name="integral" unicode="&#x222b;" horiz-adv-x="355" 
d="M344 736c0 -17 -13 -31 -31 -31h-37c-35 0 -65 -32 -65 -78v-586c0 -87 -65 -141 -133 -141h-35c-19 0 -32 14 -32 32c0 17 13 31 32 31h35c35 0 65 33 65 79v584c0 88 65 142 133 142h37c18 0 31 -14 31 -32z" />
    <glyph glyph-name="approxequal" unicode="&#x2248;" horiz-adv-x="500" 
d="M478 251c0 -16 -13 -29 -28 -29c-4 0 -8 0 -11 2c-25 10 -52 15 -79 15c-96 0 -110 -57 -220 -57c-31 0 -119 11 -119 47c0 18 14 30 28 30c4 0 7 0 11 -2c25 -10 53 -16 80 -16c95 0 109 57 220 57c32 0 118 -10 118 -47zM478 439c0 -17 -13 -30 -28 -30
c-4 0 -8 0 -11 2c-25 10 -52 15 -79 15c-96 0 -110 -56 -220 -56c-31 0 -119 10 -119 47c0 17 14 29 28 29c4 0 7 0 11 -2c25 -10 53 -15 80 -15c95 0 109 57 220 57c32 0 118 -11 118 -47z" />
    <glyph glyph-name="notequal" unicode="&#x2260;" horiz-adv-x="500" 
d="M477 237c0 -16 -12 -29 -28 -29h-249l-71 -113c-4 -6 -12 -11 -20 -11c-14 0 -27 12 -27 26c0 4 2 9 5 13l53 85h-89c-15 0 -28 13 -28 31c0 16 13 28 28 28h127l84 133h-210c-15 0 -29 13 -29 31c0 15 14 29 29 29h248l71 112c5 6 12 10 20 10c15 0 28 -12 28 -26
c0 -4 -2 -8 -4 -13l-54 -83h88c15 0 28 -14 28 -31c0 -16 -13 -29 -28 -29h-126l-85 -133h211c16 0 28 -12 28 -30z" />
    <glyph glyph-name="lessequal" unicode="&#x2264;" horiz-adv-x="500" 
d="M477 150c0 -20 -18 -32 -32 -32c-5 0 -9 1 -13 3l-384 185c-15 7 -25 23 -25 42c0 16 10 32 25 39l383 186c5 2 9 2 14 2c15 0 32 -12 32 -32c0 -12 -7 -23 -18 -28l-359 -169l359 -168c11 -4 18 -17 18 -28zM477 30c1 -17 -13 -30 -28 -30h-398c-15 0 -28 13 -28 30
c0 16 13 29 28 29h398c16 0 28 -13 28 -29z" />
    <glyph glyph-name="greaterequal" unicode="&#x2265;" horiz-adv-x="500" 
d="M477 348c0 -19 -10 -35 -25 -42l-385 -185c-4 -2 -8 -3 -13 -3c-14 0 -31 13 -31 32c0 11 6 24 17 28l359 168l-358 169c-12 5 -19 16 -19 28c0 19 16 32 33 32c4 0 9 0 13 -2l384 -186c15 -7 25 -23 25 -39zM477 30c0 -17 -13 -30 -29 -30h-398c-15 0 -28 13 -28 30
c0 16 13 29 28 29h398c16 0 29 -13 29 -29z" />
    <glyph glyph-name="lozenge" unicode="&#x25ca;" horiz-adv-x="375" 
d="M343 334c0 -18 -4 -36 -12 -52l-129 -273c-2 -5 -8 -9 -15 -9c-6 0 -12 4 -14 9l-129 273c-8 16 -12 34 -12 52s4 35 12 52l129 272c2 5 8 9 16 9c5 0 11 -4 13 -9l129 -272c8 -17 12 -34 12 -52zM320 334l-133 292l-132 -292l133 -293z" />
    <glyph glyph-name="uniF8FF" unicode="&#xf8ff;" horiz-adv-x="667" 
d="M625 154c0 -61 -50 -112 -111 -112s-112 51 -112 112v72h-137v-72c0 -61 -51 -112 -112 -112s-111 51 -111 112s50 111 111 111h71v137h-70c-61 0 -112 51 -112 112s51 111 112 111s111 -50 111 -111v-73h137v73c0 61 51 111 112 111s111 -50 111 -111
s-50 -112 -111 -112h-71v-137h71c61 0 111 -50 111 -111zM584 514c0 40 -30 72 -70 72s-71 -32 -71 -72v-73h71c40 0 70 33 70 73zM402 265v137h-137v-137h137zM584 154c0 40 -29 72 -70 72h-71v-72c0 -40 31 -73 71 -73s70 33 70 73zM224 441v73c0 40 -30 72 -70 72
s-72 -32 -72 -72s32 -73 72 -73h70zM224 154v72h-72c-40 0 -70 -32 -70 -72s31 -73 71 -73s71 33 71 73z" />
    <glyph glyph-name="commaaccent" unicode="&#xf6c3;" horiz-adv-x="237" 
d="M175 -138c0 -48 -24 -93 -59 -125c-4 -4 -11 -7 -17 -7s-12 2 -16 6l-1 1c-4 4 -7 9 -7 14s2 9 6 12c19 20 40 48 43 73c-1 -1 -8 -2 -12 -2c-25 0 -45 20 -45 47c0 29 22 52 50 52c31 0 58 -26 58 -71z" />
    </font>
</defs>
</svg>
